{"glyphs":{"0":{"ha":846,"x_min":14,"x_max":832,"o":"m 832 531 q 800 317 832 424 q 747 192 781 253 q 665 83 713 131 q 556 6 617 35 q 422 -24 494 -24 q 243 30 319 -24 q 115 165 167 83 q 39 345 64 247 q 14 531 14 443 q 50 758 14 646 q 105 879 71 821 q 187 983 139 938 q 294 1055 235 1028 q 424 1082 353 1082 q 553 1055 494 1082 q 660 983 613 1028 q 741 879 707 938 q 796 758 775 821 q 832 531 832 646 m 775 531 q 742 742 775 640 q 696 845 725 794 q 626 936 667 896 q 535 1001 586 976 q 424 1026 485 1026 q 313 1001 364 1026 q 221 936 261 976 q 151 845 181 896 q 104 742 122 794 q 71 531 71 640 q 92 368 71 456 q 157 206 114 281 q 267 82 200 132 q 422 32 333 32 q 537 59 485 32 q 630 128 589 86 q 700 225 671 171 q 746 333 729 279 q 775 531 775 429 z "},"1":{"ha":846,"x_min":256,"x_max":592,"o":"m 592 10 q 583 -10 592 -3 q 563 -18 574 -18 q 543 -10 551 -18 q 535 10 535 -3 l 532 947 q 505 913 524 938 q 462 858 486 889 q 410 796 438 828 q 358 738 383 764 q 313 694 333 711 q 283 676 293 676 q 264 685 272 676 q 256 706 256 694 q 264 725 256 717 q 290 752 276 739 q 315 779 303 765 q 421 897 371 838 q 478 974 451 935 q 538 1050 506 1014 q 563 1064 549 1064 q 582 1054 575 1064 q 589 1033 589 1044 l 592 10 z "},"2":{"ha":846,"x_min":67,"x_max":779,"o":"m 779 10 q 770 -10 779 -3 q 750 -18 761 -18 l 121 -18 q 101 -10 110 -18 q 92 10 92 -1 q 135 170 92 96 q 246 311 179 244 q 389 440 313 378 q 532 563 465 501 q 642 687 599 624 q 686 821 686 750 q 663 910 686 871 q 604 976 640 949 q 522 1019 568 1004 q 432 1033 476 1033 q 309 1006 365 1033 q 211 933 253 979 q 147 828 169 888 q 124 704 124 769 q 115 684 124 692 q 94 676 106 676 q 75 684 83 676 q 67 704 67 692 q 94 850 67 781 q 172 973 122 919 q 288 1058 221 1026 q 432 1089 354 1089 q 544 1070 489 1089 q 644 1017 600 1051 q 716 932 689 982 q 743 821 743 882 q 701 676 743 743 q 597 547 660 608 q 460 426 535 485 q 320 306 386 367 q 207 178 254 244 q 150 38 160 113 l 750 38 q 770 30 761 38 q 779 10 779 22 z "},"3":{"ha":846,"x_min":54,"x_max":793,"o":"m 793 344 q 761 202 793 269 q 676 85 729 135 q 555 6 624 35 q 411 -24 486 -24 q 280 -1 344 -24 q 165 62 215 21 q 85 160 115 103 q 54 290 54 218 q 63 310 54 303 q 82 318 71 318 q 102 310 93 318 q 111 290 111 303 q 138 183 111 231 q 206 101 164 135 q 302 51 249 68 q 411 33 356 33 q 532 58 474 33 q 636 124 590 82 q 709 224 682 167 q 736 344 736 281 q 712 453 736 403 q 642 540 688 504 q 566 503 607 515 q 482 490 525 490 q 444 496 465 490 q 404 513 424 501 q 372 539 385 524 q 358 574 358 554 q 370 610 358 596 q 399 634 382 625 q 437 647 417 643 q 475 651 457 651 q 558 642 517 651 q 638 611 600 632 q 692 695 674 647 q 711 794 711 743 q 684 890 711 847 q 615 963 657 932 q 523 1010 574 993 q 425 1026 472 1026 q 344 1016 385 1026 q 267 985 303 1006 q 200 937 231 965 q 149 872 169 908 q 133 843 142 860 q 107 826 125 826 q 88 835 96 826 q 79 854 79 843 q 81 867 79 863 q 140 956 104 917 q 222 1024 176 996 q 319 1067 267 1051 q 425 1082 371 1082 q 544 1061 483 1082 q 656 1003 606 1040 q 737 913 706 965 q 768 794 768 860 q 747 679 768 735 q 685 579 725 624 q 765 474 738 535 q 793 344 793 413 m 586 574 q 531 590 560 585 q 475 596 503 596 q 460 595 469 596 q 440 592 450 594 q 423 586 431 590 q 415 574 415 582 q 424 563 415 568 q 444 555 432 558 q 467 549 456 551 q 482 547 478 547 q 586 574 536 547 z "},"4":{"ha":846,"x_min":58,"x_max":788,"o":"m 788 361 q 777 340 788 347 q 752 331 767 333 q 723 330 738 329 q 699 331 708 331 q 614 331 656 331 q 529 333 572 332 l 529 10 q 520 -10 529 -3 q 500 -18 511 -18 q 481 -10 489 -18 q 472 10 472 -3 l 472 333 q 361 338 417 336 q 250 339 306 339 q 169 336 210 339 q 89 333 129 333 q 67 340 76 333 q 58 360 58 346 q 63 376 58 368 l 464 1060 q 488 1074 474 1074 q 508 1066 499 1074 q 518 1046 518 1058 q 513 1031 518 1039 l 138 393 q 189 394 164 394 q 240 394 214 394 q 472 390 358 394 l 472 539 q 481 559 472 551 q 500 567 489 567 q 520 559 511 567 q 529 539 529 551 l 529 389 q 592 387 561 388 q 654 386 622 386 q 706 388 681 386 q 757 389 731 389 q 778 382 769 389 q 788 361 788 375 z "},"5":{"ha":846,"x_min":74,"x_max":813,"o":"m 813 363 q 782 216 813 285 q 699 95 751 147 q 578 13 647 43 q 431 -18 508 -18 q 292 10 357 -18 q 179 85 228 38 q 102 195 131 132 q 74 329 74 258 q 82 349 74 342 q 101 357 90 357 q 122 349 113 357 q 132 329 132 342 q 156 216 132 268 q 220 124 179 164 q 315 63 261 85 q 431 40 369 40 q 556 65 497 40 q 659 134 615 90 q 728 237 703 178 q 754 363 754 296 q 725 478 754 426 q 649 566 696 529 q 544 622 603 603 q 426 642 486 642 q 347 639 381 642 q 283 627 313 636 q 226 600 254 618 q 163 551 197 582 q 151 544 156 547 q 140 542 146 542 q 119 551 126 542 q 113 572 111 561 l 114 578 q 125 698 118 640 q 132 818 132 756 q 120 927 132 872 q 108 1036 108 982 q 114 1076 108 1056 q 142 1097 119 1097 q 235 1096 188 1097 q 331 1094 283 1094 q 516 1096 424 1094 q 704 1097 608 1097 q 724 1090 715 1097 q 732 1071 732 1083 q 724 1050 732 1058 q 704 1042 715 1042 q 511 1040 607 1042 q 319 1038 415 1038 l 244 1038 q 208 1038 226 1038 q 171 1039 190 1038 q 183 931 176 985 q 189 818 189 876 q 181 643 189 732 q 299 690 239 679 q 426 700 360 700 q 567 676 497 700 q 691 607 636 651 q 779 501 746 563 q 813 363 813 439 z "},"6":{"ha":846,"x_min":74,"x_max":774,"o":"m 774 292 q 744 164 774 222 q 667 64 715 106 q 556 -1 618 22 q 428 -25 494 -25 q 311 -6 367 -25 q 211 48 256 13 q 135 133 167 83 q 92 243 104 182 q 78 331 82 286 q 74 419 74 375 q 88 549 74 478 q 130 694 103 621 q 196 838 157 768 q 285 962 235 907 q 395 1049 335 1017 q 525 1082 456 1082 q 546 1074 538 1082 q 554 1054 554 1067 q 546 1035 554 1040 q 526 1026 538 1029 q 472 1017 493 1021 q 419 997 451 1014 q 313 908 363 968 q 226 774 264 847 q 165 626 189 701 q 132 489 140 550 q 128 457 129 474 q 126 425 128 440 q 132 443 129 433 q 139 460 135 453 q 191 526 158 497 q 263 576 224 556 q 344 606 301 596 q 428 617 386 617 q 558 592 496 617 q 669 524 621 568 q 745 421 717 481 q 774 292 774 361 m 717 292 q 692 399 717 350 q 628 485 668 449 q 537 541 589 521 q 428 561 485 561 q 322 541 374 561 q 231 485 271 521 q 168 401 192 450 q 144 296 144 353 q 167 189 144 238 q 230 105 190 140 q 321 50 269 69 q 428 31 372 31 q 534 50 482 31 q 626 104 586 69 q 692 187 667 139 q 717 292 717 235 z "},"7":{"ha":846,"x_min":7,"x_max":840,"o":"m 840 1051 q 833 1033 840 1043 l 525 572 q 545 572 536 572 q 565 571 554 571 q 664 575 614 571 q 688 578 676 576 q 713 579 700 579 q 735 572 725 579 q 744 551 744 565 q 738 533 744 540 q 719 524 731 526 q 667 516 697 518 q 604 514 638 514 q 542 515 572 514 q 488 517 511 517 l 136 -6 q 113 -18 128 -18 q 93 -10 101 -18 q 85 10 85 -1 q 89 25 85 19 l 421 519 q 335 524 378 522 q 250 525 293 525 q 213 524 231 525 q 175 524 194 524 q 154 531 163 524 q 146 551 146 538 q 164 576 146 572 q 197 581 182 581 q 328 578 264 581 q 457 574 392 576 l 754 1017 q 618 1013 686 1013 q 392 1018 506 1013 q 167 1024 279 1024 q 101 1022 135 1024 q 36 1021 68 1021 q 15 1028 24 1021 q 7 1049 7 1036 q 18 1069 7 1063 q 44 1078 29 1076 q 74 1080 58 1081 q 99 1079 89 1079 q 357 1074 229 1079 q 615 1068 485 1068 q 713 1072 664 1068 q 811 1076 763 1076 q 831 1069 822 1076 q 840 1051 840 1063 z "},"8":{"ha":846,"x_min":58,"x_max":788,"o":"m 788 288 q 756 160 788 217 q 673 65 724 104 q 558 3 622 25 q 428 -18 493 -18 q 301 1 367 -18 q 182 56 236 19 q 93 145 128 92 q 58 269 58 199 q 74 367 58 319 q 119 453 90 414 q 187 522 147 493 q 275 567 226 551 q 160 665 204 600 q 117 808 117 729 q 142 919 117 869 q 210 1004 168 968 q 306 1060 251 1040 q 417 1079 360 1079 q 530 1059 475 1079 q 627 1003 585 1039 q 695 915 669 967 q 721 803 721 864 q 673 662 721 721 q 554 568 625 603 q 644 526 601 551 q 718 465 686 500 q 769 385 750 429 q 788 288 788 340 m 664 803 q 642 893 664 853 q 586 963 621 933 q 507 1008 551 992 q 417 1024 463 1024 q 328 1008 371 1024 q 250 965 285 993 q 194 897 215 936 q 174 808 174 857 q 192 722 174 761 q 243 655 211 683 q 317 610 275 626 q 403 594 358 594 q 428 593 415 594 q 453 592 440 592 q 463 594 456 592 q 479 599 471 596 q 495 604 488 601 q 506 608 503 607 q 566 640 538 621 q 616 683 594 658 q 651 737 638 707 q 664 803 664 767 m 731 288 q 713 371 731 333 q 667 438 696 408 q 600 487 638 467 q 522 519 563 507 q 488 528 513 522 q 454 533 464 533 q 443 532 447 533 q 432 529 439 531 q 398 526 415 526 q 364 525 381 525 q 266 505 311 525 q 188 449 221 485 q 135 368 154 414 q 115 269 115 322 q 146 168 115 211 q 222 96 176 125 q 323 52 268 67 q 428 38 378 38 q 535 54 481 38 q 633 103 589 71 q 703 183 676 136 q 731 288 731 229 z "},"9":{"ha":846,"x_min":71,"x_max":775,"o":"m 775 600 q 760 469 775 539 q 716 330 744 399 q 646 198 688 261 q 552 87 604 135 q 438 10 500 39 q 306 -18 376 -18 q 285 -10 293 -18 q 276 10 276 -3 q 303 38 276 33 q 359 46 335 43 q 415 63 383 49 q 545 159 489 94 q 640 303 601 224 q 700 469 679 383 q 722 631 721 556 q 718 617 719 624 q 714 606 717 611 q 660 532 693 564 q 587 478 626 500 q 503 445 547 457 q 413 433 458 433 q 283 458 344 433 q 174 525 221 482 q 99 628 126 568 q 71 757 71 688 q 99 885 71 826 q 176 986 128 943 q 285 1053 224 1029 q 413 1078 346 1078 q 544 1055 482 1078 q 654 983 606 1032 q 715 900 692 946 q 751 804 738 854 q 770 702 765 754 q 775 600 775 650 m 701 753 q 677 860 701 811 q 613 946 653 910 q 520 1002 572 982 q 413 1022 468 1022 q 307 1002 358 1022 q 216 947 256 982 q 152 863 176 911 q 128 757 128 814 q 151 650 128 699 q 215 565 175 601 q 306 509 254 529 q 413 489 357 489 q 519 508 467 489 q 612 563 571 528 q 677 647 653 599 q 701 753 701 696 z "}," ":{"ha":556,"x_min":0,"x_max":0,"o":""},"$":{"ha":315,"x_min":-28,"x_max":346,"o":"m 346 181 q 329 99 346 136 q 283 37 313 63 q 216 -3 254 11 q 135 -18 178 -18 q 37 18 76 -18 q -3 117 -3 54 q 19 172 -3 149 q 72 194 40 194 q 94 188 85 194 q 104 168 104 182 q 97 149 104 154 q 80 142 89 144 q 63 135 71 139 q 56 117 56 131 q 78 58 56 79 q 135 38 101 38 q 244 76 199 38 q 289 181 289 114 q 267 240 289 214 q 213 287 244 267 q 146 322 181 307 q 86 350 111 338 q 61 286 74 318 q 35 222 49 254 q 22 200 29 211 q 0 189 15 189 q -19 197 -11 189 q -28 215 -28 204 q -19 241 -28 218 q 2 292 -10 264 q 24 346 14 321 q 38 379 35 371 q 4 415 18 394 q -10 461 -10 436 q 6 521 -10 493 q 57 549 21 549 q 103 530 83 549 q 124 485 124 511 q 118 443 124 464 q 106 403 113 422 q 182 365 140 385 q 260 321 224 346 q 322 262 297 296 q 346 181 346 228 m 67 485 q 57 493 67 493 q 48 486 50 493 q 46 474 46 479 q 48 455 46 463 q 57 438 50 447 q 64 460 61 449 q 67 485 67 472 z "},"%":{"ha":774,"x_min":35,"x_max":782,"o":"m 351 939 q 340 874 351 906 q 307 819 328 843 q 257 781 286 796 q 193 767 228 767 q 129 781 158 767 q 79 819 100 796 q 47 874 58 843 q 35 939 35 906 q 48 999 35 971 q 83 1049 61 1026 q 133 1083 104 1071 q 193 1096 163 1096 q 254 1083 225 1096 q 305 1049 283 1071 q 339 999 326 1028 q 351 939 351 971 m 650 1064 q 497 676 575 868 q 340 289 419 483 l 263 94 q 252 66 258 86 q 237 26 246 46 q 217 -8 228 7 q 196 -24 207 -24 q 175 -15 183 -24 q 167 6 167 -6 q 296 335 231 171 q 428 663 361 499 q 492 819 460 742 q 554 975 524 896 q 565 1003 558 983 q 580 1043 571 1024 q 599 1078 589 1063 q 621 1093 610 1093 q 642 1084 633 1093 q 650 1064 650 1075 m 782 153 q 770 88 782 119 q 738 33 758 57 q 688 -5 717 10 q 624 -19 658 -19 q 560 -5 589 -19 q 510 33 531 10 q 477 88 489 57 q 465 153 465 119 q 478 213 465 185 q 513 263 492 242 q 564 298 535 285 q 624 311 593 311 q 685 299 656 311 q 735 265 714 286 q 769 214 757 243 q 782 153 782 185 m 294 939 q 264 1010 294 979 q 193 1040 233 1040 q 122 1010 153 1040 q 92 939 92 979 q 99 897 92 918 q 119 860 106 876 q 152 833 133 843 q 193 824 171 824 q 235 833 217 824 q 267 860 253 843 q 288 897 281 876 q 294 939 294 918 m 725 153 q 694 224 725 193 q 624 254 664 254 q 553 224 583 254 q 522 153 522 193 q 529 111 522 132 q 550 74 536 90 q 583 47 564 57 q 624 36 601 36 q 665 47 647 36 q 697 74 683 57 q 718 111 711 90 q 725 153 725 132 z "},"&":{"ha":771,"x_min":-7,"x_max":800,"o":"m 800 508 q 790 489 800 499 q 730 452 767 465 q 660 442 693 439 q 664 360 664 400 q 651 237 664 293 q 600 125 639 181 q 649 72 624 97 q 710 38 674 47 q 729 30 721 35 q 738 10 738 25 q 728 -10 738 -3 q 708 -18 719 -18 q 668 -8 689 -18 q 628 18 647 3 q 594 51 610 33 q 565 82 578 68 q 458 8 519 33 q 331 -18 397 -18 q 198 9 260 -18 q 91 83 136 36 q 19 192 46 131 q -7 325 -7 254 q 14 431 -7 383 q 68 517 35 478 q 144 589 101 556 q 229 651 186 622 q 209 701 221 672 q 187 760 197 729 q 169 819 176 790 q 163 869 163 849 q 173 937 163 903 q 203 998 183 971 q 253 1042 224 1025 q 319 1058 282 1058 q 387 1042 357 1058 q 438 1000 417 1026 q 472 940 460 974 q 483 872 483 907 q 466 795 483 831 q 422 731 449 760 q 363 676 396 701 q 299 631 331 651 q 419 394 354 510 q 564 172 485 279 q 599 260 592 217 q 607 354 607 303 q 606 409 607 382 q 597 463 604 436 q 565 481 582 471 q 529 492 547 492 q 514 486 524 492 q 493 473 504 481 q 472 460 482 465 q 453 454 461 454 q 434 463 442 454 q 426 483 426 472 q 431 498 426 493 q 442 508 435 503 q 483 533 460 519 q 529 547 507 547 q 569 540 551 547 q 604 523 588 532 q 636 506 621 514 q 668 499 651 499 q 706 504 690 499 q 735 517 722 510 q 756 531 747 525 q 771 536 765 536 q 791 528 782 536 q 800 508 800 519 m 426 872 q 419 918 426 894 q 398 960 411 942 q 365 991 385 979 q 319 1003 344 1003 q 276 990 294 1003 q 244 958 257 978 q 226 914 232 938 q 219 869 219 890 q 226 826 219 851 q 240 775 232 801 q 258 724 249 749 q 275 682 268 700 q 325 718 299 699 q 374 761 351 738 q 412 813 397 785 q 426 872 426 840 m 528 126 q 377 354 444 235 q 253 599 310 474 q 181 546 217 574 q 115 485 144 518 q 68 413 86 451 q 50 325 50 374 q 72 215 50 267 q 131 123 93 163 q 219 60 168 83 q 331 38 271 38 q 438 61 388 38 q 528 126 489 85 z "},"'":{"ha":240,"x_min":63,"x_max":119,"o":"m 119 767 q 110 748 119 756 q 90 740 101 740 q 71 748 79 740 q 63 767 63 756 l 63 940 q 71 959 63 951 q 90 967 79 967 q 110 959 101 967 q 119 940 119 951 l 119 767 z "},"(":{"ha":329,"x_min":-10,"x_max":267,"o":"m 267 -222 q 258 -242 267 -233 q 238 -250 249 -250 q 215 -239 224 -250 q 124 -100 165 -183 q 53 75 83 -17 q 7 259 24 167 q -10 425 -10 351 q 7 593 -10 503 q 53 774 24 683 q 124 946 83 864 q 215 1088 165 1028 q 238 1100 225 1100 q 258 1091 249 1100 q 267 1071 267 1082 q 257 1047 267 1065 q 234 1009 247 1029 q 209 970 221 989 q 193 943 197 951 q 87 692 126 825 q 47 425 47 560 q 87 156 47 289 q 193 -94 126 24 q 209 -122 197 -103 q 234 -160 221 -140 q 257 -199 247 -181 q 267 -222 267 -217 z "},")":{"ha":329,"x_min":63,"x_max":340,"o":"m 340 425 q 324 259 340 351 q 276 75 307 167 q 205 -100 246 -17 q 114 -239 164 -183 q 92 -250 106 -250 q 72 -242 81 -250 q 63 -222 63 -233 q 68 -206 63 -217 q 154 -58 115 -132 q 222 94 193 17 q 266 253 250 171 q 282 425 282 336 q 266 597 282 515 q 222 755 250 678 q 154 906 193 832 q 68 1054 115 981 q 63 1071 63 1065 q 72 1091 63 1082 q 92 1100 81 1100 q 114 1088 104 1100 q 205 946 164 1028 q 276 774 246 864 q 324 593 307 683 q 340 425 340 503 z "},"*":{"ha":658,"x_min":119,"x_max":538,"o":"m 538 708 q 528 689 538 697 q 508 681 519 681 q 481 691 503 681 q 435 715 460 701 q 387 740 410 728 q 356 757 364 753 l 356 604 q 347 585 356 593 q 326 576 338 576 q 307 585 315 576 q 299 604 299 593 l 299 751 q 268 735 290 747 q 222 709 246 722 q 176 685 197 696 q 149 675 156 675 q 129 683 138 675 q 121 703 121 692 q 133 725 121 719 l 271 801 l 133 874 q 119 897 119 881 q 128 917 119 908 q 149 925 138 925 q 176 915 156 925 q 222 891 197 904 q 268 865 246 878 q 299 849 290 853 l 299 996 q 307 1015 299 1007 q 326 1024 315 1024 q 347 1015 338 1024 q 356 996 356 1007 l 356 849 q 386 865 364 853 q 433 891 408 878 q 478 915 457 904 q 506 925 500 925 q 526 917 517 925 q 535 899 535 910 q 519 875 535 883 l 386 801 l 522 731 q 538 708 538 724 z "},"+":{"ha":1207,"x_min":303,"x_max":907,"o":"m 907 485 q 898 465 907 474 q 878 457 889 457 l 632 457 l 632 222 q 623 203 632 211 q 603 194 614 194 q 583 203 592 194 q 575 222 575 211 l 575 457 l 329 457 q 310 465 318 457 q 303 485 303 474 q 310 504 303 496 q 329 513 318 513 l 575 513 l 575 750 q 583 769 575 761 q 603 778 592 778 q 623 769 614 778 q 632 750 632 761 l 632 513 l 878 513 q 898 504 889 513 q 907 485 907 496 z "},",":{"ha":179,"x_min":-129,"x_max":115,"o":"m 115 79 q 102 -19 115 32 q 62 -114 89 -71 q -6 -185 35 -157 q -101 -212 -47 -212 q -121 -205 -112 -212 q -129 -186 -129 -197 q -121 -167 -129 -175 q -101 -160 -112 -160 q -51 -147 -74 -160 q -9 -113 -28 -133 q 23 -68 10 -93 q 43 -19 36 -43 q 58 79 58 31 q 67 98 58 90 q 86 106 75 106 q 106 98 97 106 q 115 79 115 90 z "},"-":{"ha":658,"x_min":115,"x_max":543,"o":"m 543 239 q 533 224 543 228 q 514 221 522 221 l 143 221 q 125 224 135 221 q 115 239 115 228 q 125 253 115 250 q 143 257 135 257 l 514 257 q 533 253 522 257 q 543 239 543 250 z "},".":{"ha":192,"x_min":33,"x_max":160,"o":"m 160 44 q 140 6 160 21 q 97 -8 119 -8 q 54 6 75 -8 q 33 44 33 19 q 54 83 33 69 q 97 97 75 97 q 140 83 119 97 q 160 44 160 68 z "},"/":{"ha":658,"x_min":176,"x_max":482,"o":"m 482 1046 q 481 1043 482 1044 q 481 1040 481 1042 l 232 3 q 206 -18 228 -18 q 185 -10 194 -18 q 176 10 176 -1 l 176 15 l 425 1054 q 435 1069 428 1064 q 453 1075 443 1075 q 474 1066 465 1075 q 482 1046 482 1057 z "},":":{"ha":411,"x_min":115,"x_max":242,"o":"m 242 328 q 222 285 242 303 q 178 268 203 268 q 134 285 153 268 q 115 328 115 303 q 134 371 115 353 q 178 389 153 389 q 222 371 203 389 q 242 328 242 353 m 242 51 q 222 9 242 26 q 178 -8 203 -8 q 134 9 153 -8 q 115 51 115 26 q 134 94 115 76 q 178 111 153 111 q 222 94 203 111 q 242 51 242 76 z "},";":{"ha":171,"x_min":-129,"x_max":142,"o":"m 142 326 q 123 283 142 301 q 79 265 104 265 q 35 283 54 265 q 15 326 15 300 q 35 371 15 353 q 79 389 54 389 q 123 370 104 389 q 142 326 142 351 m 115 88 q 102 -12 115 40 q 62 -110 89 -65 q -6 -183 35 -154 q -101 -212 -46 -212 q -121 -204 -112 -212 q -129 -185 -129 -196 q -121 -165 -129 -174 q -101 -157 -112 -157 q -50 -144 -74 -157 q -8 -110 -26 -131 q 23 -63 10 -89 q 43 -14 36 -37 q 58 88 58 39 q 67 107 58 99 q 86 115 75 115 q 106 107 97 115 q 115 88 115 99 z "},"<":{"ha":657,"x_min":138,"x_max":396,"o":"m 396 224 q 386 204 396 213 q 365 196 376 196 q 343 208 353 196 l 142 471 q 138 478 139 474 q 138 488 138 483 q 138 497 138 492 q 142 504 139 501 l 343 767 q 365 778 351 778 q 386 769 376 778 q 396 750 396 761 q 394 742 396 746 q 389 735 392 738 l 199 488 l 389 242 q 396 224 396 232 z "},"=":{"ha":1207,"x_min":303,"x_max":907,"o":"m 907 556 q 898 538 907 544 q 878 531 889 531 l 329 531 q 303 556 303 531 q 329 582 303 582 l 878 582 q 898 574 889 582 q 907 556 907 567 m 907 408 q 898 390 907 397 q 878 382 889 382 l 331 382 q 311 390 319 382 q 303 408 303 397 q 311 426 303 419 q 331 433 319 433 l 878 433 q 898 426 889 433 q 907 408 907 419 z "},">":{"ha":657,"x_min":263,"x_max":522,"o":"m 522 492 q 517 476 522 485 l 314 213 q 292 201 306 201 q 272 210 281 201 q 263 229 263 218 q 268 246 263 240 l 458 492 l 268 739 q 263 756 263 744 q 272 775 263 767 q 292 783 281 783 q 314 772 306 783 l 517 508 q 522 492 522 503 z "},"?":{"ha":740,"x_min":-8,"x_max":653,"o":"m 653 806 q 633 708 653 749 q 583 636 614 667 q 516 581 553 606 q 444 535 479 557 q 381 488 410 513 q 340 429 353 463 q 324 333 324 383 q 333 283 324 307 q 342 232 342 258 q 331 209 342 218 q 308 200 321 200 q 288 210 294 200 q 281 232 281 219 q 274 283 281 258 q 267 333 267 307 q 281 435 267 396 q 322 505 296 475 q 386 560 349 535 q 468 617 424 585 q 516 653 493 635 q 557 695 539 672 q 585 745 575 718 q 596 806 596 772 q 571 900 596 860 q 506 966 546 940 q 417 1005 467 992 q 321 1018 368 1018 q 225 1005 274 1018 q 138 966 176 992 q 74 900 99 940 q 49 806 49 860 q 40 786 49 794 q 19 778 31 778 q 0 786 8 778 q -8 806 -8 794 q 21 922 -8 872 q 97 1006 50 972 q 203 1057 144 1040 q 321 1074 261 1074 q 440 1057 381 1074 q 546 1006 499 1040 q 623 922 593 972 q 653 806 653 872 m 390 54 q 372 10 390 29 q 328 -8 353 -8 q 283 10 303 -8 q 264 54 264 28 q 283 98 264 81 q 328 115 303 115 q 372 97 353 115 q 390 54 390 79 z "},"@":{"ha":1064,"x_min":69,"x_max":997,"o":"m 997 556 q 985 474 997 515 q 948 399 972 432 q 888 344 924 365 q 807 322 853 322 q 734 342 767 322 q 690 403 701 363 q 617 344 660 365 q 525 322 574 322 q 439 341 479 322 q 369 391 399 360 q 324 463 340 422 q 307 550 307 504 q 324 637 307 596 q 369 709 340 678 q 439 759 399 740 q 525 778 479 778 q 615 758 572 778 q 688 703 657 739 q 687 724 688 711 q 688 747 686 736 q 696 766 690 758 q 715 774 701 774 q 735 765 726 774 q 744 746 744 757 l 744 436 q 762 392 744 407 q 807 378 779 378 q 865 395 840 378 q 906 439 889 413 q 931 497 922 465 q 939 556 939 528 q 906 711 939 639 q 818 838 874 783 q 688 922 763 892 q 532 953 614 953 q 376 922 450 953 q 247 838 303 892 q 159 711 192 783 q 126 556 126 639 q 159 399 126 472 q 247 273 192 326 q 375 188 301 219 q 532 157 449 157 q 552 149 543 157 q 561 129 561 140 q 552 110 561 118 q 532 101 543 101 q 353 137 438 101 q 206 233 269 172 q 106 377 143 294 q 69 556 69 460 q 106 734 69 651 q 206 878 143 817 q 353 974 269 939 q 532 1008 438 1008 q 711 974 626 1008 q 859 878 796 939 q 960 734 922 817 q 997 556 997 651 m 688 550 q 675 615 688 583 q 641 670 663 646 q 590 708 619 694 q 525 722 560 722 q 460 708 490 722 q 409 670 431 694 q 376 615 388 646 q 364 550 364 583 q 376 485 364 517 q 409 430 388 454 q 460 392 431 406 q 525 378 490 378 q 590 392 560 378 q 641 430 619 406 q 675 485 663 454 q 688 550 688 517 z "},"A":{"ha":1018,"x_min":-28,"x_max":974,"o":"m 974 261 q 956 152 974 203 q 906 63 938 101 q 830 2 874 25 q 736 -21 786 -21 q 616 26 660 -21 q 551 142 572 74 q 524 291 529 211 q 519 435 519 371 q 522 528 519 482 q 526 621 524 575 q 458 642 492 631 q 389 663 425 654 q 390 526 389 600 q 385 375 390 451 q 365 228 381 299 q 319 101 350 157 q 236 13 288 46 q 106 -21 185 -21 q 62 -15 85 -21 q 19 5 39 -8 q -15 38 -1 18 q -28 86 -28 57 q -3 151 -28 124 q 56 178 22 178 q 76 169 68 178 q 85 146 85 161 q 76 123 85 129 q 58 113 68 117 q 38 105 47 110 q 29 86 29 100 q 38 65 29 74 q 59 51 47 56 q 84 44 71 46 q 106 43 97 43 q 232 89 186 43 q 300 203 278 135 q 327 352 322 272 q 332 500 332 432 l 332 671 q 325 672 329 671 q 317 672 321 672 q 285 666 300 672 q 258 652 269 660 q 237 638 246 644 q 222 632 228 632 q 203 642 211 632 q 194 664 194 651 q 204 689 194 678 q 264 728 231 717 q 332 736 297 739 q 335 854 332 796 q 338 972 338 913 q 344 1059 338 1011 q 367 1149 350 1107 q 411 1221 383 1192 q 482 1250 439 1250 q 549 1219 525 1250 q 585 1144 574 1189 q 600 1051 597 1100 q 603 967 603 1001 q 597 819 603 892 q 586 674 592 747 q 606 672 596 672 q 625 671 615 671 q 658 680 643 671 q 683 699 672 689 q 704 719 694 710 q 724 729 714 729 q 744 719 735 729 q 753 696 753 708 q 743 674 753 685 q 689 627 719 647 q 625 607 658 607 q 603 608 614 607 q 582 610 593 608 q 577 517 579 564 q 575 424 575 471 q 578 310 575 376 q 596 185 581 244 q 644 84 611 125 q 736 43 676 43 q 808 61 775 43 q 865 109 840 79 q 903 178 889 139 q 917 261 917 218 q 899 317 917 290 q 853 343 881 343 q 826 332 833 343 q 817 308 819 321 q 809 285 814 296 q 788 274 804 274 q 768 282 776 274 q 760 306 760 290 q 788 378 760 350 q 853 407 815 407 q 901 395 879 407 q 940 363 924 383 q 965 315 956 342 q 974 261 974 289 m 546 974 q 545 1028 546 993 q 538 1098 544 1063 q 519 1159 532 1133 q 482 1185 506 1185 q 437 1160 454 1185 q 410 1102 419 1136 q 398 1032 401 1068 q 394 972 394 996 q 392 850 394 913 q 389 728 389 788 q 460 708 425 719 q 531 686 494 696 q 541 830 536 758 q 546 974 546 901 z "},"B":{"ha":1042,"x_min":-28,"x_max":975,"o":"m 975 346 q 951 201 975 268 q 885 85 928 135 q 785 8 843 36 q 658 -21 726 -21 q 575 -1 613 -21 q 510 54 538 19 q 468 134 483 89 q 453 229 453 179 q 465 298 453 265 q 497 354 476 331 q 547 392 518 378 q 607 407 575 407 q 628 398 619 407 q 636 375 636 389 q 628 352 636 361 q 607 343 619 343 q 538 310 565 343 q 510 229 510 276 q 520 158 510 192 q 551 99 531 124 q 598 58 571 74 q 658 43 625 43 q 763 67 715 43 q 845 131 811 90 q 899 228 879 172 q 918 346 918 283 q 904 437 918 394 q 866 516 890 479 q 810 582 842 553 q 742 631 778 611 q 666 580 714 599 q 579 561 618 561 q 547 567 565 561 q 514 585 529 574 q 488 613 499 597 q 476 649 476 629 q 488 683 476 667 q 514 710 499 699 q 547 728 529 721 q 579 735 565 735 q 653 727 615 735 q 726 707 690 719 q 793 913 793 797 q 785 974 793 944 q 761 1031 776 1004 q 698 1108 736 1078 q 615 1156 660 1138 q 522 1182 569 1174 q 431 1190 475 1190 q 267 1160 344 1190 q 180 1115 222 1144 q 104 1046 138 1085 q 50 957 71 1007 q 29 850 29 907 q 41 803 29 826 q 71 761 53 779 q 110 732 89 743 q 153 721 132 721 q 197 736 178 721 q 229 774 217 751 q 249 824 242 796 q 256 875 256 851 q 264 899 256 890 q 283 907 272 907 q 304 899 296 907 q 313 875 313 890 q 301 799 313 838 q 270 728 290 760 q 220 678 250 697 q 153 658 190 658 q 88 674 121 658 q 30 715 56 689 q -12 777 4 742 q -28 850 -28 813 q 15 1026 -28 950 q 126 1152 58 1101 q 274 1228 193 1203 q 431 1254 356 1254 q 572 1235 499 1254 q 708 1176 646 1217 q 810 1070 769 1135 q 850 913 850 1006 q 833 790 850 849 q 782 681 817 731 q 921 544 867 629 q 975 346 975 460 m 519 1135 q 510 1112 519 1121 q 490 1103 501 1103 q 469 1076 478 1103 q 454 1010 460 1050 q 445 920 449 969 q 440 826 442 871 q 439 743 439 781 q 439 693 439 708 q 440 572 439 632 q 442 451 442 511 q 431 284 442 368 q 391 133 421 200 q 306 22 361 65 q 161 -21 251 -21 q 117 -15 140 -21 q 74 5 94 -8 q 41 38 54 18 q 28 86 28 57 q 53 155 28 124 q 111 186 78 186 q 132 176 124 186 q 140 153 140 167 q 132 130 140 136 q 113 121 124 124 q 94 112 103 118 q 85 86 85 106 q 94 65 85 74 q 115 51 103 56 q 140 44 126 46 q 161 43 153 43 q 281 82 236 43 q 348 181 325 121 q 377 313 371 240 q 383 451 383 385 q 381 594 383 522 q 379 738 379 665 q 380 800 379 760 q 383 888 381 840 q 393 985 386 936 q 413 1075 400 1035 q 444 1141 425 1115 q 490 1167 463 1167 q 510 1158 501 1167 q 519 1135 519 1149 m 678 658 q 629 666 654 661 q 579 671 604 671 q 556 665 572 671 q 539 649 539 660 q 556 631 539 638 q 579 625 572 625 q 631 633 607 625 q 678 658 654 640 z "},"C":{"ha":750,"x_min":-28,"x_max":706,"o":"m 706 250 q 681 138 706 188 q 619 53 657 88 q 531 -1 581 18 q 432 -21 482 -21 q 283 22 349 -21 q 171 132 217 64 q 101 286 125 200 q 76 460 76 372 q 81 578 76 519 q 96 696 85 638 q 3 810 33 738 q -28 961 -28 882 q -2 1082 -28 1028 q 65 1175 24 1136 q 160 1235 107 1214 q 267 1256 213 1256 q 287 1247 278 1256 q 296 1224 296 1238 q 287 1201 296 1210 q 267 1192 278 1192 q 181 1176 224 1192 q 105 1130 139 1160 q 50 1057 71 1100 q 29 961 29 1014 q 49 852 29 906 q 108 764 68 799 q 164 935 128 849 q 252 1094 200 1022 q 373 1210 304 1165 q 528 1256 442 1256 q 583 1241 558 1256 q 624 1203 607 1226 q 651 1148 642 1179 q 660 1085 660 1117 q 620 907 660 986 q 517 773 581 828 q 376 689 454 718 q 218 660 297 660 q 149 671 179 660 q 137 565 140 618 q 133 460 133 511 q 153 313 133 386 q 212 179 174 239 q 306 81 250 119 q 432 43 361 43 q 509 57 471 43 q 578 97 547 71 q 629 163 610 124 q 649 250 649 201 q 628 314 649 285 q 576 343 608 343 q 542 333 551 343 q 529 312 533 324 q 520 290 525 300 q 500 281 515 281 q 481 290 489 281 q 472 315 472 300 q 482 355 472 338 q 507 384 492 372 q 540 401 522 396 q 576 407 558 407 q 628 393 604 407 q 669 358 651 379 q 696 308 686 338 q 706 250 706 279 m 603 1085 q 598 1122 603 1103 q 583 1156 593 1140 q 560 1182 574 1172 q 528 1192 546 1192 q 392 1147 453 1192 q 285 1035 331 1103 q 208 887 239 968 q 161 732 178 806 q 218 724 189 724 q 353 748 285 724 q 477 819 422 772 q 567 933 532 865 q 603 1085 603 1001 z "},"D":{"ha":967,"x_min":-28,"x_max":917,"o":"m 917 663 q 896 429 917 550 q 826 208 875 308 q 697 44 778 108 q 497 -21 617 -21 q 387 -6 439 -21 q 282 36 335 10 q 198 -7 243 7 q 106 -21 153 -21 q 64 -16 88 -21 q 20 1 40 -11 q -14 31 0 13 q -28 76 -28 49 q -14 122 -28 103 q 20 152 0 140 q 64 169 40 164 q 106 175 88 175 q 193 154 151 175 q 275 111 235 133 q 326 183 306 143 q 358 267 346 222 q 376 360 371 313 q 381 451 381 407 q 378 604 381 528 q 375 757 375 681 q 376 815 375 776 q 379 901 376 854 q 389 994 382 947 q 408 1078 396 1040 q 440 1142 421 1117 q 485 1167 458 1167 q 505 1158 496 1167 q 514 1135 514 1149 q 505 1112 514 1121 q 485 1103 496 1103 q 464 1079 472 1103 q 450 1019 456 1056 q 442 938 444 982 q 437 853 439 894 q 435 779 435 813 q 435 732 435 747 q 437 592 435 661 q 439 451 439 522 q 415 254 439 353 q 329 82 390 156 q 497 43 411 43 q 622 71 568 43 q 715 145 675 99 q 783 255 756 192 q 828 386 811 318 q 852 526 844 454 q 860 663 860 597 q 822 867 860 771 q 720 1036 785 963 q 572 1151 656 1110 q 393 1193 488 1193 q 266 1169 331 1193 q 149 1099 201 1144 q 63 989 96 1053 q 29 847 29 925 q 38 777 29 814 q 63 708 46 740 q 105 656 79 676 q 164 636 131 636 q 226 663 201 636 q 266 727 251 689 q 286 809 281 765 q 292 886 292 853 q 300 910 292 901 q 319 918 308 918 q 340 910 331 918 q 349 886 349 901 q 340 783 349 838 q 309 681 331 728 q 252 603 288 633 q 164 572 217 572 q 82 597 118 572 q 22 663 46 622 q -15 751 -3 703 q -28 847 -28 799 q 10 1015 -28 939 q 109 1144 49 1090 q 244 1228 169 1199 q 393 1257 319 1257 q 594 1210 499 1257 q 760 1082 689 1163 q 874 893 832 1001 q 917 663 917 785 m 221 69 q 165 97 193 85 q 106 108 136 108 q 86 108 99 108 q 61 103 74 107 q 40 94 49 100 q 31 76 31 88 q 40 59 31 65 q 61 49 49 53 q 86 44 74 46 q 106 43 99 43 q 164 49 135 43 q 221 69 193 56 z "},"E":{"ha":724,"x_min":-28,"x_max":686,"o":"m 686 261 q 663 150 686 201 q 600 60 639 99 q 513 1 561 22 q 415 -21 465 -21 q 267 19 333 -21 q 153 127 200 60 q 81 278 107 194 q 56 450 56 363 q 103 651 56 560 q 239 792 151 742 q 221 823 229 807 q 207 857 213 839 q 133 872 174 860 q 56 906 92 883 q -3 962 21 928 q -28 1044 -28 996 q 1 1131 -28 1092 q 72 1197 31 1169 q 160 1239 114 1224 q 242 1254 207 1254 q 262 1245 253 1254 q 271 1222 271 1236 q 262 1199 271 1207 q 242 1190 253 1190 q 183 1179 219 1190 q 113 1148 147 1168 q 54 1101 79 1128 q 29 1044 29 1075 q 47 991 29 1013 q 92 955 65 969 q 147 933 118 940 q 196 924 175 926 q 195 940 194 931 q 196 957 196 949 q 224 1071 196 1017 q 297 1165 253 1125 q 394 1230 340 1206 q 496 1254 447 1254 q 593 1217 556 1254 q 631 1110 631 1181 q 592 994 631 1040 q 497 917 553 947 q 378 874 440 888 q 269 857 315 860 q 278 836 274 846 q 289 818 282 826 q 349 835 318 829 q 410 842 379 842 q 442 838 424 842 q 476 826 460 835 q 504 802 493 817 q 515 769 515 788 q 505 731 515 747 q 479 703 494 714 q 445 686 464 692 q 410 681 426 681 q 340 697 374 681 q 278 740 306 714 q 157 623 201 701 q 113 450 113 544 q 133 303 113 376 q 194 172 154 231 q 290 78 233 114 q 415 43 346 43 q 491 60 453 43 q 560 106 529 76 q 610 176 590 136 q 629 261 629 217 q 611 317 629 290 q 565 343 593 343 q 524 333 535 343 q 508 313 513 324 q 501 292 504 301 q 483 283 499 283 q 459 297 468 283 q 450 328 450 311 q 463 361 450 346 q 494 387 476 376 q 532 402 513 397 q 565 407 551 407 q 613 395 590 407 q 651 363 635 383 q 677 315 668 342 q 686 261 686 289 m 574 1110 q 553 1171 574 1151 q 496 1190 532 1190 q 430 1178 463 1190 q 368 1145 397 1167 q 315 1096 339 1124 q 274 1035 290 1068 q 259 998 265 1017 q 253 957 253 979 q 253 938 253 947 q 254 919 253 929 q 342 932 288 922 q 447 964 396 942 q 536 1022 499 986 q 574 1110 574 1057 m 451 765 q 446 772 451 769 q 433 775 440 774 q 419 776 426 776 q 411 776 414 776 q 378 774 394 776 q 344 768 361 771 q 376 750 356 754 q 411 746 396 746 q 435 749 418 746 q 451 765 451 753 z "},"F":{"ha":510,"x_min":-28,"x_max":782,"o":"m 782 1181 q 773 1158 782 1167 q 753 1149 764 1149 q 670 1156 711 1149 q 589 1171 629 1163 q 508 1186 549 1179 q 425 1193 467 1193 q 303 1172 372 1193 q 174 1110 235 1150 q 71 1013 113 1069 q 29 882 29 956 q 38 822 29 851 q 62 770 46 793 q 101 733 78 747 q 153 719 124 719 q 209 744 188 719 q 242 805 231 769 q 258 879 254 840 q 263 949 263 918 q 271 972 263 963 q 290 981 279 981 q 310 972 301 981 q 319 949 319 963 q 313 853 319 904 q 287 758 306 801 q 235 685 268 714 q 153 656 203 656 q 78 674 111 656 q 21 724 44 693 q -15 796 -3 754 q -28 882 -28 838 q 18 1040 -28 971 q 133 1158 64 1110 q 281 1231 201 1206 q 425 1257 360 1257 q 508 1251 467 1257 q 589 1235 549 1244 q 670 1220 629 1226 q 753 1214 711 1214 q 773 1204 764 1214 q 782 1181 782 1194 m 683 706 q 672 680 683 689 q 643 665 660 671 q 610 656 626 658 q 583 653 593 653 q 551 660 564 653 q 499 616 528 633 q 438 588 469 599 q 440 519 439 553 q 440 451 440 486 q 430 290 440 374 q 390 135 419 206 q 306 21 360 65 q 167 -24 253 -24 q 122 -18 146 -24 q 79 1 99 -12 q 47 34 60 14 q 33 82 33 54 q 59 147 33 121 q 117 174 85 174 q 137 165 128 174 q 146 142 146 156 q 138 119 146 125 q 119 109 129 113 q 99 101 108 106 q 90 82 90 97 q 99 61 90 69 q 120 48 108 53 q 145 42 132 43 q 167 40 158 40 q 281 81 239 40 q 347 182 324 121 q 376 315 369 243 q 383 451 383 388 q 383 513 383 483 q 382 574 382 542 q 354 570 368 571 q 325 569 340 569 q 304 572 318 569 q 277 581 290 575 q 254 594 264 586 q 244 614 244 603 q 253 637 244 626 q 272 647 261 647 q 299 640 286 647 q 325 632 311 632 q 379 639 356 632 q 379 714 379 664 q 381 821 379 763 q 389 940 383 879 q 406 1051 394 1001 q 436 1131 417 1100 q 483 1163 456 1163 q 503 1154 494 1163 q 513 1132 513 1146 q 503 1108 513 1117 q 483 1100 494 1100 q 463 1076 471 1100 q 449 1017 454 1053 q 442 939 444 982 q 438 857 439 896 q 436 786 436 818 q 436 746 436 757 l 438 656 q 506 699 478 672 q 487 740 493 717 q 481 786 481 764 q 484 830 481 806 q 497 877 488 854 q 520 915 506 900 q 556 931 535 931 q 606 901 588 931 q 625 839 625 872 q 594 718 625 775 q 625 730 610 721 q 654 739 640 739 q 675 729 667 739 q 683 706 683 719 m 568 832 q 567 851 568 838 q 560 865 567 865 q 547 856 551 865 q 541 833 543 846 q 538 806 539 819 q 538 788 538 793 q 539 769 538 779 q 544 750 540 758 q 562 789 556 768 q 568 832 568 810 z "},"G":{"ha":858,"x_min":-28,"x_max":874,"o":"m 874 244 q 868 229 874 239 q 767 83 825 149 q 633 -46 710 17 q 639 -201 636 -124 q 642 -358 642 -279 q 638 -516 642 -432 q 613 -672 633 -600 q 552 -791 593 -744 q 438 -837 511 -837 q 351 -810 390 -837 q 285 -737 313 -782 q 241 -635 257 -692 q 225 -519 225 -578 q 258 -335 225 -410 q 340 -203 290 -260 q 462 -97 390 -147 q 569 -6 533 -47 l 582 69 q 514 -1 556 25 q 425 -28 472 -28 q 278 15 343 -28 q 169 127 214 58 q 99 281 124 196 q 75 454 75 367 q 79 573 75 514 q 94 692 83 632 q 3 805 35 732 q -28 957 -28 878 q -2 1078 -28 1024 q 65 1172 24 1133 q 158 1231 106 1211 q 263 1251 210 1251 q 283 1243 274 1251 q 292 1219 292 1235 q 283 1197 292 1206 q 263 1189 274 1189 q 178 1173 219 1189 q 103 1126 136 1157 q 49 1053 69 1096 q 29 957 29 1011 q 48 848 29 901 q 107 760 67 794 q 161 930 126 843 q 247 1088 196 1017 q 367 1206 299 1160 q 519 1251 435 1251 q 574 1237 550 1251 q 615 1198 597 1222 q 640 1143 632 1174 q 649 1081 649 1113 q 610 903 649 982 q 510 769 571 824 q 371 684 449 714 q 214 654 293 654 q 180 656 197 654 q 146 664 163 658 q 134 560 138 613 q 131 454 131 507 q 151 307 131 381 q 208 174 171 233 q 301 76 246 114 q 425 38 356 38 q 488 56 461 38 q 535 104 515 75 q 564 171 554 133 q 574 244 574 208 q 573 305 574 275 q 572 365 572 335 q 581 389 572 379 q 600 399 589 399 q 620 389 611 399 q 629 365 629 379 q 633 201 629 282 q 640 38 636 119 q 718 115 681 74 q 788 206 756 157 q 804 235 797 219 q 821 264 811 251 q 844 278 831 278 q 865 267 856 278 q 874 244 874 257 m 593 1081 q 588 1117 593 1099 q 574 1152 583 1136 q 551 1178 564 1168 q 519 1189 538 1189 q 385 1144 444 1189 q 280 1031 325 1099 q 205 881 235 963 q 158 728 175 800 q 214 718 186 718 q 348 742 281 718 q 470 814 415 767 q 559 928 525 861 q 593 1081 593 994 m 581 -403 q 578 -249 581 -325 q 574 -97 576 -174 l 479 -176 q 405 -240 440 -207 q 343 -311 369 -272 q 301 -401 317 -350 q 285 -519 285 -451 q 297 -604 285 -562 q 328 -681 308 -646 q 376 -736 347 -715 q 438 -757 404 -757 q 519 -720 490 -757 q 561 -631 547 -683 q 578 -515 575 -578 q 581 -403 581 -453 z "},"H":{"ha":1126,"x_min":-28,"x_max":1082,"o":"m 979 1054 q 976 1090 979 1068 q 967 1133 974 1113 q 949 1167 961 1153 q 921 1182 938 1182 q 843 1159 878 1182 q 781 1098 808 1136 q 734 1011 754 1060 q 699 912 714 963 q 675 813 685 861 q 660 726 665 764 q 763 774 707 746 q 866 842 818 803 q 947 935 914 882 q 979 1054 979 988 m 599 1167 q 592 1178 599 1174 q 577 1184 586 1182 q 560 1187 568 1186 q 547 1188 551 1188 q 517 1178 531 1188 q 492 1154 503 1168 q 547 1146 522 1146 q 560 1146 551 1146 q 577 1148 568 1146 q 592 1154 586 1150 q 599 1167 599 1158 m 42 199 q 44 161 42 183 q 54 119 47 139 q 73 83 61 99 q 103 68 85 68 q 183 92 147 68 q 246 154 218 115 q 294 243 274 193 q 331 345 315 293 q 356 447 346 397 q 372 535 365 496 q 265 485 322 514 q 159 416 208 457 q 76 321 110 375 q 42 199 42 267 m 439 565 q 420 449 432 511 q 390 325 408 388 q 346 205 372 263 q 285 103 319 147 q 205 31 250 58 q 103 1 160 3 q 47 22 69 1 q 10 72 25 42 q -10 135 -4 101 q -17 199 -17 169 q 22 351 -17 286 q 119 465 61 417 q 247 547 178 513 q 379 606 317 582 l 381 876 q 386 999 381 939 q 410 1118 392 1060 q 372 1137 394 1125 q 326 1160 350 1149 q 281 1181 303 1172 q 243 1189 258 1189 q 172 1178 210 1189 q 103 1145 135 1167 q 50 1090 71 1124 q 29 1013 29 1057 q 36 968 29 990 q 56 928 43 946 q 85 899 68 910 q 124 888 103 888 q 183 910 156 888 q 211 972 211 932 q 219 994 211 986 q 239 1003 228 1003 q 259 994 250 1003 q 268 972 268 986 q 256 911 268 939 q 223 865 243 883 q 176 835 203 846 q 124 825 150 825 q 63 840 90 825 q 15 882 35 856 q -17 942 -6 908 q -28 1013 -28 976 q -2 1117 -28 1072 q 63 1191 24 1161 q 151 1236 103 1221 q 243 1251 199 1251 q 289 1243 264 1251 q 340 1223 314 1235 q 390 1199 365 1211 q 435 1176 414 1186 q 483 1231 454 1211 q 547 1250 511 1250 q 583 1246 564 1250 q 618 1232 601 1242 q 646 1206 635 1222 q 657 1167 657 1190 q 646 1128 657 1144 q 619 1102 635 1113 q 583 1087 603 1092 q 547 1082 564 1082 q 465 1097 508 1082 q 444 988 450 1046 q 438 876 438 931 l 438 633 q 463 644 450 639 q 488 656 475 649 q 486 675 486 665 q 486 694 486 685 l 486 736 q 492 772 486 753 q 517 792 497 792 q 538 782 529 792 q 546 758 546 772 q 545 717 546 738 q 544 678 544 697 l 599 701 q 615 810 604 750 q 642 930 625 869 q 685 1048 660 990 q 744 1149 710 1106 q 822 1220 778 1193 q 921 1247 865 1247 q 974 1228 951 1247 q 1010 1179 996 1208 q 1030 1117 1024 1150 q 1036 1054 1036 1083 q 999 906 1036 969 q 904 794 961 842 q 780 714 847 747 q 653 657 713 681 q 651 622 651 639 q 650 588 650 604 q 654 501 650 554 q 668 388 658 449 q 694 267 678 328 q 732 156 710 206 q 784 76 754 107 q 851 44 814 44 q 922 63 890 44 q 977 110 954 81 q 1013 179 1000 140 q 1025 261 1025 218 q 1008 317 1025 290 q 963 343 990 343 q 935 332 942 343 q 925 308 928 321 q 917 285 922 296 q 896 274 913 274 q 876 282 885 274 q 868 306 868 290 q 897 378 868 350 q 963 407 926 407 q 1010 394 989 407 q 1048 362 1032 382 q 1073 315 1064 342 q 1082 261 1082 289 q 1065 155 1082 206 q 1018 65 1049 104 q 945 3 988 26 q 851 -19 903 -19 q 763 14 801 -19 q 695 100 724 47 q 647 219 667 153 q 616 353 628 286 q 599 483 604 421 q 593 588 593 544 l 593 611 q 593 622 593 617 q 594 633 593 628 q 571 622 583 628 q 547 613 558 617 l 547 490 q 539 466 547 476 q 518 456 531 456 q 494 474 499 456 q 489 511 489 492 l 489 535 q 490 562 489 547 q 490 589 490 576 q 465 577 478 582 q 439 565 451 572 z "},"I":{"ha":528,"x_min":-28,"x_max":657,"o":"m 657 1165 q 646 1127 657 1143 q 619 1101 635 1111 q 583 1086 603 1090 q 547 1082 564 1082 q 465 1096 506 1082 q 444 987 450 1044 q 438 875 438 929 q 439 636 438 756 q 440 396 440 517 q 428 245 440 319 q 385 112 415 171 q 304 16 356 53 q 174 -21 253 -21 q 130 -15 153 -21 q 87 5 107 -8 q 53 38 67 18 q 40 86 40 57 q 65 151 40 124 q 124 178 90 178 q 144 169 136 178 q 153 146 153 160 q 144 122 153 128 q 126 113 136 115 q 107 105 115 110 q 99 86 99 100 q 107 64 99 72 q 128 51 115 56 q 153 44 140 46 q 174 43 165 43 q 280 76 239 43 q 344 160 321 108 q 375 274 367 211 q 383 396 383 336 q 382 636 383 517 q 381 875 381 756 q 386 998 381 936 q 410 1117 392 1060 q 372 1136 394 1124 q 326 1160 350 1149 q 281 1180 303 1172 q 243 1188 258 1188 q 172 1176 210 1188 q 103 1144 135 1165 q 50 1089 71 1122 q 29 1011 29 1056 q 36 968 29 990 q 56 927 43 946 q 85 897 68 908 q 124 886 103 886 q 183 908 156 886 q 211 971 211 931 q 219 994 211 985 q 239 1003 228 1003 q 259 994 250 1003 q 268 971 268 985 q 256 910 268 938 q 223 864 243 883 q 177 834 203 844 q 124 824 151 824 q 63 840 90 824 q 15 881 35 856 q -17 941 -6 907 q -28 1011 -28 975 q -2 1116 -28 1071 q 63 1191 24 1161 q 151 1236 103 1221 q 243 1251 199 1251 q 289 1243 264 1251 q 340 1223 314 1235 q 390 1198 365 1211 q 435 1175 414 1185 q 483 1229 454 1210 q 547 1249 511 1249 q 583 1244 564 1249 q 618 1230 601 1240 q 646 1203 635 1219 q 657 1165 657 1188 m 599 1165 q 592 1177 599 1174 q 577 1183 586 1181 q 560 1185 568 1185 q 547 1186 551 1186 q 517 1176 531 1186 q 492 1153 503 1167 q 547 1144 522 1144 q 560 1145 551 1144 q 577 1148 568 1146 q 592 1154 586 1150 q 599 1165 599 1158 z "},"J":{"ha":658,"x_min":-28,"x_max":689,"o":"m 689 244 q 686 236 689 242 q 646 156 671 193 q 590 87 621 119 q 524 26 558 54 q 454 -29 489 -1 q 457 -95 456 -62 q 458 -161 458 -128 l 458 -444 q 447 -570 458 -501 q 413 -698 436 -639 q 353 -797 389 -757 q 268 -836 318 -836 q 184 -800 221 -836 q 124 -708 147 -764 q 88 -585 100 -651 q 75 -460 75 -518 q 106 -288 75 -361 q 183 -160 136 -215 q 285 -62 229 -104 q 394 18 342 -21 q 381 872 381 446 q 386 995 381 932 q 410 1115 392 1058 q 372 1134 394 1122 q 326 1158 350 1146 q 281 1178 303 1169 q 243 1188 258 1188 q 172 1176 210 1188 q 103 1143 135 1165 q 50 1088 71 1121 q 29 1010 29 1054 q 35 965 29 988 q 54 925 42 943 q 84 896 67 907 q 124 885 101 885 q 183 907 156 885 q 211 969 211 929 q 219 992 211 983 q 239 1000 228 1000 q 259 992 250 1000 q 268 969 268 983 q 256 908 268 936 q 223 861 243 881 q 177 831 203 842 q 124 821 151 821 q 62 836 90 821 q 14 878 33 851 q -17 940 -6 906 q -28 1010 -28 974 q -3 1114 -28 1069 q 62 1189 22 1158 q 149 1235 101 1219 q 243 1251 197 1251 q 290 1242 265 1251 q 340 1222 315 1233 q 390 1197 365 1210 q 435 1174 414 1183 q 483 1228 454 1208 q 547 1249 511 1249 q 583 1244 564 1249 q 619 1231 603 1240 q 646 1205 635 1221 q 657 1165 657 1189 q 646 1126 657 1143 q 619 1099 635 1110 q 583 1084 603 1089 q 547 1079 564 1079 q 506 1083 526 1079 q 465 1096 485 1088 q 444 985 450 1044 q 438 872 438 926 q 441 462 438 665 q 453 50 444 258 q 540 124 497 82 q 611 215 583 165 q 623 238 618 226 q 635 260 628 249 q 658 278 644 278 q 679 267 669 278 q 689 244 689 257 m 599 1165 q 592 1177 599 1174 q 577 1183 586 1181 q 560 1185 568 1185 q 547 1186 551 1186 q 517 1176 531 1186 q 492 1153 503 1167 q 547 1144 522 1144 q 560 1145 551 1144 q 577 1148 568 1146 q 592 1154 586 1150 q 599 1165 599 1158 m 400 -161 q 398 -118 400 -140 q 396 -72 396 -96 q 308 -138 354 -103 q 222 -218 261 -174 q 158 -323 183 -262 q 133 -460 133 -383 q 135 -523 133 -493 q 144 -582 138 -553 q 161 -640 150 -610 q 189 -697 172 -671 q 226 -740 206 -724 q 268 -757 246 -757 q 328 -723 303 -757 q 369 -641 354 -689 q 392 -539 385 -593 q 400 -444 400 -485 l 400 -161 z "},"K":{"ha":1029,"x_min":-29,"x_max":1100,"o":"m 1100 260 q 1082 152 1100 203 q 1033 63 1064 101 q 958 2 1001 25 q 865 -21 915 -21 q 786 1 821 -21 q 727 59 751 24 q 690 140 703 94 q 676 231 676 185 q 677 367 676 299 q 678 503 678 435 q 672 558 678 532 q 651 607 667 585 q 600 572 628 583 q 540 561 572 561 q 509 567 526 561 q 476 585 492 574 q 449 611 460 596 q 439 646 439 626 q 450 678 439 664 q 476 703 461 693 q 509 717 492 713 q 540 721 526 721 q 593 715 567 721 q 643 696 619 710 q 676 805 667 743 q 685 922 685 867 q 701 1043 685 985 q 749 1147 718 1101 q 826 1222 781 1193 q 929 1250 871 1250 q 988 1235 963 1250 q 1031 1196 1014 1221 q 1056 1138 1047 1171 q 1064 1071 1064 1106 q 1056 1047 1064 1057 q 1035 1038 1047 1038 q 1015 1047 1022 1038 q 1007 1071 1007 1057 q 1003 1113 1007 1092 q 990 1150 999 1133 q 966 1177 981 1167 q 929 1188 951 1188 q 848 1163 883 1188 q 790 1101 813 1139 q 755 1017 767 1064 q 743 922 743 969 q 731 785 743 856 q 689 658 719 714 q 716 613 707 636 q 729 565 725 590 q 733 514 733 540 q 733 460 733 489 l 733 231 q 742 165 733 199 q 768 104 751 132 q 809 59 785 76 q 865 42 833 42 q 937 60 904 42 q 993 108 969 79 q 1030 177 1017 138 q 1043 260 1043 217 q 1026 315 1043 289 q 981 340 1008 340 q 953 329 960 340 q 944 305 947 318 q 937 281 942 292 q 915 271 932 271 q 894 279 903 271 q 886 301 886 288 q 915 374 886 346 q 981 403 943 403 q 1028 391 1007 403 q 1066 360 1050 379 q 1091 314 1082 340 q 1100 260 1100 288 m 656 1165 q 645 1127 656 1143 q 618 1101 635 1111 q 583 1085 601 1090 q 547 1081 564 1081 q 463 1094 504 1081 q 442 986 447 1044 q 438 875 438 928 q 438 635 438 754 q 439 396 439 515 q 427 247 439 321 q 385 113 415 172 q 304 16 356 53 q 174 -21 253 -21 q 130 -15 153 -21 q 87 4 107 -8 q 53 37 67 17 q 40 85 40 57 q 65 154 40 124 q 124 185 89 185 q 144 175 136 185 q 153 151 153 165 q 144 128 153 133 q 126 120 136 124 q 106 110 115 117 q 97 85 97 104 q 107 65 97 74 q 129 52 117 57 q 154 44 142 47 q 174 42 167 42 q 279 74 239 42 q 342 158 319 107 q 374 272 365 210 q 382 396 382 335 q 381 635 382 515 q 381 875 381 754 q 388 997 381 933 q 413 1115 394 1060 q 374 1135 397 1124 q 327 1158 351 1146 q 281 1177 303 1169 q 243 1185 258 1185 q 174 1175 211 1185 q 104 1144 136 1165 q 51 1089 72 1122 q 29 1011 29 1056 q 35 967 29 989 q 54 926 42 944 q 84 897 67 908 q 124 886 101 886 q 183 908 156 886 q 210 969 210 931 q 218 993 210 985 q 239 1001 226 1001 q 267 969 267 1001 q 255 910 267 936 q 223 863 243 883 q 177 833 203 843 q 124 822 151 822 q 63 838 90 822 q 14 881 35 854 q -18 941 -7 907 q -29 1011 -29 975 q -3 1115 -29 1069 q 62 1190 22 1160 q 150 1235 101 1221 q 243 1250 199 1250 q 290 1242 265 1250 q 341 1222 315 1233 q 391 1196 367 1210 q 436 1172 415 1182 q 483 1228 456 1207 q 547 1250 511 1250 q 583 1245 564 1250 q 618 1231 601 1240 q 645 1204 635 1221 q 656 1165 656 1188 m 599 1165 q 592 1175 599 1171 q 576 1181 585 1179 q 558 1184 567 1183 q 547 1185 550 1185 q 489 1153 514 1185 q 547 1144 521 1144 q 558 1145 550 1144 q 576 1148 567 1146 q 592 1154 585 1150 q 599 1165 599 1158 m 603 646 q 540 658 572 658 q 518 657 535 658 q 501 647 501 656 q 517 631 501 638 q 540 625 533 625 q 603 646 576 625 z "},"L":{"ha":753,"x_min":-28,"x_max":782,"o":"m 782 196 q 775 176 782 188 q 724 106 751 140 q 663 43 696 71 q 592 -2 629 15 q 513 -19 554 -19 q 392 -7 450 -19 q 278 38 335 6 q 201 -7 243 6 q 117 -19 160 -19 q 75 -14 100 -19 q 27 3 50 -8 q -12 33 4 15 q -28 76 -28 51 q -13 124 -28 106 q 22 152 1 142 q 67 167 43 163 q 110 172 92 172 q 191 156 156 172 q 267 115 226 139 q 303 185 290 146 q 324 268 317 225 q 334 355 332 311 q 336 436 336 399 q 332 549 336 493 q 324 663 328 606 q 258 658 290 658 q 158 682 203 658 q 80 747 113 706 q 30 842 47 788 q 13 958 13 897 q 38 1079 13 1025 q 106 1172 64 1133 q 200 1231 147 1210 q 307 1251 253 1251 q 327 1242 318 1251 q 336 1219 336 1233 q 327 1197 336 1206 q 307 1188 318 1188 q 222 1172 264 1188 q 145 1126 179 1157 q 90 1053 111 1096 q 69 958 69 1011 q 83 868 69 911 q 120 792 96 825 q 180 740 144 758 q 258 721 215 721 q 290 722 274 721 q 321 728 306 724 q 315 845 318 788 q 313 964 313 903 q 331 1081 313 1028 q 381 1172 349 1135 q 460 1229 414 1208 q 564 1250 507 1250 q 621 1237 596 1250 q 663 1200 646 1224 q 690 1146 681 1176 q 700 1082 700 1115 q 674 936 700 1003 q 603 818 647 869 q 501 731 560 767 q 381 676 443 696 q 389 556 385 617 q 393 436 393 496 q 390 345 393 392 q 380 253 388 299 q 358 164 372 207 q 319 85 343 121 q 414 53 365 63 q 513 43 463 43 q 602 72 563 43 q 671 135 642 100 q 720 198 700 169 q 753 226 740 226 q 773 217 764 226 q 782 196 782 208 m 643 1082 q 623 1155 643 1124 q 564 1186 603 1186 q 421 1127 472 1186 q 369 964 369 1068 q 372 852 369 908 q 376 740 374 796 q 477 788 429 757 q 562 861 525 818 q 621 960 599 904 q 643 1082 643 1015 m 219 71 q 166 97 192 86 q 110 107 140 107 q 89 107 103 107 q 64 104 76 107 q 41 96 51 101 q 29 79 31 90 q 69 52 40 61 q 117 43 99 43 q 169 49 143 43 q 219 71 196 56 z "},"M":{"ha":1293,"x_min":-28,"x_max":1249,"o":"m 1249 260 q 1231 152 1249 203 q 1181 64 1213 101 q 1105 3 1149 26 q 1011 -19 1061 -19 q 891 27 935 -19 q 826 142 847 74 q 799 290 804 211 q 794 435 794 369 q 808 699 794 569 q 821 964 821 829 q 824 1034 821 1000 q 828 1104 828 1068 q 827 1130 828 1115 q 823 1157 826 1144 q 812 1178 819 1169 q 792 1186 804 1186 q 780 1175 785 1186 q 772 1150 775 1164 q 767 1122 768 1136 q 765 1101 765 1107 q 733 649 746 875 q 707 196 719 422 q 705 133 706 169 q 697 61 704 96 q 673 1 689 26 q 624 -24 657 -24 q 577 -2 593 -24 q 555 49 561 19 q 549 113 549 79 q 549 172 549 147 q 548 183 549 178 q 547 196 547 189 q 529 512 536 354 q 514 828 522 669 q 506 963 511 896 q 497 1097 500 1029 q 497 1117 497 1103 q 496 1147 497 1131 q 492 1174 494 1163 q 483 1186 489 1186 q 464 1169 471 1186 q 453 1131 457 1153 q 447 1088 449 1108 q 446 1057 446 1067 q 419 682 435 868 q 381 310 404 496 q 352 181 372 242 q 298 76 332 121 q 215 6 264 32 q 100 -19 167 -19 q 56 -14 79 -19 q 15 4 33 -8 q -16 37 -4 17 q -28 86 -28 57 q -2 153 -28 128 q 58 178 24 178 q 79 169 71 178 q 88 146 88 161 q 78 122 88 128 q 58 113 69 117 q 38 105 47 110 q 29 85 29 100 q 37 63 29 71 q 56 50 44 54 q 79 44 67 46 q 100 43 92 43 q 194 65 156 43 q 260 126 233 88 q 303 214 288 164 q 325 319 318 264 q 363 690 349 506 q 390 1061 378 875 q 395 1121 392 1089 q 408 1181 399 1153 q 435 1230 417 1210 q 483 1250 453 1250 q 524 1235 510 1250 q 544 1198 538 1219 q 551 1151 550 1176 q 553 1104 551 1126 q 576 652 565 878 q 603 200 588 426 q 604 174 604 186 q 604 146 604 161 q 604 122 604 140 q 606 87 604 106 q 612 54 608 68 q 624 40 615 40 q 640 62 635 40 q 647 111 644 83 q 651 165 650 139 q 651 200 651 190 q 676 654 663 428 q 710 1107 689 881 q 716 1153 713 1128 q 728 1200 719 1179 q 753 1235 738 1221 q 792 1250 768 1250 q 839 1235 821 1250 q 867 1198 857 1221 q 881 1147 878 1175 q 885 1093 885 1119 q 881 1028 885 1060 q 878 964 878 996 q 864 694 878 828 q 850 424 850 560 q 853 310 850 376 q 871 185 856 244 q 919 84 886 125 q 1011 43 951 43 q 1083 61 1050 43 q 1140 109 1115 79 q 1178 178 1164 139 q 1192 260 1192 218 q 1174 317 1192 290 q 1128 343 1156 343 q 1102 332 1108 343 q 1092 308 1096 321 q 1084 284 1089 294 q 1063 274 1079 274 q 1043 282 1051 274 q 1035 304 1035 290 q 1063 377 1035 349 q 1128 406 1090 406 q 1176 394 1154 406 q 1215 362 1199 382 q 1240 315 1231 342 q 1249 260 1249 289 z "},"N":{"ha":871,"x_min":-28,"x_max":1076,"o":"m 1076 1006 q 1063 946 1076 972 q 1028 902 1050 919 q 981 876 1007 885 q 929 867 956 867 q 898 871 914 867 q 869 885 882 875 q 847 909 856 894 q 839 943 839 924 q 847 967 839 958 q 865 975 856 975 q 884 968 881 975 q 891 953 888 961 q 901 938 894 946 q 929 931 908 931 q 958 935 943 931 q 988 949 974 940 q 1010 972 1001 958 q 1019 1006 1019 986 q 1008 1074 1019 1042 q 976 1131 996 1107 q 929 1171 957 1156 q 869 1186 901 1186 q 803 1165 828 1186 q 767 1110 779 1143 q 751 1038 754 1078 q 747 960 747 997 q 749 576 747 767 q 750 192 750 385 q 747 126 750 163 q 733 56 743 89 q 703 -1 724 22 q 649 -24 683 -24 q 600 0 619 -24 q 569 58 581 24 q 553 131 558 93 q 544 193 549 168 q 485 644 514 419 q 428 1097 456 869 q 426 1117 428 1101 q 422 1147 425 1132 q 414 1174 418 1163 q 403 1186 410 1186 q 388 1169 393 1186 q 380 1131 382 1153 q 378 1090 378 1110 q 379 1060 379 1069 q 376 685 379 872 q 361 310 374 497 q 340 182 357 242 q 294 77 324 122 q 217 6 264 32 q 104 -21 171 -21 q 61 -15 83 -21 q 19 5 39 -8 q -15 38 -1 18 q -28 86 -28 57 q -3 151 -28 124 q 56 178 22 178 q 75 169 67 178 q 83 146 83 160 q 75 122 83 128 q 57 113 67 115 q 38 105 47 110 q 29 86 29 100 q 38 64 29 72 q 58 51 47 56 q 83 44 69 46 q 104 43 96 43 q 195 65 158 43 q 256 124 232 88 q 290 211 279 161 q 306 315 301 261 q 320 696 318 507 q 322 1076 322 885 q 324 1131 322 1100 q 335 1187 326 1161 q 359 1231 343 1213 q 403 1249 375 1249 q 442 1235 428 1249 q 465 1200 457 1221 q 477 1155 474 1179 q 483 1108 481 1131 q 542 656 514 881 q 600 203 571 431 q 605 165 601 192 q 614 110 608 138 q 628 61 619 82 q 649 40 636 40 q 674 55 665 40 q 688 90 683 69 q 694 133 693 111 q 694 168 694 156 q 693 559 694 365 q 692 950 692 753 q 697 1058 692 1006 q 722 1154 703 1111 q 776 1223 740 1197 q 869 1249 811 1249 q 951 1229 914 1249 q 1016 1176 988 1210 q 1060 1099 1044 1143 q 1076 1006 1076 1054 z "},"O":{"ha":915,"x_min":-28,"x_max":868,"o":"m 868 628 q 840 399 868 514 q 755 190 811 283 q 615 37 699 96 q 421 -22 531 -22 q 222 33 306 -22 q 82 178 138 88 q -1 382 26 268 q -28 615 -28 496 q -15 791 -28 706 q 28 953 -1 876 q 107 1094 58 1029 q 225 1204 156 1158 q 240 1210 231 1210 q 260 1198 251 1210 q 268 1174 268 1186 q 253 1149 268 1158 q 214 1117 233 1132 q 176 1083 194 1101 q 107 985 135 1040 q 62 868 79 929 q 37 742 44 807 q 29 615 29 676 q 52 408 29 510 q 123 225 75 306 q 244 94 171 144 q 421 43 318 43 q 592 98 518 43 q 713 238 665 153 q 785 426 761 322 q 810 628 810 529 q 801 744 810 681 q 773 869 792 807 q 726 989 754 931 q 660 1092 697 1047 q 577 1163 624 1136 q 475 1190 531 1190 q 383 1167 422 1190 q 315 1107 343 1144 q 274 1019 288 1069 q 260 911 260 968 q 275 860 260 883 q 315 836 290 836 q 342 849 332 836 q 360 880 353 861 q 369 919 367 899 q 372 953 372 939 q 381 976 372 968 q 400 985 389 985 q 420 976 411 985 q 429 953 429 968 q 422 892 429 924 q 401 834 415 861 q 366 789 388 807 q 315 771 344 771 q 270 783 290 771 q 235 815 250 796 q 211 858 219 833 q 203 911 203 883 q 222 1043 203 981 q 276 1153 240 1106 q 361 1228 311 1201 q 475 1256 411 1256 q 644 1194 571 1256 q 768 1038 718 1132 q 843 833 818 943 q 868 628 868 722 z "},"P":{"ha":543,"x_min":-28,"x_max":822,"o":"m 822 915 q 808 806 822 860 q 767 710 794 753 q 699 640 739 667 q 604 614 658 614 q 565 621 585 614 q 530 642 546 628 q 503 676 514 656 q 493 719 493 696 q 501 742 493 733 q 521 751 510 751 q 537 747 532 751 q 544 738 542 743 q 547 724 546 732 q 551 708 547 717 q 574 685 558 693 q 604 678 589 678 q 676 699 646 678 q 726 756 706 721 q 756 833 746 790 q 765 915 765 875 q 729 1049 765 996 q 639 1131 693 1101 q 521 1172 585 1160 q 400 1183 457 1183 q 327 1177 364 1183 q 254 1158 290 1171 q 177 1123 217 1146 q 104 1067 138 1100 q 50 992 71 1035 q 29 900 29 950 q 53 810 29 849 q 125 772 76 772 q 168 791 149 772 q 202 838 188 810 q 225 895 217 865 q 233 947 233 925 q 242 970 233 961 q 261 979 250 979 q 281 970 272 979 q 290 947 290 961 q 278 868 290 911 q 244 790 267 825 q 192 731 222 754 q 125 707 161 707 q 60 723 89 707 q 13 765 32 739 q -17 825 -7 790 q -28 900 -28 860 q -8 1006 -28 958 q 44 1092 11 1054 q 122 1160 78 1131 q 213 1209 165 1190 q 308 1238 260 1228 q 400 1247 357 1247 q 544 1232 469 1247 q 680 1178 618 1217 q 782 1076 742 1140 q 822 915 822 1013 m 493 1131 q 484 1108 493 1117 q 464 1100 475 1100 q 442 1074 451 1100 q 428 1007 433 1047 q 419 918 422 967 q 414 824 415 869 q 413 743 413 779 q 413 690 413 707 q 414 571 413 631 q 415 450 415 511 q 405 284 415 368 q 365 133 394 200 q 280 23 335 65 q 135 -19 225 -19 q 91 -13 114 -19 q 48 6 68 -7 q 15 38 28 18 q 3 86 3 57 q 27 151 3 124 q 85 178 51 178 q 106 169 97 178 q 114 146 114 161 q 106 123 114 129 q 87 113 97 117 q 68 105 76 110 q 60 86 60 100 q 68 65 60 74 q 89 51 76 56 q 114 44 101 46 q 135 43 126 43 q 254 82 210 43 q 322 181 299 121 q 351 312 344 240 q 358 450 358 383 q 356 599 358 526 q 354 749 354 672 q 355 808 354 769 q 358 893 356 847 q 368 987 361 939 q 388 1074 375 1035 q 419 1138 400 1114 q 464 1163 438 1163 q 484 1154 475 1163 q 493 1131 493 1146 z "},"R":{"ha":1225,"x_min":-28,"x_max":1181,"o":"m 1181 260 q 1163 152 1181 203 q 1113 64 1144 101 q 1038 3 1082 26 q 944 -19 994 -19 q 866 3 901 -19 q 807 60 831 25 q 770 141 783 96 q 757 232 757 186 l 757 461 q 746 536 757 500 q 711 599 735 572 q 649 570 683 582 q 582 558 614 558 q 549 565 568 558 q 514 585 531 572 q 485 613 497 597 q 474 649 474 629 q 485 683 474 667 q 513 710 496 699 q 548 727 529 721 q 581 733 567 733 q 651 720 617 733 q 714 685 685 707 q 750 728 735 701 q 774 785 765 754 q 788 849 783 817 q 793 910 793 881 q 776 999 793 958 q 731 1073 760 1040 q 667 1128 703 1106 q 592 1165 631 1151 q 517 1185 556 1179 q 439 1192 478 1192 q 303 1170 375 1192 q 169 1106 231 1149 q 69 999 108 1063 q 29 847 29 935 q 41 799 29 822 q 70 759 53 776 q 110 731 88 742 q 153 719 132 719 q 197 735 178 719 q 229 772 217 750 q 249 821 242 794 q 256 874 256 847 q 264 896 256 888 q 283 904 272 904 q 303 896 294 904 q 313 874 313 888 q 301 796 313 835 q 270 726 290 757 q 220 676 250 696 q 153 656 190 656 q 88 672 121 656 q 30 714 56 688 q -12 775 4 740 q -28 847 -28 810 q 16 1025 -28 949 q 128 1153 60 1101 q 280 1229 197 1204 q 439 1254 363 1254 q 579 1235 507 1254 q 712 1173 651 1215 q 811 1065 772 1131 q 850 910 850 1000 q 826 763 850 835 q 753 642 803 690 q 799 558 785 606 q 814 461 814 511 l 814 232 q 822 167 814 200 q 847 106 831 133 q 888 60 864 78 q 944 43 913 43 q 1016 61 983 43 q 1073 109 1049 79 q 1110 178 1097 139 q 1124 260 1124 218 q 1106 316 1124 290 q 1060 342 1088 342 q 1034 331 1040 342 q 1024 306 1028 319 q 1016 282 1021 293 q 994 271 1011 271 q 975 280 983 271 q 967 303 967 289 q 994 376 967 347 q 1060 404 1022 404 q 1107 392 1085 404 q 1146 361 1129 381 q 1172 315 1163 342 q 1181 260 1181 289 m 519 1131 q 510 1108 519 1117 q 490 1100 501 1100 q 468 1072 478 1100 q 453 1001 458 1044 q 444 905 447 957 q 439 803 440 853 q 438 715 438 754 q 438 660 438 676 q 439 556 438 608 q 440 453 440 504 q 430 286 440 371 q 389 133 419 201 q 303 23 358 65 q 158 -19 249 -19 q 115 -13 138 -19 q 72 6 92 -7 q 38 38 51 18 q 25 86 25 57 q 50 151 25 124 q 108 178 75 178 q 129 169 121 178 q 138 146 138 161 q 129 123 138 129 q 110 113 121 117 q 91 105 100 110 q 82 86 82 100 q 91 65 82 74 q 112 51 100 56 q 137 44 124 46 q 158 43 150 43 q 278 82 233 43 q 345 182 322 121 q 375 315 368 243 q 382 453 382 388 q 380 587 382 519 q 378 721 378 654 q 378 784 378 743 q 383 874 379 825 q 392 974 386 924 q 411 1067 399 1025 q 443 1135 424 1108 q 490 1163 463 1163 q 510 1154 501 1163 q 519 1131 519 1146 m 669 644 q 583 672 626 672 q 572 671 579 672 q 556 665 564 669 q 542 656 549 661 q 536 647 536 651 q 543 637 536 642 q 560 629 550 632 q 578 624 569 626 q 590 622 586 622 q 631 629 608 622 q 669 644 654 636 z "},"S":{"ha":540,"x_min":-28,"x_max":743,"o":"m 743 1082 q 713 928 743 997 q 633 807 683 860 q 520 719 583 754 q 390 668 457 683 q 394 560 392 614 q 397 453 397 507 q 385 285 397 369 q 341 133 374 200 q 252 22 308 65 q 106 -21 196 -21 q 62 -15 85 -21 q 19 5 39 -8 q -15 38 -1 18 q -28 86 -28 57 q -3 151 -28 124 q 56 178 22 178 q 76 169 68 178 q 85 146 85 160 q 76 122 85 128 q 58 113 68 115 q 38 105 47 110 q 29 86 29 100 q 38 64 29 72 q 59 51 47 56 q 84 44 71 46 q 106 43 97 43 q 227 82 181 43 q 299 180 274 121 q 332 312 324 239 q 340 453 340 385 q 338 557 340 506 q 332 658 335 608 q 311 657 321 657 q 292 657 303 657 q 191 681 236 657 q 113 746 146 704 q 63 842 81 788 q 46 958 46 896 q 72 1078 46 1025 q 139 1171 97 1132 q 233 1231 181 1210 q 340 1251 286 1251 q 360 1242 351 1251 q 369 1219 369 1233 q 360 1197 369 1206 q 340 1188 351 1188 q 255 1172 297 1188 q 178 1126 213 1156 q 124 1053 144 1096 q 103 958 103 1010 q 116 868 103 911 q 153 792 129 825 q 213 740 178 758 q 292 721 249 721 q 311 721 301 721 q 331 722 321 721 q 333 833 331 774 q 346 952 336 893 q 374 1065 356 1011 q 422 1161 392 1119 q 495 1228 451 1203 q 600 1253 539 1253 q 656 1238 629 1253 q 701 1200 682 1224 q 732 1146 721 1176 q 743 1082 743 1115 m 685 1082 q 678 1119 685 1100 q 660 1154 672 1139 q 633 1179 649 1169 q 600 1189 618 1189 q 515 1167 550 1189 q 456 1108 479 1144 q 419 1023 433 1071 q 399 924 406 975 q 391 824 393 874 q 389 733 389 774 q 497 777 444 747 q 592 851 550 807 q 659 953 633 896 q 685 1082 685 1011 z "},"T":{"ha":749,"x_min":-117,"x_max":704,"o":"m 704 260 q 685 152 704 203 q 632 63 665 101 q 554 1 599 24 q 460 -21 510 -21 q 294 17 365 -21 q 176 122 224 56 q 103 276 128 188 q 79 467 79 365 q 91 644 79 551 q 128 824 103 736 q 193 992 154 913 q 286 1132 232 1071 q 265 1150 278 1139 q 238 1171 253 1161 q 206 1188 224 1181 q 169 1194 189 1194 q 93 1178 133 1194 q 19 1136 53 1163 q -36 1078 -14 1110 q -58 1014 -58 1046 q -50 978 -58 996 q -21 958 -42 961 q 13 972 3 958 q 31 1001 24 985 q 45 1031 38 1018 q 72 1044 53 1044 q 92 1037 86 1044 q 97 1019 97 1029 q 82 978 93 999 q 54 943 71 958 q 17 918 38 928 q -29 908 -4 908 q -96 941 -75 911 q -117 1008 -117 971 q -90 1095 -117 1053 q -23 1171 -64 1138 q 69 1224 18 1204 q 171 1244 121 1244 q 222 1240 200 1244 q 263 1226 244 1235 q 297 1204 281 1217 q 331 1176 313 1192 q 419 1230 371 1211 q 518 1249 467 1249 q 564 1240 540 1249 q 607 1217 588 1232 q 639 1179 626 1201 q 651 1129 651 1157 q 641 1081 651 1101 q 613 1045 631 1060 q 574 1023 596 1031 q 532 1015 553 1015 q 426 1037 474 1015 q 333 1094 379 1058 q 243 964 281 1039 q 182 805 206 889 q 147 633 158 721 q 136 467 136 546 q 156 303 136 381 q 215 169 175 226 q 317 77 256 111 q 460 43 378 43 q 533 60 499 43 q 592 108 567 78 q 633 176 618 138 q 647 260 647 215 q 630 316 647 290 q 585 342 613 342 q 546 332 556 342 q 533 310 536 322 q 526 289 529 299 q 504 279 522 279 q 485 288 493 279 q 476 313 476 297 q 487 353 476 336 q 513 383 497 371 q 548 400 529 394 q 585 406 567 406 q 633 393 611 406 q 670 360 654 381 q 695 314 686 340 q 704 260 704 288 m 594 1129 q 586 1153 594 1143 q 566 1171 578 1164 q 541 1182 554 1178 q 518 1186 528 1186 q 379 1138 444 1186 q 452 1094 415 1110 q 532 1078 489 1078 q 573 1091 551 1078 q 594 1129 594 1104 z "},"U":{"ha":1290,"x_min":-28,"x_max":1246,"o":"m 1246 260 q 1228 152 1246 203 q 1178 64 1210 101 q 1103 3 1147 26 q 1010 -19 1060 -19 q 880 27 938 -19 q 794 150 822 74 q 700 26 760 71 q 561 -19 640 -19 q 449 12 499 -19 q 364 94 399 43 q 310 209 329 144 q 292 338 292 274 l 292 992 q 286 1051 292 1018 q 268 1114 281 1083 q 235 1164 256 1144 q 186 1183 215 1183 q 118 1157 147 1183 q 69 1092 89 1131 q 40 1010 50 1054 q 29 928 29 965 q 33 867 29 903 q 49 799 38 832 q 78 742 60 765 q 126 719 97 719 q 167 735 150 719 q 196 774 185 751 q 213 823 207 797 q 218 871 218 849 q 226 894 218 886 q 246 903 235 903 q 266 894 257 903 q 275 871 275 886 q 265 797 275 835 q 237 727 256 758 q 190 676 218 696 q 126 656 163 656 q 53 683 83 656 q 6 751 24 711 q -20 840 -12 792 q -28 928 -28 889 q -14 1037 -28 981 q 27 1140 0 1093 q 94 1217 54 1186 q 186 1247 135 1247 q 260 1222 229 1247 q 310 1160 290 1197 q 340 1078 331 1124 q 349 992 349 1033 l 349 338 q 363 233 349 286 q 405 139 378 181 q 472 70 432 97 q 561 43 511 43 q 651 67 611 43 q 719 129 690 90 q 762 218 747 168 q 776 321 776 268 l 776 515 l 776 1218 q 785 1241 776 1232 q 804 1250 793 1250 q 824 1241 815 1250 q 833 1218 833 1232 l 833 515 l 833 260 q 847 180 833 219 q 883 110 860 140 q 940 61 907 79 q 1010 43 972 43 q 1081 61 1049 43 q 1138 109 1114 79 q 1176 178 1163 139 q 1189 260 1189 218 q 1171 317 1189 290 q 1125 343 1153 343 q 1099 332 1106 343 q 1089 308 1092 321 q 1081 284 1086 294 q 1060 274 1076 274 q 1040 282 1049 274 q 1032 304 1032 290 q 1060 377 1032 349 q 1125 406 1088 406 q 1174 394 1151 406 q 1212 362 1196 382 q 1237 315 1228 342 q 1246 260 1246 289 z "},"V":{"ha":917,"x_min":-28,"x_max":985,"o":"m 985 1128 q 965 1092 985 1110 q 919 1057 944 1074 q 867 1028 893 1040 q 828 1011 840 1017 q 855 813 849 914 q 861 613 861 713 q 858 488 861 557 q 842 349 854 419 q 810 213 831 279 q 757 94 790 146 q 676 11 724 43 q 561 -21 628 -21 q 449 11 499 -21 q 364 94 399 43 q 310 208 329 144 q 292 338 292 272 l 292 992 q 286 1051 292 1018 q 268 1113 281 1083 q 235 1163 256 1143 q 186 1183 215 1183 q 118 1157 147 1183 q 69 1092 89 1131 q 40 1008 50 1053 q 29 928 29 964 q 34 867 29 903 q 50 799 39 832 q 81 742 61 765 q 129 719 100 719 q 169 735 153 719 q 197 773 186 750 q 214 822 208 796 q 219 871 219 849 q 228 894 219 885 q 249 903 238 903 q 268 894 260 903 q 276 871 276 885 q 267 797 276 835 q 240 726 258 758 q 193 675 221 694 q 129 656 165 656 q 56 683 86 656 q 7 751 25 711 q -19 840 -11 792 q -28 928 -28 889 q -14 1037 -28 981 q 27 1140 0 1093 q 94 1216 54 1186 q 186 1246 135 1246 q 260 1222 229 1246 q 310 1160 290 1197 q 340 1077 331 1122 q 349 992 349 1032 l 349 338 q 363 233 349 285 q 405 139 378 181 q 472 70 432 97 q 561 43 511 43 q 656 73 617 43 q 722 151 696 103 q 765 260 749 200 q 790 385 782 321 q 801 508 799 449 q 804 613 804 568 q 798 808 804 711 q 772 999 792 904 q 748 997 760 997 q 724 996 736 996 q 663 1005 696 996 q 603 1031 631 1014 q 557 1076 575 1049 q 539 1143 539 1104 q 551 1190 539 1169 q 581 1222 563 1210 q 622 1240 600 1235 q 664 1246 643 1246 q 719 1230 696 1246 q 761 1189 743 1214 q 792 1133 779 1164 q 813 1074 804 1101 q 878 1105 851 1086 q 936 1151 904 1124 q 956 1161 947 1161 q 976 1151 967 1161 q 985 1128 985 1140 m 757 1061 q 744 1099 751 1078 q 725 1139 736 1121 q 699 1170 714 1157 q 664 1183 683 1183 q 644 1181 656 1183 q 622 1176 633 1179 q 603 1164 611 1172 q 596 1143 596 1156 q 610 1105 596 1121 q 645 1079 625 1089 q 687 1065 665 1069 q 724 1060 708 1060 q 740 1060 732 1060 q 757 1061 749 1060 z "},"W":{"ha":1413,"x_min":-28,"x_max":1464,"o":"m 1464 1128 q 1444 1092 1464 1110 q 1398 1057 1424 1074 q 1346 1028 1372 1040 q 1307 1011 1319 1017 q 1334 813 1328 914 q 1340 613 1340 713 q 1336 488 1340 557 q 1321 349 1332 419 q 1289 213 1310 279 q 1235 94 1268 146 q 1153 11 1201 43 q 1039 -21 1106 -21 q 894 29 956 -21 q 801 167 833 79 q 706 30 768 81 q 561 -21 644 -21 q 449 11 499 -21 q 364 94 399 43 q 310 208 329 144 q 292 338 292 272 l 292 992 q 286 1051 292 1018 q 268 1113 281 1083 q 235 1163 256 1143 q 186 1183 215 1183 q 118 1157 147 1183 q 69 1092 89 1131 q 40 1008 50 1053 q 29 928 29 964 q 33 869 29 904 q 48 800 38 833 q 77 743 58 767 q 125 719 96 719 q 165 735 149 719 q 193 773 182 750 q 210 822 204 796 q 215 871 215 849 q 224 894 215 885 q 244 903 233 903 q 264 894 256 903 q 272 871 272 885 q 263 797 272 835 q 235 726 254 758 q 189 675 217 694 q 125 656 161 656 q 52 683 82 656 q 5 752 22 711 q -20 841 -12 793 q -28 928 -28 889 q -14 1037 -28 981 q 27 1140 0 1093 q 94 1216 54 1186 q 186 1246 135 1246 q 260 1222 229 1246 q 310 1160 290 1197 q 340 1077 331 1122 q 349 992 349 1032 l 349 338 q 363 233 349 285 q 405 139 378 181 q 472 70 432 97 q 561 43 511 43 q 649 65 611 43 q 715 122 688 86 q 757 205 742 157 q 775 306 772 253 q 777 399 778 353 q 776 494 776 446 l 776 1218 q 785 1240 776 1232 q 804 1249 793 1249 q 824 1240 815 1249 q 833 1218 833 1232 l 833 515 l 833 294 q 849 198 833 244 q 891 117 864 151 q 956 63 918 83 q 1039 43 993 43 q 1134 73 1094 43 q 1201 151 1174 103 q 1244 260 1228 200 q 1269 385 1260 321 q 1281 508 1278 449 q 1283 613 1283 568 q 1276 808 1283 711 q 1250 999 1269 904 q 1226 997 1239 997 q 1203 996 1214 996 q 1142 1005 1175 996 q 1082 1031 1110 1014 q 1036 1076 1054 1049 q 1018 1143 1018 1104 q 1030 1190 1018 1169 q 1060 1222 1042 1210 q 1099 1240 1078 1235 q 1142 1246 1121 1246 q 1197 1230 1174 1246 q 1240 1190 1221 1214 q 1271 1135 1258 1165 q 1292 1074 1283 1104 q 1357 1105 1331 1086 q 1415 1151 1383 1124 q 1435 1161 1426 1161 q 1455 1151 1446 1161 q 1464 1128 1464 1140 m 1235 1061 q 1222 1099 1229 1078 q 1203 1139 1214 1121 q 1176 1170 1192 1157 q 1142 1183 1161 1183 q 1122 1181 1133 1183 q 1101 1176 1111 1179 q 1083 1164 1090 1172 q 1075 1143 1075 1156 q 1090 1105 1075 1121 q 1124 1079 1104 1089 q 1166 1065 1144 1069 q 1203 1060 1188 1060 q 1218 1060 1211 1060 q 1235 1061 1226 1060 z "},"X":{"ha":1110,"x_min":-28,"x_max":1089,"o":"m 551 810 q 585 930 565 869 q 633 1048 604 990 q 701 1149 663 1106 q 790 1220 740 1193 q 904 1247 840 1247 q 965 1228 939 1247 q 1006 1179 990 1208 q 1029 1117 1022 1150 q 1036 1054 1036 1083 q 993 906 1036 969 q 885 794 950 842 q 742 714 819 747 q 597 657 665 681 q 594 622 594 639 q 593 588 593 604 q 598 501 593 554 q 614 388 603 449 q 644 267 625 328 q 688 156 663 206 q 747 76 713 107 q 825 44 782 44 q 906 63 869 44 q 969 110 943 81 q 1010 179 996 140 q 1024 261 1024 218 q 1004 317 1024 290 q 953 343 985 343 q 920 332 928 343 q 909 308 913 321 q 900 285 906 296 q 875 274 894 274 q 853 282 863 274 q 844 306 844 290 q 878 378 844 350 q 953 407 911 407 q 1007 394 982 407 q 1050 362 1032 382 q 1078 315 1068 342 q 1089 261 1089 289 q 1070 155 1089 206 q 1016 65 1051 104 q 932 3 981 26 q 825 -19 883 -19 q 722 14 767 -19 q 645 100 678 47 q 590 219 613 153 q 554 353 568 286 q 537 477 540 421 q 533 583 533 533 l 533 624 q 514 511 526 572 q 481 370 503 442 q 428 231 460 299 q 356 113 397 164 q 260 29 314 61 q 138 -3 206 -3 q 73 20 101 -3 q 28 77 44 43 q 3 151 11 111 q -4 224 -4 190 q 42 399 -4 324 q 158 529 88 474 q 311 624 228 585 q 468 679 394 664 q 470 709 469 694 q 471 738 471 724 q 466 811 471 767 q 450 907 461 856 q 421 1010 439 958 q 376 1105 403 1063 q 315 1174 350 1147 q 238 1200 281 1200 q 156 1185 193 1200 q 92 1144 118 1169 q 51 1085 65 1118 q 38 1015 38 1053 q 57 968 38 990 q 108 946 76 946 q 141 956 133 946 q 152 976 149 965 q 162 996 156 986 q 188 1006 168 1006 q 210 998 200 1006 q 219 978 219 990 q 185 916 219 940 q 108 892 150 892 q 53 902 78 892 q 11 930 29 913 q -17 969 -7 947 q -28 1015 -28 992 q -9 1106 -28 1063 q 45 1183 10 1150 q 130 1235 81 1215 q 238 1254 179 1254 q 341 1226 296 1254 q 419 1153 386 1199 q 474 1051 451 1108 q 510 937 496 994 q 530 827 524 879 q 536 738 536 775 l 536 710 q 551 810 543 746 l 551 810 m 65 224 q 69 182 65 208 q 81 132 74 156 q 102 91 88 108 q 138 74 117 74 q 233 101 190 74 q 310 173 276 128 q 368 275 343 218 q 410 392 393 332 q 440 508 428 451 q 460 610 451 565 q 333 553 400 586 q 206 473 265 519 q 106 365 147 426 q 65 224 65 303 l 65 224 m 971 1054 q 968 1090 971 1068 q 958 1133 965 1113 q 937 1167 950 1153 q 904 1182 924 1182 q 815 1159 856 1182 q 744 1098 775 1136 q 690 1011 713 1060 q 650 912 667 963 q 622 813 633 861 q 604 726 611 764 q 722 774 658 746 q 841 842 786 803 q 933 935 896 882 q 971 1054 971 988 l 971 1054 z "},"Y":{"ha":1025,"x_min":-28,"x_max":1056,"o":"m 1056 246 q 1053 236 1056 242 q 833 -69 985 43 l 833 -256 q 817 -450 833 -349 q 765 -636 801 -551 q 672 -776 729 -721 q 531 -832 614 -832 q 452 -806 488 -832 q 393 -738 417 -779 q 356 -644 369 -697 q 343 -536 343 -590 q 364 -401 343 -461 q 419 -294 385 -342 q 499 -210 454 -247 q 592 -142 543 -172 q 688 -83 640 -111 q 776 -26 736 -56 l 776 106 q 685 6 740 42 q 561 -29 629 -29 q 449 3 499 -29 q 364 86 399 35 q 310 203 329 138 q 292 332 292 268 l 292 988 q 286 1049 292 1015 q 268 1112 281 1082 q 235 1163 256 1142 q 186 1183 215 1183 q 118 1157 147 1183 q 69 1092 89 1131 q 40 1008 50 1053 q 29 926 29 963 q 33 865 29 901 q 49 796 38 829 q 78 739 60 763 q 126 715 97 715 q 167 731 150 715 q 194 770 183 747 q 211 819 206 793 q 217 868 217 846 q 226 892 217 882 q 246 901 235 901 q 265 892 257 901 q 274 868 274 882 q 265 794 274 832 q 237 724 256 756 q 190 672 218 692 q 126 653 163 653 q 53 681 83 653 q 6 750 24 708 q -20 839 -12 792 q -28 926 -28 886 q -14 1035 -28 979 q 27 1138 0 1090 q 94 1215 54 1185 q 186 1246 135 1246 q 260 1221 229 1246 q 310 1158 290 1196 q 340 1074 331 1119 q 349 988 349 1029 l 349 332 q 363 227 349 281 q 405 131 378 174 q 472 62 432 89 q 561 35 511 35 q 651 58 611 35 q 719 122 690 82 q 762 212 747 161 q 776 315 776 263 l 776 510 l 776 1218 q 785 1240 776 1231 q 804 1249 793 1249 q 825 1240 817 1249 q 833 1217 833 1231 l 833 18 q 914 99 881 54 q 974 201 947 144 q 983 222 978 208 q 994 247 988 235 q 1008 269 1000 260 q 1025 278 1015 278 q 1046 268 1036 278 q 1056 246 1056 258 m 776 -111 q 663 -182 728 -144 q 539 -267 597 -219 q 440 -381 481 -315 q 400 -536 400 -446 q 409 -612 400 -574 q 435 -683 418 -651 q 476 -735 451 -715 q 531 -756 500 -756 q 647 -705 600 -756 q 723 -580 694 -654 q 764 -419 751 -506 q 776 -256 776 -332 l 776 -111 z "},"[":{"ha":433,"x_min":200,"x_max":453,"o":"m 453 -100 q 444 -119 453 -111 q 424 -128 435 -128 l 228 -128 q 208 -119 217 -128 q 200 -100 200 -111 l 200 1017 q 208 1036 200 1028 q 228 1044 217 1044 l 424 1044 q 444 1036 435 1044 q 453 1017 453 1028 q 444 997 453 1006 q 424 989 435 989 l 257 989 l 257 -72 l 424 -72 q 444 -81 435 -72 q 453 -100 453 -89 z "},"\\":{"ha":658,"x_min":181,"x_max":486,"o":"m 486 11 q 477 -9 486 0 q 457 -18 468 -18 q 431 3 435 -18 l 182 1040 q 181 1043 182 1042 q 181 1046 181 1044 q 189 1067 181 1058 q 210 1075 197 1075 q 236 1054 232 1075 l 485 17 q 485 14 485 15 q 486 11 486 13 z "},"]":{"ha":433,"x_min":-18,"x_max":235,"o":"m 235 -100 q 226 -119 235 -111 q 206 -128 217 -128 l 10 -128 q -10 -119 -1 -128 q -18 -100 -18 -111 q -10 -81 -18 -89 q 10 -72 -1 -72 l 178 -72 l 178 989 l 10 989 q -10 997 -1 989 q -18 1017 -18 1006 q -10 1036 -18 1028 q 10 1044 -1 1044 l 206 1044 q 226 1036 217 1044 q 235 1017 235 1028 l 235 -100 z "},"^":{"ha":540,"x_min":207,"x_max":514,"o":"m 514 651 q 505 633 514 640 q 485 626 496 626 q 456 644 475 626 q 416 684 436 663 q 381 724 396 706 q 361 744 365 743 q 338 717 356 736 q 300 677 321 697 q 260 642 279 657 q 235 626 242 626 q 215 633 224 626 q 207 651 207 640 q 224 679 207 664 q 249 701 240 694 q 280 732 265 717 q 308 764 294 747 q 331 791 317 775 q 361 807 346 807 q 379 800 369 807 q 410 767 397 785 q 439 732 424 749 q 472 700 454 715 q 506 667 490 685 q 514 651 514 658 z "},"_":{"ha":822,"x_min":15,"x_max":788,"o":"m 788 -51 q 778 -71 788 -62 q 758 -79 769 -79 l 43 -79 q 24 -71 32 -79 q 15 -51 15 -62 q 23 -31 15 -40 q 43 -21 31 -21 l 758 -21 q 779 -31 771 -21 q 788 -51 788 -40 z "},"`":{"ha":540,"x_min":213,"x_max":428,"o":"m 428 649 q 419 630 428 638 q 399 622 410 622 q 357 642 388 622 q 294 689 326 663 q 238 741 263 715 q 213 778 213 767 q 221 796 213 789 q 240 803 229 803 q 263 793 250 803 q 315 743 290 767 q 371 699 339 719 q 394 685 382 692 q 417 669 406 678 q 428 649 428 661 z "},"a":{"ha":661,"x_min":-28,"x_max":690,"o":"m 690 215 q 688 208 690 213 q 685 200 686 203 q 666 163 675 182 q 642 121 657 144 q 606 71 625 96 q 565 26 586 46 q 521 -6 543 6 q 476 -18 499 -18 q 410 5 435 -18 q 378 68 386 28 q 299 5 346 28 q 200 -18 253 -18 q 111 1 153 -18 q 38 51 69 19 q -10 124 7 82 q -28 214 -28 167 q -10 303 -28 261 q 38 378 7 346 q 111 428 69 410 q 200 447 153 447 q 296 426 250 447 q 374 367 342 404 q 372 390 374 376 q 373 415 371 403 q 381 435 375 426 q 401 443 388 443 q 422 435 413 443 q 431 417 431 428 l 431 135 q 431 104 431 122 q 435 72 431 88 q 449 47 439 57 q 476 36 458 36 q 520 56 497 36 q 563 103 543 76 q 599 160 583 131 q 624 206 615 189 q 637 229 629 217 q 660 242 644 242 q 681 234 671 242 q 690 215 690 226 m 374 214 q 360 282 374 250 q 324 339 347 314 q 268 378 300 364 q 200 393 236 393 q 133 378 164 393 q 78 339 101 364 q 42 282 56 314 q 29 214 29 250 q 42 147 29 179 q 78 90 56 114 q 133 51 101 65 q 200 36 164 36 q 268 51 236 36 q 324 90 300 65 q 360 146 347 114 q 374 214 374 178 z "},"b":{"ha":481,"x_min":-43,"x_max":508,"o":"m 508 222 q 507 214 508 218 q 504 207 506 210 q 442 140 486 161 q 350 125 399 119 q 280 24 325 65 q 165 -18 235 -18 q 88 0 121 -18 q 32 48 54 18 q -2 117 10 78 q -18 204 -14 157 q -35 474 -28 339 q -43 747 -43 610 q -40 824 -43 775 q -28 930 -36 874 q -7 1044 -19 986 q 24 1148 6 1101 q 69 1224 43 1194 q 128 1253 94 1253 q 200 1219 169 1253 q 249 1137 231 1186 q 276 1033 267 1088 q 285 938 285 979 q 260 758 285 854 q 197 569 235 663 q 115 385 158 475 q 36 224 72 296 q 47 156 39 190 q 70 96 56 121 q 108 54 85 71 q 165 38 131 38 q 246 70 214 38 q 296 144 278 103 q 238 215 256 169 q 219 304 219 260 q 224 347 219 325 q 240 386 229 368 q 267 415 250 404 q 308 426 283 426 q 345 415 331 426 q 369 387 360 404 q 382 349 378 369 q 386 311 386 329 q 369 181 386 246 q 422 194 401 182 q 450 221 442 206 q 463 242 457 235 q 481 249 468 249 q 500 241 492 249 q 508 222 508 233 m 229 938 q 224 1006 229 964 q 207 1089 219 1049 q 175 1158 194 1129 q 128 1188 156 1188 q 101 1172 113 1188 q 79 1134 89 1156 q 63 1090 69 1113 q 53 1056 57 1068 q 14 747 14 903 q 17 544 14 644 q 28 340 21 443 q 92 475 57 400 q 158 629 128 550 q 208 788 188 708 q 229 938 229 868 m 329 311 q 329 326 329 317 q 327 346 329 336 q 321 363 325 356 q 308 371 317 371 q 291 363 297 371 q 281 345 285 356 q 277 324 278 335 q 276 304 276 313 q 285 249 276 276 q 315 203 294 222 q 329 311 329 254 z "},"c":{"ha":457,"x_min":-28,"x_max":486,"o":"m 486 215 q 483 207 486 213 q 438 122 465 163 q 375 49 411 81 q 295 0 339 18 q 200 -18 251 -18 q 111 1 153 -18 q 38 51 69 19 q -10 124 7 82 q -28 214 -28 167 q -10 303 -28 261 q 38 378 7 346 q 111 428 69 410 q 200 447 153 447 q 233 443 210 447 q 278 431 256 439 q 319 412 301 422 q 336 389 336 401 q 327 370 336 378 q 307 363 318 363 q 267 378 294 363 q 200 393 240 393 q 133 378 164 393 q 78 340 101 364 q 42 283 56 315 q 29 214 29 250 q 42 146 29 178 q 78 90 56 114 q 133 51 101 65 q 200 36 164 36 q 317 73 271 36 q 399 168 364 110 q 415 197 407 183 q 432 226 422 211 q 441 238 436 233 q 456 243 446 243 q 476 235 467 243 q 486 215 486 226 z "},"d":{"ha":664,"x_min":-28,"x_max":692,"o":"m 692 221 q 690 208 692 213 q 669 169 682 192 q 641 123 657 147 q 607 76 625 99 q 569 33 589 53 q 526 -4 546 10 q 476 -18 506 -18 q 412 8 435 -18 q 381 72 389 35 q 301 6 349 31 q 200 -18 253 -18 q 110 1 151 -18 q 38 53 68 21 q -10 129 7 86 q -28 219 -28 172 q -10 309 -28 267 q 38 383 7 351 q 110 433 68 414 q 200 451 151 451 q 296 431 250 451 q 374 372 342 410 l 375 804 q 383 824 375 815 q 403 832 392 832 q 423 824 414 832 q 432 804 432 815 l 429 151 q 430 120 429 139 q 435 83 431 101 q 450 51 440 64 q 476 38 460 38 q 512 49 499 38 q 540 76 525 60 q 592 148 568 108 q 628 210 617 188 q 642 234 635 221 q 664 247 649 247 q 683 240 675 247 q 692 221 692 232 m 374 219 q 360 288 374 256 q 324 344 347 319 q 269 382 300 368 q 200 396 238 396 q 131 381 163 396 q 77 343 100 367 q 42 288 54 319 q 29 219 29 256 q 42 151 29 183 q 77 93 54 118 q 131 53 100 68 q 200 38 163 38 q 269 53 238 38 q 324 93 300 68 q 360 151 347 118 q 374 219 374 183 z "},"e":{"ha":500,"x_min":-28,"x_max":531,"o":"m 531 215 q 528 207 531 213 q 399 42 483 103 q 200 -18 315 -18 q 111 1 153 -18 q 39 51 69 19 q -10 125 8 83 q -28 214 -28 167 q -10 306 -28 264 q 38 380 7 349 q 112 429 69 411 q 204 447 154 447 q 264 438 232 447 q 324 412 296 429 q 369 369 351 394 q 388 313 388 344 q 370 244 388 274 q 325 196 353 215 q 263 166 297 176 q 193 156 228 156 q 109 165 147 156 q 29 194 71 175 q 48 133 33 163 q 85 83 63 104 q 138 49 108 61 q 200 36 167 36 q 338 68 275 36 q 442 165 401 100 q 452 185 446 172 q 466 210 458 197 q 482 232 474 222 q 500 242 490 242 q 521 234 511 242 q 531 215 531 226 m 331 313 q 317 347 331 332 q 283 372 303 361 q 242 388 264 382 q 204 393 219 393 q 93 355 140 393 q 32 254 46 317 q 110 222 74 232 q 193 211 146 211 q 240 217 215 211 q 284 236 264 224 q 317 267 304 249 q 331 313 331 286 z "},"f":{"ha":326,"x_min":-42,"x_max":356,"o":"m 356 214 q 353 201 356 210 q 322 145 340 174 q 281 94 304 117 q 228 57 257 71 q 165 43 199 43 q 153 43 158 43 q 142 44 149 43 q 206 -90 181 -24 q 253 -227 232 -157 q 288 -369 275 -297 q 300 -510 300 -442 q 292 -616 300 -560 q 267 -720 285 -672 q 219 -799 250 -768 q 142 -831 189 -831 q 68 -797 99 -831 q 17 -710 38 -764 q -15 -590 -3 -657 q -33 -456 -26 -524 q -40 -328 -39 -389 q -42 -228 -42 -268 q -32 74 -42 -76 q -30 134 -32 104 q -28 196 -28 164 l -28 713 q -26 791 -28 740 q -20 901 -25 842 q -5 1023 -15 961 q 22 1135 6 1085 q 61 1218 38 1186 q 119 1250 85 1250 q 197 1215 164 1250 q 251 1131 231 1181 q 282 1025 272 1081 q 292 926 292 969 q 266 735 292 832 q 201 546 240 639 q 115 364 161 453 q 31 197 69 275 l 29 190 q 57 160 42 176 q 89 131 72 144 q 125 109 106 118 q 165 100 144 100 q 213 113 193 100 q 248 144 232 125 q 276 185 264 163 q 300 226 288 207 q 326 243 310 243 q 347 234 338 243 q 356 214 356 225 m 233 926 q 226 999 233 954 q 206 1083 219 1043 q 172 1153 193 1124 q 119 1183 150 1183 q 82 1153 97 1183 q 57 1078 67 1124 q 42 977 47 1033 q 34 869 36 921 q 31 774 32 817 q 31 713 31 732 l 31 336 q 97 472 61 400 q 162 621 132 544 q 213 775 192 697 q 233 926 233 853 m 240 -510 q 221 -344 240 -432 q 172 -171 201 -257 q 104 -8 142 -85 q 24 113 67 68 q 19 -62 22 32 q 17 -253 17 -157 q 17 -328 17 -282 q 22 -431 18 -375 q 33 -545 26 -487 q 54 -649 40 -603 q 90 -724 68 -694 q 142 -754 111 -754 q 194 -727 174 -754 q 224 -662 214 -700 q 237 -583 233 -625 q 240 -510 240 -540 z "},"g":{"ha":644,"x_min":-28,"x_max":674,"o":"m 674 210 q 669 196 674 203 q 622 128 649 160 q 563 69 594 97 q 497 17 531 42 q 431 -46 464 -8 l 431 -456 q 425 -572 431 -506 q 404 -699 419 -639 q 360 -799 389 -758 q 285 -840 331 -840 q 208 -808 238 -840 q 163 -725 179 -775 q 142 -616 147 -675 q 136 -503 136 -557 q 159 -356 136 -428 q 217 -220 182 -285 q 294 -100 251 -156 q 374 -1 336 -44 l 374 51 q 296 -8 342 13 q 200 -29 250 -29 q 110 -10 151 -29 q 38 42 68 10 q -10 117 7 74 q -28 208 -28 161 q -10 300 -28 257 q 38 376 7 343 q 110 428 68 408 q 200 447 151 447 q 296 426 250 447 q 374 365 342 404 q 373 388 374 375 q 374 413 372 401 q 381 433 375 425 q 401 442 388 442 q 422 434 413 442 q 431 414 431 426 l 431 40 q 517 103 475 69 q 592 182 560 138 q 606 203 599 193 q 619 224 613 213 q 643 238 629 238 q 664 229 654 238 q 674 210 674 221 m 374 208 q 360 278 374 244 q 324 336 347 311 q 269 376 300 361 q 200 392 238 392 q 131 376 163 392 q 77 336 100 361 q 42 278 54 311 q 29 208 29 244 q 42 140 29 172 q 77 82 54 107 q 131 42 100 57 q 200 26 163 26 q 269 42 238 26 q 324 82 300 57 q 360 140 347 107 q 374 208 374 172 m 374 -111 q 313 -189 344 -146 q 255 -283 282 -232 q 210 -390 228 -333 q 193 -503 193 -446 q 195 -582 193 -536 q 206 -667 197 -628 q 233 -733 215 -706 q 285 -760 251 -760 q 335 -725 317 -760 q 361 -640 353 -690 q 372 -539 369 -590 q 374 -456 374 -487 l 374 -111 z "},"h":{"ha":539,"x_min":-37,"x_max":568,"o":"m 568 221 q 565 214 568 219 q 533 145 554 185 q 483 69 511 106 q 422 8 456 33 q 353 -17 389 -17 q 300 1 319 -17 q 271 44 281 18 q 258 100 261 69 q 256 156 256 131 l 256 303 q 235 366 256 336 q 175 396 215 396 q 131 371 153 396 q 90 313 108 346 q 54 246 71 279 q 25 196 38 213 q 31 104 28 150 q 35 11 35 58 q 26 -10 35 -1 q 6 -18 18 -18 q -19 -1 -15 -18 q -24 31 -24 15 q -26 98 -24 64 q -31 165 -28 132 q -37 358 -36 256 q -37 572 -37 461 q -32 813 -37 693 q 3 1049 -26 932 q 21 1108 10 1074 q 49 1174 32 1143 q 89 1226 67 1204 q 140 1247 111 1247 q 224 1213 189 1247 q 280 1130 258 1179 q 312 1025 301 1081 q 322 924 322 969 q 311 808 322 865 q 281 694 300 750 q 238 585 263 639 q 168 451 214 532 l 175 451 q 233 441 207 453 q 276 408 258 429 q 303 360 294 388 q 313 303 313 332 l 313 156 q 313 125 313 144 q 316 86 313 106 q 328 53 319 67 q 353 39 336 39 q 406 62 382 39 q 449 116 429 85 q 485 180 469 147 q 514 233 501 213 q 538 249 522 249 q 558 240 549 249 q 568 221 568 232 m 263 924 q 258 987 263 954 q 244 1052 254 1019 q 219 1113 235 1085 q 182 1158 204 1140 q 162 1172 172 1167 q 140 1178 151 1178 q 112 1160 125 1178 q 89 1117 99 1142 q 72 1067 79 1093 q 61 1028 64 1042 q 28 801 32 917 q 24 567 24 685 q 28 303 24 435 q 97 442 50 363 q 179 599 144 521 q 238 758 214 678 q 263 924 263 839 z "},"i":{"ha":351,"x_min":-28,"x_max":381,"o":"m 118 590 q 105 560 118 572 q 74 547 92 547 q 44 560 56 547 q 33 590 33 572 q 44 621 33 608 q 74 633 56 633 q 105 621 92 633 q 118 590 118 608 m 381 215 q 375 198 381 208 q 363 176 369 188 q 349 153 356 164 q 339 138 342 143 q 331 122 335 131 q 321 107 326 114 q 288 62 307 85 q 247 22 269 39 q 199 -7 225 4 q 144 -18 174 -18 q 90 0 110 -18 q 59 44 69 18 q 45 99 49 69 q 42 154 42 129 l 42 224 l 42 246 q 39 235 40 243 q 36 224 38 226 q 18 197 28 208 q 0 186 8 186 q -19 194 -11 186 q -28 214 -28 203 q -17 248 -28 226 q 0 282 -6 269 q 18 333 11 307 q 32 386 25 360 q 36 403 33 393 q 43 424 39 414 q 54 440 47 433 q 71 446 61 446 q 92 435 86 446 q 99 415 99 424 l 99 154 q 99 121 99 142 q 102 83 99 101 q 115 50 106 64 q 144 36 125 36 q 215 67 183 36 q 271 135 247 97 q 292 169 282 153 q 311 200 303 185 q 326 226 318 211 q 350 242 333 242 q 370 235 360 242 q 381 215 381 229 z "},"j":{"ha":329,"x_min":-207,"x_max":358,"o":"m 118 590 q 105 560 118 572 q 74 547 92 547 q 44 560 56 547 q 33 590 33 572 q 44 621 33 608 q 74 633 56 633 q 105 621 92 633 q 118 590 118 608 m 358 211 q 353 196 358 204 q 238 56 307 121 q 99 -69 168 -8 l 99 -436 q 92 -551 99 -483 q 68 -681 85 -618 q 24 -788 51 -743 q -46 -833 -4 -833 q -118 -801 -87 -833 q -168 -718 -149 -768 q -197 -610 -187 -668 q -207 -500 -207 -551 q -183 -352 -207 -419 q -122 -226 -158 -285 q -41 -119 -85 -168 q 42 -28 3 -71 l 42 219 l 40 238 q 39 229 39 235 q 38 222 39 225 q 24 196 32 208 q 0 183 15 183 q -19 192 -11 183 q -28 211 -28 200 q -26 224 -28 219 q 1 288 -12 256 q 25 354 14 319 q 33 390 31 372 q 43 425 36 408 q 71 447 50 447 q 91 438 83 447 q 99 417 99 428 l 99 10 q 190 87 147 44 q 269 176 233 129 q 288 202 279 189 q 306 226 296 215 q 316 236 311 233 q 329 239 321 239 q 349 231 340 239 q 358 211 358 222 m 42 -132 q -22 -203 13 -165 q -83 -287 -56 -242 q -130 -385 -111 -333 q -149 -500 -149 -437 q -143 -575 -149 -532 q -125 -657 -137 -618 q -93 -724 -112 -696 q -46 -751 -74 -751 q -2 -712 -19 -751 q 25 -622 15 -674 q 38 -517 35 -569 q 42 -436 42 -465 l 42 -132 z "},"k":{"ha":542,"x_min":-44,"x_max":571,"o":"m 571 219 q 567 206 571 213 q 530 136 551 175 q 481 63 508 97 q 421 5 454 28 q 347 -18 388 -18 q 298 1 317 -18 q 269 47 279 19 q 256 106 260 75 q 253 158 253 136 q 242 201 253 185 q 161 181 204 181 q 109 194 133 181 q 85 239 85 207 q 111 284 85 271 q 165 297 138 297 q 206 291 186 297 q 243 274 225 285 q 260 324 260 294 q 235 376 260 360 q 175 393 210 393 q 128 369 150 393 q 87 311 106 344 q 52 244 68 278 q 25 193 36 211 q 29 10 29 101 q 20 -10 29 -3 q 0 -18 11 -18 q -19 -10 -11 -18 q -28 10 -28 -3 q -36 346 -28 169 q -44 718 -44 522 q -40 799 -44 747 q -29 910 -36 850 q -9 1031 -22 971 q 24 1141 4 1092 q 71 1222 44 1190 q 132 1254 97 1254 q 210 1217 178 1254 q 265 1128 243 1181 q 299 1019 288 1076 q 310 919 310 961 q 297 811 310 871 q 262 690 283 751 q 215 572 240 628 q 154 444 190 515 q 163 449 158 449 q 175 449 168 449 q 275 416 233 449 q 317 324 317 383 q 283 238 317 275 q 304 192 300 214 q 308 142 308 169 q 309 115 308 132 q 313 80 310 97 q 325 50 317 63 q 347 38 333 38 q 394 53 372 38 q 433 91 415 68 q 465 139 451 114 q 489 183 479 164 q 502 206 496 196 q 515 231 508 215 q 540 247 525 247 q 561 239 551 247 q 571 219 571 231 m 249 919 q 242 990 249 946 q 221 1078 235 1035 q 185 1154 207 1122 q 132 1186 163 1186 q 103 1169 117 1186 q 81 1128 90 1151 q 65 1081 72 1106 q 54 1042 57 1056 q 25 883 33 964 q 17 718 17 801 q 19 517 17 617 q 26 317 22 418 q 90 442 47 360 q 167 609 132 525 q 225 774 201 693 q 249 919 249 856 m 203 239 q 167 249 186 249 q 153 246 164 249 q 142 239 142 243 q 151 233 142 233 q 164 232 161 232 q 183 234 172 232 q 203 239 194 236 z "},"l":{"ha":368,"x_min":-44,"x_max":396,"o":"m 396 221 q 393 207 396 213 q 367 159 382 185 q 332 106 351 133 q 297 60 315 82 q 258 20 279 38 q 213 -8 236 3 q 161 -18 189 -18 q 76 5 111 -18 q 18 63 40 28 q -15 141 -4 99 q -28 222 -26 183 q -28 329 -25 264 q -35 468 -32 394 q -42 618 -39 542 q -44 763 -44 694 q -41 837 -44 789 q -30 938 -37 885 q -9 1048 -22 992 q 24 1149 4 1104 q 69 1223 43 1194 q 128 1251 94 1251 q 212 1215 178 1251 q 267 1128 246 1179 q 297 1022 288 1078 q 306 926 306 967 q 286 783 306 863 q 237 626 267 704 q 174 474 207 547 q 113 344 140 400 q 76 274 94 308 q 29 211 58 240 q 41 151 32 182 q 66 94 50 119 q 106 53 82 69 q 161 38 129 38 q 205 49 185 38 q 242 77 225 60 q 273 116 258 94 q 300 158 288 138 q 335 222 319 194 q 367 249 351 249 q 387 241 378 249 q 396 221 396 233 m 246 926 q 236 1026 246 981 q 222 1078 232 1050 q 197 1129 211 1106 q 166 1169 183 1153 q 128 1185 149 1185 q 100 1169 113 1185 q 78 1130 88 1153 q 62 1084 68 1107 q 51 1047 56 1061 q 24 908 32 978 q 15 767 15 838 q 17 649 15 711 q 22 526 19 586 q 28 411 25 465 q 32 321 31 357 q 102 460 64 381 q 172 624 140 540 q 225 788 204 708 q 246 926 246 868 z "},"m":{"ha":950,"x_min":-28,"x_max":981,"o":"m 981 215 q 978 207 981 213 q 951 155 971 188 q 904 88 931 122 q 838 14 872 46 q 774 -18 804 -18 q 711 -3 736 -18 q 672 35 686 11 q 653 91 658 60 q 647 154 647 122 l 647 313 q 619 372 647 353 q 554 390 590 390 q 490 359 515 390 q 465 290 465 328 l 465 10 q 456 -10 465 -1 q 436 -18 447 -18 q 417 -10 425 -18 q 408 10 408 -1 l 408 290 q 390 363 408 336 q 322 390 372 390 q 290 385 307 390 q 258 369 272 379 q 233 345 243 360 q 224 313 224 331 l 224 10 q 215 -10 224 -1 q 194 -18 206 -18 q 175 -10 183 -18 q 167 10 167 -1 l 167 317 q 166 338 167 325 q 163 363 165 351 q 153 382 160 374 q 133 390 146 390 q 92 358 108 390 q 61 288 75 326 q 33 218 47 250 q 0 186 19 186 q -19 194 -11 186 q -28 214 -28 203 q -22 232 -28 219 q -10 261 -17 244 q 11 314 1 286 q 26 356 21 342 q 67 416 39 388 q 133 444 94 444 q 177 434 157 444 q 208 401 197 424 q 261 433 232 422 q 322 444 290 444 q 390 432 358 444 q 442 388 422 419 q 492 429 463 414 q 554 444 521 444 q 611 435 583 444 q 660 410 639 426 q 693 369 681 393 q 706 313 706 344 l 706 154 q 707 115 706 136 q 715 76 708 94 q 735 47 721 58 q 774 36 749 36 q 811 58 789 36 q 856 112 833 81 q 897 176 878 143 q 926 228 917 208 q 950 242 935 242 q 971 234 961 242 q 981 215 981 226 z "},"n":{"ha":703,"x_min":-35,"x_max":731,"o":"m 731 215 q 726 202 731 213 q 719 188 722 192 q 686 132 708 167 q 638 64 664 97 q 582 6 611 31 q 526 -18 553 -18 q 464 -3 489 -18 q 424 35 439 11 q 404 91 410 60 q 399 154 399 122 l 399 313 q 371 373 399 353 q 307 393 343 393 q 271 384 288 393 q 242 360 254 375 q 224 327 231 346 q 217 290 217 308 l 217 10 q 208 -10 217 -1 q 189 -18 200 -18 q 169 -10 178 -18 q 160 10 160 -1 l 160 317 q 159 338 160 325 q 156 363 158 350 q 146 384 153 375 q 128 393 139 393 q 95 378 108 393 q 74 344 82 364 q 60 303 65 324 q 49 268 54 282 q 40 245 44 260 q 28 216 35 231 q 14 191 22 201 q -6 181 6 181 q -26 189 -17 181 q -35 208 -35 197 q -31 223 -35 213 q -22 245 -28 233 q -12 268 -17 257 q -6 283 -8 279 q 6 318 1 300 q 18 353 11 336 q 59 417 31 388 q 128 447 88 447 q 171 433 153 447 q 200 397 189 419 q 248 434 219 421 q 307 447 276 447 q 363 438 336 447 q 411 412 390 429 q 444 369 432 394 q 456 313 456 344 l 456 154 q 457 115 456 136 q 466 76 458 94 q 488 47 474 58 q 526 36 501 36 q 563 58 542 36 q 603 108 583 79 q 641 166 624 138 q 665 208 658 194 q 680 231 672 219 q 703 242 688 242 q 722 234 714 242 q 731 215 731 226 z "},"o":{"ha":556,"x_min":-28,"x_max":585,"o":"m 585 215 q 582 203 585 211 q 528 143 564 165 q 450 121 492 121 q 432 122 440 121 q 414 126 424 124 q 328 22 386 61 q 200 -18 271 -18 q 111 1 153 -18 q 38 51 69 19 q -10 124 7 82 q -28 214 -28 167 q -10 303 -28 261 q 38 378 7 346 q 111 428 69 410 q 200 447 153 447 q 290 428 249 447 q 363 378 332 410 q 413 303 394 346 q 431 214 431 261 q 430 195 431 204 q 428 178 429 186 q 450 176 435 176 q 493 187 478 176 q 518 209 508 197 q 535 231 528 221 q 556 242 543 242 q 576 234 567 242 q 585 215 585 226 m 372 215 q 369 251 372 231 q 358 288 365 272 q 354 277 357 282 q 351 265 351 272 q 358 239 351 251 q 372 215 365 226 m 361 149 q 314 199 333 168 q 294 265 294 229 q 301 305 294 285 q 322 340 308 325 q 200 393 272 393 q 133 378 164 393 q 78 339 101 364 q 42 282 56 314 q 29 214 29 250 q 42 147 29 179 q 78 90 56 114 q 133 51 101 65 q 200 36 164 36 q 298 67 254 36 q 361 149 342 99 z "},"p":{"ha":583,"x_min":-28,"x_max":614,"o":"m 614 210 q 611 199 614 207 q 607 188 608 190 q 535 72 583 139 q 511 42 524 56 q 486 15 499 28 q 447 -17 467 -4 q 407 -29 428 -29 q 344 -13 368 -29 q 306 28 319 3 q 287 84 292 53 q 282 147 282 115 l 282 310 q 253 369 282 350 q 189 389 225 389 q 154 379 171 389 q 125 355 138 369 q 106 322 113 340 q 99 286 99 304 l 100 -804 q 91 -824 100 -815 q 71 -832 82 -832 q 51 -824 60 -832 q 43 -804 43 -815 l 42 228 q 26 199 38 217 q 0 181 14 181 q -19 189 -11 181 q -28 208 -28 197 q -26 219 -28 215 q -1 283 -15 251 q 24 349 14 315 q 33 387 29 368 q 43 424 36 406 q 53 440 47 433 q 71 446 60 446 q 92 435 86 446 q 99 411 97 424 q 189 444 139 444 q 247 435 219 444 q 294 409 274 426 q 327 367 315 392 q 339 310 339 342 l 339 147 q 340 108 339 129 q 348 68 342 86 q 368 38 354 50 q 407 26 382 26 q 445 47 426 26 q 482 93 464 67 q 522 151 503 122 q 549 199 540 181 q 561 223 554 210 q 583 236 568 236 q 604 228 594 236 q 614 210 614 221 z "},"q":{"ha":663,"x_min":-28,"x_max":692,"o":"m 692 210 q 689 197 692 206 q 656 132 679 171 q 604 57 633 93 q 542 -4 575 21 q 476 -29 508 -29 q 431 -18 453 -29 l 426 -808 q 417 -828 426 -819 q 397 -836 408 -836 q 378 -828 386 -836 q 369 -808 369 -819 l 374 53 q 296 -8 342 14 q 200 -29 250 -29 q 110 -10 151 -29 q 38 42 68 10 q -10 118 7 75 q -28 208 -28 161 q -10 299 -28 256 q 38 375 7 342 q 110 428 68 408 q 200 447 151 447 q 296 426 250 447 q 374 365 342 404 q 372 388 374 374 q 373 414 371 401 q 381 435 375 426 q 401 444 388 444 q 422 435 414 444 q 431 415 431 426 l 431 126 q 431 96 431 114 q 435 63 431 79 q 449 37 439 47 q 476 26 458 26 q 520 47 497 26 q 563 95 543 67 q 599 153 582 124 q 624 199 615 182 q 638 223 631 210 q 661 236 646 236 q 682 229 672 236 q 692 210 692 222 m 374 208 q 360 278 374 244 q 324 336 347 311 q 269 376 300 361 q 200 392 238 392 q 131 376 163 392 q 77 336 100 361 q 42 278 54 311 q 29 208 29 244 q 42 140 29 172 q 77 82 54 107 q 131 42 100 57 q 200 26 163 26 q 269 42 238 26 q 324 82 300 57 q 360 140 347 107 q 374 208 374 172 z "},"r":{"ha":556,"x_min":-39,"x_max":585,"o":"m 585 217 q 582 206 585 214 q 563 167 575 188 q 536 122 550 146 q 499 71 519 96 q 456 26 479 46 q 408 -6 433 7 q 358 -18 383 -18 q 306 -7 331 -18 q 262 24 281 4 q 233 68 243 43 q 222 121 222 93 q 230 176 222 149 q 246 229 238 203 q 262 283 254 256 q 269 338 269 310 q 260 360 269 351 q 236 372 250 368 q 207 377 222 376 q 182 378 192 378 q 135 372 158 378 q 88 364 111 367 q 74 322 83 346 q 56 274 65 299 q 35 226 46 249 q 15 188 24 203 q -10 172 7 172 q -30 181 -21 172 q -39 200 -39 189 q -34 214 -39 203 q -26 228 -29 225 q 6 301 -10 264 q 32 376 21 339 q -3 412 10 389 q -15 460 -15 435 q -2 519 -15 492 q 49 547 11 547 q 92 528 76 547 q 108 483 108 508 q 106 453 108 468 q 101 422 104 438 q 141 429 121 425 q 182 433 161 433 q 229 428 204 433 q 276 413 254 424 q 312 383 297 401 q 326 338 326 365 q 319 283 326 310 q 303 229 311 256 q 287 176 294 203 q 279 121 279 149 q 303 63 279 89 q 358 38 326 38 q 392 47 375 38 q 426 72 410 57 q 456 105 442 86 q 481 142 471 124 q 506 184 493 164 q 531 228 519 204 q 554 243 538 243 q 575 235 565 243 q 585 217 585 228 m 51 489 q 49 492 51 492 q 42 479 43 492 q 42 464 42 467 l 42 458 q 47 439 42 450 q 51 489 51 464 z "},"s":{"ha":549,"x_min":-28,"x_max":578,"o":"m 578 217 q 575 206 578 214 q 450 42 531 101 q 254 -18 369 -18 l 193 -18 q 138 -8 171 -18 q 75 20 106 3 q 24 62 44 38 q 3 113 3 86 q 11 133 3 125 q 31 140 19 140 q 55 126 51 140 q 65 99 58 113 q 87 78 71 89 q 123 58 103 67 q 163 43 143 49 q 193 38 182 38 q 253 52 226 38 q 297 91 279 67 q 325 145 315 115 q 335 206 335 175 q 309 272 335 244 q 246 317 283 299 q 167 346 208 335 q 97 364 126 357 q 69 298 82 331 q 40 232 56 265 q 26 204 35 219 q 0 189 17 189 q -19 197 -11 189 q -28 215 -28 204 q -17 243 -28 219 q 6 295 -7 267 q 30 349 18 324 q 46 383 42 375 q 13 421 24 399 q 1 469 1 443 q 21 526 1 503 q 75 549 40 549 q 123 529 103 549 q 143 482 143 510 q 134 448 143 469 q 119 415 125 426 q 207 392 160 407 q 295 353 254 378 q 364 292 336 328 q 392 206 392 256 q 377 120 392 163 q 335 46 363 78 q 427 95 388 61 q 494 176 467 129 q 508 203 501 189 q 524 229 515 217 q 533 240 529 236 q 547 243 538 243 q 568 235 558 243 q 578 217 578 228 m 86 482 q 75 493 86 493 q 61 485 64 493 q 58 469 58 478 q 60 453 58 461 q 68 438 63 444 q 78 460 71 444 q 86 482 86 476 z "},"t":{"ha":343,"x_min":-28,"x_max":371,"o":"m 371 221 q 368 208 371 217 q 336 142 358 181 q 285 67 314 103 q 223 7 256 32 q 157 -18 190 -18 q 79 -1 114 -18 q 21 44 44 15 q -15 110 -3 72 q -28 188 -28 147 l -28 813 q -19 832 -28 824 q 1 840 -10 840 q 21 832 13 840 q 29 813 29 824 l 29 619 l 278 619 q 297 611 289 619 q 306 592 306 603 q 297 572 306 581 q 278 564 289 564 l 29 564 l 29 188 q 38 131 29 158 q 62 83 46 104 q 101 50 78 63 q 157 38 125 38 q 201 58 179 38 q 244 106 224 78 q 280 162 264 133 q 304 208 296 190 q 319 234 311 221 q 343 247 326 247 q 363 240 354 247 q 371 221 371 232 z "},"u":{"ha":657,"x_min":-28,"x_max":688,"o":"m 688 215 q 686 209 688 213 q 683 203 685 206 q 649 138 671 176 q 599 65 626 100 q 540 6 572 31 q 474 -18 507 -18 q 383 46 407 -18 q 381 57 382 49 q 379 68 381 65 q 375 56 376 65 q 371 43 374 46 q 315 -1 347 15 q 246 -18 283 -18 q 170 -6 207 -18 q 105 30 133 7 q 59 87 76 53 q 42 163 42 121 l 42 218 l 40 247 q 39 236 39 244 q 38 225 39 228 q 21 200 31 214 q 0 186 11 186 q -19 194 -11 186 q -28 214 -28 203 q -21 239 -28 221 q -5 278 -14 257 q 13 321 4 300 q 24 351 21 342 q 28 372 26 360 q 34 397 31 385 q 42 421 38 410 q 51 438 46 432 q 71 446 60 446 q 91 436 83 446 q 99 415 99 426 l 99 163 q 111 108 99 132 q 144 69 124 85 q 192 44 165 53 q 246 36 218 36 q 301 53 278 36 q 340 95 325 69 q 363 151 356 121 q 371 208 371 182 l 371 415 q 379 435 371 426 q 399 443 388 443 q 419 435 410 443 q 428 415 428 426 l 428 135 q 428 104 428 122 q 432 72 428 88 q 446 47 436 57 q 474 36 456 36 q 513 53 493 36 q 552 93 533 69 q 585 141 571 117 q 608 181 600 165 q 621 204 615 192 q 633 228 626 217 q 657 242 643 242 q 678 234 668 242 q 688 215 688 226 z "},"v":{"ha":592,"x_min":-28,"x_max":629,"o":"m 629 222 q 628 214 629 218 q 625 207 626 210 q 599 167 617 185 q 561 140 582 150 q 517 126 540 129 q 471 125 493 122 l 469 115 q 396 17 443 51 q 278 -18 349 -18 q 194 6 225 -18 q 147 68 163 31 q 126 151 131 106 q 122 236 122 196 q 123 300 122 268 q 124 364 124 332 q 124 378 124 367 q 117 389 124 389 q 97 374 107 389 q 79 336 88 358 q 62 288 71 314 q 44 239 53 261 q 24 201 35 217 q 0 186 13 186 q -19 194 -11 186 q -28 214 -28 203 q -21 240 -28 221 q -6 281 -14 260 q 12 323 3 303 q 25 351 21 343 q 42 381 32 364 q 63 411 51 397 q 90 435 75 425 q 121 444 104 444 q 152 433 140 444 q 170 406 164 422 q 178 371 176 389 q 181 338 181 353 q 179 283 181 310 q 178 229 178 257 q 180 169 178 203 q 192 106 182 136 q 222 56 201 76 q 278 36 242 36 q 364 63 322 36 q 417 136 406 90 q 376 165 393 144 q 349 210 360 186 q 334 258 339 233 q 329 299 329 282 q 332 344 329 319 q 344 391 335 369 q 369 426 353 413 q 414 440 386 440 q 455 422 439 440 q 481 378 471 404 q 494 326 490 353 q 499 279 499 299 q 496 229 499 254 q 489 181 493 204 q 541 194 521 182 q 569 221 561 206 q 582 242 576 235 q 600 249 588 249 q 620 241 611 249 q 629 222 629 233 m 442 279 q 441 303 442 286 q 438 340 440 321 q 429 372 435 358 q 414 386 424 386 q 398 379 404 386 q 389 363 392 372 q 385 342 386 353 q 385 324 385 331 q 385 285 385 306 q 391 246 386 265 q 406 210 396 226 q 432 182 415 193 q 440 231 438 206 q 442 279 442 256 z "},"w":{"ha":890,"x_min":-28,"x_max":926,"o":"m 926 222 q 925 214 926 218 q 922 207 924 210 q 897 167 914 185 q 860 140 881 150 q 815 126 839 129 q 769 125 792 122 l 768 115 q 694 17 742 51 q 576 -18 647 -18 q 495 9 529 -18 q 442 78 461 36 q 372 6 415 29 q 274 -18 329 -18 q 210 -2 239 -18 q 161 40 181 14 q 131 97 142 65 q 119 163 119 129 l 119 364 q 119 378 119 367 q 113 389 118 389 q 94 374 103 389 q 76 336 85 358 q 60 288 68 314 q 44 239 53 261 q 24 201 35 217 q 0 186 14 186 q -19 194 -11 186 q -28 214 -28 203 q -22 240 -28 221 q -6 282 -15 260 q 11 324 3 304 q 24 351 19 343 q 40 381 31 364 q 60 411 49 397 q 87 435 72 425 q 118 444 101 444 q 149 433 138 444 q 167 406 161 422 q 176 371 174 389 q 178 338 178 353 l 178 163 q 184 119 178 142 q 202 78 190 97 q 232 48 214 60 q 274 36 250 36 q 360 64 329 36 q 404 133 390 92 q 421 224 418 175 q 424 313 424 272 l 424 415 q 432 435 424 426 q 451 443 440 443 q 472 435 463 443 q 481 415 481 426 l 481 279 l 481 163 q 487 119 481 142 q 505 78 493 97 q 535 48 517 60 q 576 36 553 36 q 662 63 621 36 q 714 136 703 90 q 674 165 690 144 q 647 210 657 186 q 631 258 636 233 q 626 299 626 282 q 629 344 626 319 q 642 391 632 369 q 668 426 651 413 q 713 440 685 440 q 753 422 738 440 q 778 378 769 404 q 792 326 788 353 q 796 279 796 299 q 788 181 796 229 q 840 194 819 182 q 868 221 860 206 q 881 242 875 235 q 899 249 886 249 q 918 241 910 249 q 926 222 926 233 m 739 279 q 738 303 739 286 q 735 340 738 321 q 727 372 732 358 q 713 386 722 386 q 697 379 703 386 q 688 363 690 372 q 684 342 685 353 q 683 324 683 331 q 684 285 683 306 q 690 246 685 265 q 704 210 694 226 q 731 182 714 193 q 738 231 736 206 q 739 279 739 256 z "},"x":{"ha":857,"x_min":-28,"x_max":886,"o":"m 886 215 q 883 203 886 211 q 840 119 865 160 q 783 49 815 79 q 709 0 750 18 q 617 -18 668 -18 q 500 15 553 -18 q 417 103 447 47 q 333 15 386 47 q 215 -18 279 -18 q 166 -10 190 -18 q 119 13 142 -1 q 78 47 97 28 q 47 85 60 65 q 42 101 42 93 q 50 119 42 113 q 69 126 58 126 q 94 113 81 126 q 124 81 107 99 q 164 50 142 64 q 215 36 186 36 q 283 51 251 36 q 339 90 315 65 q 376 146 363 114 q 389 214 389 178 q 376 282 389 250 q 339 339 363 314 q 283 378 315 364 q 215 393 251 393 q 138 374 165 393 q 94 328 111 356 q 63 266 76 300 q 25 201 49 232 q 14 190 19 194 q 0 186 8 186 q -19 194 -11 186 q -28 214 -28 203 q -20 240 -28 222 q -2 276 -12 257 q 19 312 8 294 q 35 338 29 329 q 69 387 51 367 q 108 421 88 407 q 155 441 129 435 q 215 447 181 447 q 333 414 279 447 q 417 325 386 381 q 500 414 447 381 q 617 447 553 447 q 704 431 658 447 q 778 382 750 414 q 786 363 786 371 q 777 344 786 351 q 757 336 768 336 q 739 345 753 336 q 706 365 725 354 q 665 384 688 375 q 617 393 642 393 q 549 378 581 393 q 495 339 518 364 q 459 282 472 314 q 446 214 446 250 q 459 147 446 179 q 495 90 472 114 q 549 51 518 65 q 617 36 581 36 q 691 51 660 36 q 744 90 722 67 q 783 139 767 113 q 811 188 799 165 q 834 226 824 211 q 857 242 844 242 q 877 234 868 242 q 886 215 886 226 z "},"y":{"ha":647,"x_min":-28,"x_max":678,"o":"m 678 208 q 674 196 678 203 q 565 47 629 113 q 426 -72 500 -18 l 426 -417 q 419 -535 426 -465 q 396 -672 413 -606 q 351 -785 379 -737 q 281 -832 322 -832 q 213 -795 239 -832 q 172 -703 186 -758 q 152 -584 157 -647 q 147 -471 147 -521 q 169 -337 147 -400 q 225 -218 192 -274 q 297 -116 258 -162 q 369 -50 336 -69 l 369 29 q 244 -29 319 -29 q 167 -16 204 -29 q 103 21 131 -3 q 58 79 75 44 q 42 156 42 114 l 42 228 q 27 197 36 214 q 0 181 18 181 q -19 189 -11 181 q -28 208 -28 197 q -26 221 -28 217 q 1 285 -12 253 q 24 350 14 317 q 33 386 29 368 q 43 422 36 404 q 53 439 46 432 q 71 446 60 446 q 91 436 83 446 q 99 415 99 426 l 99 156 q 110 101 99 125 q 142 60 122 76 q 189 35 163 43 q 244 26 215 26 q 301 44 278 26 q 340 87 325 61 q 363 144 356 113 q 369 203 369 175 l 369 414 q 378 434 369 426 q 397 442 386 442 q 417 434 408 442 q 426 414 426 426 l 426 -6 q 515 76 472 33 q 590 168 557 118 q 607 196 600 182 q 624 222 614 210 q 647 236 633 236 q 668 228 658 236 q 678 208 678 219 m 369 -139 q 333 -178 350 -158 q 299 -221 317 -199 q 233 -329 261 -269 q 204 -469 204 -389 q 206 -547 204 -500 q 215 -640 207 -594 q 238 -717 222 -685 q 281 -749 253 -749 q 323 -708 306 -749 q 351 -615 340 -668 q 365 -508 361 -561 q 369 -425 369 -454 l 369 -139 z "},"z":{"ha":546,"x_min":-25,"x_max":572,"o":"m 572 211 q 569 200 572 206 q 514 93 549 143 q 439 -1 479 43 q 467 -108 453 -47 q 490 -231 481 -168 q 504 -356 500 -293 q 508 -472 508 -419 q 499 -586 508 -524 q 469 -703 490 -649 q 415 -794 449 -757 q 332 -832 381 -832 q 251 -796 285 -832 q 195 -706 217 -760 q 164 -590 174 -651 q 154 -476 154 -528 q 172 -328 154 -393 q 217 -208 189 -264 q 281 -101 244 -151 q 367 3 318 -50 q 349 19 360 11 q 326 26 338 26 q 279 18 301 26 q 238 -1 257 10 q 203 -19 218 -11 q 178 -28 188 -28 q 158 -21 167 -28 q 150 -3 150 -14 q 151 0 150 -1 q 151 3 151 1 q 179 78 160 32 q 217 173 199 125 q 251 265 236 221 q 265 333 265 308 q 256 356 265 347 q 234 368 247 364 q 206 374 221 372 q 182 375 192 375 q 133 369 157 375 q 83 361 108 363 q 74 323 79 346 q 60 276 68 300 q 45 232 53 253 q 29 199 38 211 q 19 187 24 192 q 3 182 14 182 q -17 190 -8 182 q -25 210 -25 199 q -17 234 -25 211 q -1 285 -10 257 q 17 340 8 314 q 28 374 26 365 q -7 410 6 388 q -19 458 -19 432 q -4 519 -19 490 q 49 549 11 549 q 92 526 76 549 q 107 478 107 503 q 104 448 107 463 q 99 418 101 433 q 140 426 119 421 q 182 432 160 432 q 229 426 204 432 q 275 410 254 421 q 309 380 296 399 q 322 333 322 361 q 316 294 322 317 q 301 247 310 271 q 284 199 293 222 q 269 158 275 176 q 253 110 263 133 q 231 64 243 88 q 277 77 247 72 q 326 82 307 82 q 407 46 374 82 q 457 112 433 78 q 499 182 481 146 q 507 201 503 192 q 517 221 511 211 q 527 233 522 228 q 543 239 532 239 q 563 231 554 239 q 572 211 572 222 m 49 483 q 46 492 49 489 q 38 481 39 489 q 36 468 36 474 l 36 460 q 39 447 36 453 q 44 435 42 440 q 49 476 49 456 l 49 483 m 449 -472 q 436 -264 449 -372 q 390 -65 424 -156 q 325 -156 356 -112 q 269 -247 294 -199 q 230 -351 244 -296 q 215 -476 215 -406 q 222 -557 215 -510 q 243 -647 229 -604 q 279 -722 257 -690 q 332 -753 301 -753 q 386 -721 364 -753 q 422 -644 408 -689 q 442 -552 435 -600 q 449 -472 449 -504 z "},"{":{"ha":333,"x_min":-10,"x_max":272,"o":"m 272 -364 q 263 -383 272 -375 q 243 -392 254 -392 q 173 -363 199 -392 q 135 -294 147 -335 q 119 -209 122 -254 q 115 -132 115 -164 q 117 -20 115 -75 q 118 92 118 35 q 117 152 118 115 q 109 227 115 189 q 90 297 103 265 q 51 339 76 328 q 34 344 44 342 q 14 351 24 347 q -3 362 4 356 q -10 378 -10 368 q -3 394 -10 389 q 15 403 4 400 q 35 409 25 407 q 53 415 46 411 q 92 460 78 428 q 112 532 106 493 q 119 610 118 571 q 119 674 119 649 q 119 780 119 726 q 118 886 118 833 q 121 963 118 918 q 136 1048 124 1007 q 174 1117 149 1089 q 243 1146 199 1146 q 263 1138 254 1146 q 272 1118 272 1129 q 267 1101 272 1107 q 253 1092 261 1094 q 237 1087 246 1089 q 221 1082 228 1085 q 194 1049 203 1074 q 181 993 185 1024 q 176 933 176 963 q 175 886 175 903 q 176 780 175 833 q 178 674 178 726 q 176 597 178 639 q 167 515 175 556 q 142 438 158 474 q 96 378 125 401 q 141 319 125 354 q 165 242 157 283 q 174 160 172 201 q 175 86 175 119 q 174 -29 175 28 q 172 -144 172 -86 q 173 -189 172 -161 q 178 -245 174 -217 q 192 -297 182 -274 q 219 -329 201 -321 q 235 -333 226 -332 q 253 -338 244 -335 q 267 -347 261 -342 q 272 -364 272 -353 z "},"|":{"ha":242,"x_min":93,"x_max":150,"o":"m 150 10 q 141 -10 150 -1 q 121 -18 132 -18 q 101 -10 110 -18 q 93 10 93 -1 l 93 997 q 101 1017 93 1008 q 121 1025 110 1025 q 141 1017 132 1025 q 150 997 150 1008 l 150 10 z "},"}":{"ha":333,"x_min":63,"x_max":344,"o":"m 344 378 q 338 362 344 368 q 320 351 331 356 q 299 344 310 347 q 282 339 289 342 q 244 295 257 328 q 224 224 231 263 q 217 146 218 185 q 217 83 217 107 q 218 -26 217 29 q 219 -135 219 -81 q 216 -211 219 -167 q 199 -296 213 -256 q 160 -364 186 -336 q 90 -392 135 -392 q 71 -383 79 -392 q 63 -364 63 -375 q 68 -347 63 -353 q 81 -338 74 -342 q 98 -333 89 -335 q 114 -329 107 -332 q 140 -298 131 -321 q 155 -247 150 -275 q 160 -191 160 -218 q 161 -147 161 -164 q 160 -32 161 -89 q 160 83 160 25 q 161 160 160 118 q 170 242 163 201 q 194 318 178 282 q 239 378 210 354 q 193 438 210 401 q 168 515 176 474 q 158 599 160 557 q 157 676 157 642 q 158 786 157 732 q 160 896 160 840 q 159 940 160 913 q 154 997 158 968 q 140 1050 150 1026 q 114 1082 131 1074 q 98 1088 107 1086 q 81 1092 89 1089 q 68 1101 74 1096 q 63 1118 63 1107 q 71 1138 63 1129 q 90 1146 79 1146 q 160 1117 135 1146 q 197 1049 185 1089 q 213 965 210 1008 q 217 889 217 921 q 216 781 217 835 q 215 672 215 726 q 216 610 215 649 q 223 531 217 571 q 243 459 229 492 q 282 415 257 426 q 300 410 289 413 q 321 403 311 407 q 338 394 331 400 q 344 378 344 389 z "},"~":{"ha":800,"x_min":56,"x_max":521,"o":"m 521 756 q 506 723 521 738 q 472 698 492 708 q 431 681 453 688 q 394 675 410 675 q 326 690 357 675 q 267 721 294 704 q 216 752 240 738 q 168 767 192 767 q 140 757 151 767 q 121 735 129 747 q 105 713 113 722 q 85 703 97 703 q 65 710 74 703 q 56 728 56 717 q 57 738 56 735 q 101 794 72 771 q 168 817 131 817 q 231 802 203 817 q 285 771 258 788 q 338 740 311 754 q 394 725 364 725 q 436 737 418 725 q 465 768 454 749 q 490 782 474 782 q 511 775 501 782 q 521 756 521 768 z "},"":{"ha":1086,"x_min":32,"x_max":1056,"o":"m 1056 217 q 1050 201 1056 210 q 972 108 1017 150 q 875 38 928 67 q 764 -8 822 8 q 644 -24 706 -24 q 462 13 546 -24 q 313 111 378 49 q 206 257 249 174 q 147 433 163 340 q 118 428 132 431 q 89 425 104 425 q 61 431 74 425 q 49 454 49 436 q 56 473 49 465 q 74 482 63 481 l 140 489 q 139 510 139 500 q 139 531 139 519 q 139 564 139 547 q 142 596 139 581 q 101 590 122 593 q 60 588 79 588 q 40 595 49 588 q 32 615 32 603 q 39 634 32 626 q 57 643 46 642 l 151 653 q 215 822 171 743 q 323 958 258 900 q 469 1049 388 1015 q 646 1082 551 1082 q 735 1073 689 1082 q 824 1047 781 1064 q 908 1004 868 1029 q 976 947 947 979 q 986 929 986 938 q 977 908 986 918 q 957 899 968 899 q 938 907 949 899 q 869 957 901 935 q 803 994 838 979 q 731 1018 769 1010 q 646 1026 693 1026 q 493 998 564 1026 q 366 920 422 969 q 271 804 310 871 q 213 660 232 738 l 771 722 l 775 722 q 795 715 786 722 q 804 694 804 707 q 797 676 804 683 q 778 667 789 668 l 201 601 q 197 566 199 583 q 196 531 196 549 q 196 513 196 522 q 197 496 196 504 l 789 561 l 793 561 q 813 553 804 561 q 822 533 822 546 q 815 515 822 522 q 796 506 807 507 l 204 440 q 256 283 218 357 q 351 153 293 210 q 483 65 408 97 q 644 32 557 32 q 832 76 744 32 q 979 201 919 121 q 991 218 986 210 q 1003 233 996 226 q 1026 244 1011 244 q 1047 236 1038 244 q 1056 217 1056 228 z "},"":{"ha":157,"x_min":6,"x_max":118,"o":"m 118 943 q 110 924 118 938 q 91 894 101 911 q 72 857 81 876 q 63 821 63 838 q 67 800 63 811 q 78 780 72 789 q 88 763 83 771 q 93 751 93 756 q 83 733 93 740 q 63 725 74 725 q 40 736 50 725 q 22 763 29 747 q 10 795 14 779 q 6 821 6 811 q 13 857 6 832 q 33 907 21 882 q 60 951 46 932 q 88 971 75 971 q 108 963 99 971 q 118 943 118 954 z "},"":{"ha":531,"x_min":24,"x_max":486,"o":"m 486 44 q 465 6 486 21 q 422 -8 444 -8 q 380 6 400 -8 q 360 44 360 21 q 380 83 360 68 q 422 97 400 97 q 465 83 444 97 q 486 44 486 68 m 322 44 q 301 6 322 21 q 258 -8 281 -8 q 215 6 236 -8 q 194 44 194 19 q 215 83 194 69 q 258 97 236 97 q 301 83 281 97 q 322 44 322 68 m 150 44 q 129 6 150 21 q 86 -8 108 -8 q 44 6 64 -8 q 24 44 24 21 q 44 83 24 68 q 86 97 64 97 q 129 83 108 97 q 150 44 150 68 z "},"":{"ha":800,"x_min":207,"x_max":514,"o":"m 514 651 q 505 633 514 640 q 485 626 496 626 q 458 641 476 626 q 421 675 440 656 q 385 713 401 694 q 361 739 368 731 q 337 713 354 732 q 299 675 319 694 q 261 641 279 656 q 235 626 243 626 q 215 633 224 626 q 207 651 207 640 q 224 679 207 664 q 249 701 240 694 q 280 732 265 717 q 308 764 294 747 q 331 791 317 775 q 361 807 346 807 q 379 800 369 807 q 410 767 397 785 q 439 732 424 749 q 472 700 454 715 q 506 667 490 685 q 514 651 514 658 z "},"":{"ha":657,"x_min":138,"x_max":396,"o":"m 396 224 q 386 204 396 213 q 365 196 376 196 q 343 208 353 196 l 142 471 q 138 478 139 474 q 138 488 138 483 q 138 497 138 492 q 142 504 139 501 l 343 767 q 365 778 351 778 q 386 769 376 778 q 396 750 396 761 q 394 742 396 746 q 389 735 392 738 l 199 488 l 389 242 q 396 224 396 232 z "},"":{"ha":1463,"x_min":-28,"x_max":1425,"o":"m 1425 263 q 1401 151 1425 203 q 1339 60 1378 99 q 1252 1 1300 22 q 1154 -21 1204 -21 q 1035 6 1090 -21 q 936 77 981 32 q 860 182 892 122 q 811 308 828 242 q 747 176 785 236 q 660 73 708 117 q 551 4 611 29 q 421 -21 492 -21 q 222 33 307 -21 q 82 177 138 88 q -1 381 26 267 q -28 611 -28 494 q -15 783 -28 697 q 26 946 -3 869 q 103 1087 56 1022 q 219 1197 150 1151 q 235 1201 226 1201 q 253 1191 246 1201 q 261 1168 261 1181 q 247 1140 261 1151 q 210 1113 229 1126 q 175 1082 192 1099 q 104 983 132 1039 q 60 865 76 928 q 36 738 43 803 q 29 611 29 674 q 52 406 29 508 q 123 224 75 304 q 244 94 171 144 q 419 43 318 43 q 583 93 511 43 q 706 222 656 143 q 782 399 756 301 q 808 592 808 496 q 802 712 808 653 q 781 829 796 771 q 740 952 767 890 q 674 1065 713 1014 q 586 1149 636 1117 q 475 1182 536 1182 q 384 1161 424 1182 q 318 1103 344 1140 q 278 1017 292 1067 q 265 913 265 968 q 281 860 265 885 q 322 836 297 836 q 349 849 339 836 q 366 881 360 863 q 375 919 372 899 q 378 954 378 939 q 387 977 378 968 q 407 986 396 986 q 426 977 418 986 q 435 954 435 968 q 428 894 435 925 q 408 835 421 863 q 373 790 394 808 q 322 772 351 772 q 276 785 297 772 q 240 816 256 797 q 217 860 225 835 q 208 913 208 885 q 226 1043 208 982 q 277 1150 243 1104 q 361 1222 311 1196 q 475 1249 411 1249 q 635 1194 565 1249 q 752 1058 704 1140 q 828 878 800 976 q 864 692 856 781 q 975 799 907 758 q 946 863 957 825 q 888 881 915 864 q 840 924 861 897 q 808 984 819 950 q 796 1051 796 1018 q 810 1136 796 1097 q 849 1203 824 1175 q 908 1247 874 1231 q 981 1263 942 1263 q 1001 1253 992 1263 q 1010 1231 1010 1244 q 1001 1208 1010 1217 q 981 1199 992 1199 q 888 1158 924 1199 q 853 1051 853 1117 q 876 974 853 1010 q 935 931 899 939 q 934 947 933 939 q 935 964 935 956 q 961 1085 935 1031 q 1031 1180 988 1140 q 1127 1241 1074 1219 q 1235 1263 1181 1263 q 1332 1226 1294 1263 q 1369 1117 1369 1189 q 1331 1001 1369 1049 q 1235 924 1292 954 q 1117 880 1179 894 q 1008 863 1054 865 q 1029 824 1017 842 q 1089 842 1058 835 q 1150 849 1119 849 q 1182 844 1164 849 q 1216 831 1200 840 q 1243 808 1232 822 q 1254 775 1254 793 q 1244 735 1254 751 q 1219 706 1235 718 q 1185 689 1203 694 q 1150 683 1167 683 q 1080 701 1110 683 q 1018 746 1050 718 q 898 627 943 704 q 853 453 853 550 q 874 306 853 379 q 933 174 894 232 q 1028 79 972 115 q 1154 43 1083 43 q 1230 60 1192 43 q 1299 107 1268 76 q 1349 178 1329 138 q 1368 263 1368 218 q 1350 319 1368 293 q 1304 346 1332 346 q 1263 336 1274 346 q 1247 315 1251 326 q 1240 294 1243 304 q 1222 285 1236 285 q 1198 299 1207 285 q 1189 329 1189 314 q 1202 364 1189 349 q 1233 390 1215 379 q 1271 405 1251 400 q 1304 410 1290 410 q 1351 398 1329 410 q 1390 365 1374 386 q 1416 318 1407 344 q 1425 263 1425 292 m 1313 1117 q 1292 1179 1313 1160 q 1235 1199 1271 1199 q 1142 1177 1186 1199 q 1064 1118 1099 1156 q 1009 1032 1025 1076 q 993 926 993 988 q 1081 938 1026 928 q 1186 971 1135 949 q 1275 1028 1238 993 q 1313 1117 1313 1064 m 1192 771 q 1186 777 1192 775 q 1174 781 1181 779 q 1160 782 1167 782 q 1150 782 1153 782 q 1117 779 1133 782 q 1083 772 1100 776 q 1114 755 1094 760 q 1149 750 1133 750 q 1174 753 1157 750 q 1192 771 1192 757 z "},"":{"ha":157,"x_min":6,"x_max":118,"o":"m 118 943 q 110 924 118 938 q 91 894 101 911 q 72 857 81 876 q 63 821 63 838 q 67 800 63 811 q 78 780 72 789 q 88 763 83 771 q 93 751 93 756 q 83 733 93 740 q 63 725 74 725 q 40 736 50 725 q 22 763 29 747 q 10 795 14 779 q 6 821 6 811 q 13 857 6 832 q 33 907 21 882 q 60 951 46 932 q 88 971 75 971 q 108 963 99 971 q 118 943 118 954 z "},"":{"ha":275,"x_min":35,"x_max":147,"o":"m 147 869 q 139 833 147 858 q 118 783 131 808 q 91 739 106 758 q 64 719 76 719 q 44 727 53 719 q 35 746 35 735 q 44 765 35 751 q 63 797 53 779 q 82 833 74 814 q 90 869 90 853 q 85 891 90 881 q 75 910 81 901 q 65 927 69 919 q 60 939 60 935 q 69 958 60 950 q 89 967 78 967 q 112 955 101 967 q 130 928 122 943 q 142 896 138 913 q 147 869 147 879 z "},"":{"ha":311,"x_min":29,"x_max":239,"o":"m 239 944 q 230 925 239 939 q 210 893 221 911 q 191 856 200 875 q 182 819 182 836 q 187 799 182 810 q 197 778 192 788 q 208 762 203 769 q 213 750 213 754 q 203 731 213 739 q 183 724 194 724 q 160 735 171 724 q 142 762 150 746 q 130 794 135 778 q 125 819 125 810 q 133 856 125 831 q 154 906 142 881 q 181 951 167 932 q 208 971 196 971 q 229 963 219 971 q 239 944 239 956 m 142 944 q 133 925 142 939 q 115 893 125 911 q 95 856 104 875 q 86 819 86 836 q 91 798 86 808 q 102 778 96 788 q 113 762 108 769 q 118 750 118 754 q 108 731 118 739 q 88 724 99 724 q 65 735 75 724 q 47 762 54 746 q 34 794 39 778 q 29 819 29 810 q 37 856 29 831 q 57 906 44 881 q 84 951 69 932 q 111 971 99 971 q 132 963 122 971 q 142 944 142 956 z "},"":{"ha":265,"x_min":21,"x_max":231,"o":"m 231 878 q 222 842 231 867 q 201 791 214 817 q 174 746 189 765 q 147 726 160 726 q 127 735 136 726 q 118 754 118 743 q 127 774 118 760 q 147 805 136 788 q 165 842 157 822 q 174 878 174 861 q 169 899 174 889 q 158 919 164 910 q 148 935 153 928 q 143 947 143 943 q 151 966 143 958 q 171 974 160 974 q 194 963 183 974 q 213 935 204 951 q 226 903 221 919 q 231 878 231 888 m 133 878 q 125 842 133 867 q 104 791 117 817 q 77 746 92 765 q 50 726 63 726 q 30 735 39 726 q 21 754 21 743 q 30 774 21 760 q 49 805 39 788 q 68 842 60 822 q 76 878 76 861 q 72 899 76 889 q 61 919 67 910 q 51 935 56 928 q 46 947 46 943 q 55 966 46 958 q 75 974 64 974 q 98 963 88 974 q 116 935 108 951 q 128 903 124 919 q 133 878 133 888 z "},"":{"ha":658,"x_min":75,"x_max":585,"o":"m 585 239 q 576 219 585 228 q 556 211 568 211 l 103 211 q 83 219 92 211 q 75 239 75 228 q 83 260 75 251 q 103 268 92 268 l 556 268 q 576 260 567 268 q 585 239 585 251 z "},"":{"ha":989,"x_min":171,"x_max":818,"o":"m 818 239 q 810 219 818 226 q 789 211 801 211 l 199 211 q 179 219 188 211 q 171 239 171 228 q 179 260 171 251 q 199 268 188 268 l 789 268 q 809 260 800 268 q 818 239 818 251 z "},"":{"ha":800,"x_min":56,"x_max":521,"o":"m 521 756 q 506 723 521 738 q 472 698 492 708 q 431 681 453 688 q 394 675 410 675 q 326 690 357 675 q 267 721 294 704 q 216 752 240 738 q 168 767 192 767 q 140 757 151 767 q 121 735 129 747 q 105 713 113 722 q 85 703 97 703 q 65 710 74 703 q 56 728 56 717 q 57 738 56 735 q 101 794 72 771 q 168 817 131 817 q 231 802 203 817 q 285 771 258 788 q 338 740 311 754 q 394 725 364 725 q 436 737 418 725 q 465 768 454 749 q 490 782 474 782 q 511 775 501 782 q 521 756 521 768 z "},"":{"ha":657,"x_min":263,"x_max":522,"o":"m 522 492 q 517 476 522 485 l 314 213 q 292 201 306 201 q 272 210 281 201 q 263 229 263 218 q 268 246 263 240 l 458 492 l 268 739 q 263 756 263 744 q 272 775 263 767 q 292 783 281 783 q 314 772 306 783 l 517 508 q 522 492 522 503 z "},"":{"ha":904,"x_min":-28,"x_max":933,"o":"m 933 215 q 931 203 933 211 q 800 40 883 99 q 601 -18 717 -18 q 485 15 539 -18 q 401 103 432 47 q 317 15 371 47 q 200 -18 264 -18 q 111 1 153 -18 q 38 51 69 19 q -10 124 7 82 q -28 214 -28 167 q -10 303 -28 261 q 38 378 7 346 q 111 428 69 410 q 200 447 153 447 q 317 415 264 447 q 401 325 371 382 q 503 417 438 388 q 638 447 568 447 q 697 438 665 447 q 757 412 729 429 q 803 369 785 394 q 821 313 821 344 q 798 243 821 272 q 740 194 775 214 q 666 165 706 175 q 593 156 626 156 q 514 159 553 156 q 436 172 475 163 q 495 75 450 114 q 601 36 540 36 q 738 67 676 36 q 840 161 799 99 q 860 194 851 176 q 879 228 868 213 q 903 242 889 242 q 924 234 914 242 q 933 215 933 226 m 764 313 q 750 347 764 332 q 717 372 736 361 q 675 388 697 382 q 638 393 653 393 q 565 383 600 393 q 501 353 529 372 q 455 303 474 333 q 432 233 436 274 q 512 216 471 221 q 593 211 553 211 q 643 217 614 211 q 699 235 672 222 q 745 267 726 247 q 764 313 764 286 m 394 217 l 374 217 l 372 214 l 372 213 l 374 211 l 394 213 l 394 217 m 374 214 q 360 283 374 250 q 324 340 347 315 q 269 378 300 364 q 200 393 238 393 q 133 378 164 393 q 78 339 101 364 q 42 282 56 314 q 29 214 29 250 q 42 147 29 179 q 78 90 56 114 q 133 51 101 65 q 200 36 164 36 q 268 51 236 36 q 324 90 300 65 q 360 146 347 114 q 374 214 374 178 z "},"":{"ha":500,"x_min":49,"x_max":329,"o":"m 329 621 q 311 578 329 596 q 268 561 293 561 q 224 578 243 561 q 206 621 206 596 q 224 663 206 646 q 268 681 243 681 q 311 663 293 681 q 329 621 329 646 m 174 621 q 156 578 174 596 q 113 561 138 561 q 68 578 88 561 q 49 621 49 596 q 68 663 49 646 q 113 681 88 681 q 156 663 138 681 q 174 621 174 646 z "},"":{"ha":333,"x_min":69,"x_max":288,"o":"m 288 856 q 253 783 288 811 q 178 756 219 756 q 103 783 136 756 q 69 856 69 811 q 103 927 69 900 q 178 954 136 954 q 253 927 219 954 q 288 856 288 900 m 231 856 q 214 890 231 876 q 178 903 197 903 q 142 890 158 903 q 126 856 126 876 q 142 821 126 835 q 178 807 158 807 q 214 821 197 807 q 231 856 231 835 z "},"":{"ha":658,"x_min":119,"x_max":574,"o":"m 574 14 q 565 -6 574 3 q 544 -14 556 -14 q 522 -4 531 -14 l 319 235 q 314 251 314 240 q 319 269 314 263 l 522 511 q 544 521 531 521 q 565 513 556 521 q 574 493 574 504 q 567 475 574 485 l 379 251 l 567 31 q 574 14 574 24 m 379 14 q 370 -6 379 3 q 350 -14 361 -14 q 328 -4 336 -14 l 125 235 q 119 251 119 240 q 125 269 119 263 l 328 511 q 350 521 336 521 q 370 513 361 521 q 379 493 379 504 q 372 475 379 485 l 185 251 l 372 31 q 379 14 379 24 z "},"":{"ha":989,"x_min":171,"x_max":818,"o":"m 818 239 q 810 219 818 226 q 789 211 801 211 l 199 211 q 179 219 188 211 q 171 239 171 228 q 179 260 171 251 q 199 268 188 268 l 789 268 q 809 260 800 268 q 818 239 818 251 z "},"":{"ha":333,"x_min":69,"x_max":288,"o":"m 288 856 q 253 783 288 811 q 178 756 219 756 q 103 783 136 756 q 69 856 69 811 q 103 927 69 900 q 178 954 136 954 q 253 927 219 954 q 288 856 288 900 m 231 856 q 214 890 231 876 q 178 903 197 903 q 142 890 158 903 q 126 856 126 876 q 142 821 126 835 q 178 807 158 807 q 214 821 197 807 q 231 856 231 835 z "},"":{"ha":275,"x_min":35,"x_max":147,"o":"m 147 869 q 139 833 147 858 q 118 783 131 808 q 91 739 106 758 q 64 719 76 719 q 44 727 53 719 q 35 746 35 735 q 44 765 35 751 q 63 797 53 779 q 82 833 74 814 q 90 869 90 853 q 85 891 90 881 q 75 910 81 901 q 65 927 69 919 q 60 939 60 935 q 69 958 60 950 q 89 967 78 967 q 112 955 101 967 q 130 928 122 943 q 142 896 138 913 q 147 869 147 879 z "},"":{"ha":518,"x_min":169,"x_max":418,"o":"m 418 -200 q 406 -237 418 -221 q 376 -263 394 -253 q 338 -278 358 -274 q 299 -283 317 -283 q 262 -281 281 -283 q 225 -271 243 -278 q 193 -252 207 -264 q 171 -222 179 -240 q 169 -214 169 -219 q 178 -195 169 -203 q 199 -187 188 -187 q 215 -194 210 -187 q 229 -209 221 -201 q 253 -224 238 -217 q 299 -231 269 -231 q 316 -229 306 -231 q 336 -224 326 -228 q 353 -215 346 -221 q 361 -200 361 -208 q 353 -183 361 -192 q 335 -167 346 -174 q 312 -155 324 -160 q 292 -150 300 -150 q 274 -155 283 -150 q 253 -160 264 -160 q 231 -139 231 -160 q 232 -128 231 -132 q 244 -7 244 -69 q 253 12 244 4 q 274 19 263 19 q 294 12 285 19 q 303 -7 303 4 q 301 -51 303 -29 q 296 -96 299 -74 q 337 -106 315 -97 q 376 -128 358 -114 q 406 -160 394 -142 q 418 -200 418 -179 z "},"":{"ha":694,"x_min":0,"x_max":0,"o":""},"":{"ha":658,"x_min":122,"x_max":576,"o":"m 576 251 q 569 235 576 242 l 367 -4 q 344 -14 358 -14 q 325 -6 333 -14 q 317 14 317 3 q 322 31 317 25 l 510 251 l 322 475 q 317 493 317 482 q 325 513 317 504 q 344 521 333 521 q 367 511 358 521 l 569 269 q 576 251 576 260 m 382 251 q 375 235 382 242 l 172 -4 q 150 -14 164 -14 q 131 -6 139 -14 q 122 14 122 3 q 128 31 122 25 l 315 251 l 128 475 q 122 493 122 482 q 131 513 122 504 q 150 521 139 521 q 172 511 164 521 l 375 269 q 382 251 382 260 z "},"":{"ha":1018,"x_min":-28,"x_max":974,"o":"m 575 1201 q 547 1140 575 1164 q 482 1115 518 1115 q 417 1140 446 1115 q 389 1201 389 1164 q 417 1263 389 1239 q 482 1286 446 1286 q 547 1263 518 1286 q 575 1201 575 1239 m 974 228 q 956 133 974 178 q 906 56 938 89 q 831 2 875 22 q 738 -18 788 -18 q 617 23 661 -18 q 552 124 574 64 q 525 254 531 185 q 519 381 519 324 q 522 462 519 421 q 528 543 525 503 q 459 562 493 551 q 389 579 425 572 q 390 460 389 525 q 385 328 390 394 q 366 199 381 261 q 320 89 351 138 q 238 11 289 40 q 107 -18 186 -18 q 63 -12 86 -18 q 19 4 39 -7 q -15 33 -1 15 q -28 75 -28 50 q -2 133 -28 110 q 57 156 24 156 q 85 128 85 156 q 76 107 85 113 q 58 99 68 101 q 38 92 47 96 q 29 75 29 88 q 38 56 29 64 q 60 44 47 49 q 85 39 72 40 q 107 38 99 38 q 233 78 188 38 q 300 178 278 118 q 327 308 322 238 q 332 438 332 378 l 332 586 q 326 587 329 586 q 318 588 322 588 q 285 582 300 588 q 258 570 269 576 q 239 558 247 564 q 224 553 231 553 q 203 561 213 553 q 194 581 194 569 q 198 593 194 588 q 206 603 201 599 q 264 636 232 626 q 332 643 296 646 q 335 747 332 696 q 338 850 338 797 q 344 926 338 883 q 369 1005 351 968 q 415 1067 386 1042 q 485 1093 443 1093 q 553 1066 529 1093 q 588 1000 576 1039 q 601 919 599 961 q 603 844 603 876 q 598 716 603 779 q 588 589 593 653 q 607 587 597 588 q 626 586 617 586 q 659 594 644 586 q 685 612 674 603 q 706 629 696 621 q 725 638 715 638 q 744 628 736 638 q 753 608 753 619 q 744 589 753 597 q 691 548 721 565 q 626 531 661 531 q 604 531 615 531 q 582 533 593 532 q 578 452 579 493 q 576 371 576 411 q 579 272 576 329 q 597 162 582 214 q 645 74 613 110 q 738 38 678 38 q 809 53 776 38 q 866 95 842 69 q 903 156 890 121 q 917 228 917 190 q 899 277 917 254 q 854 300 882 300 q 828 290 835 300 q 818 269 821 281 q 810 249 815 258 q 789 239 806 239 q 769 247 778 239 q 760 267 760 254 q 788 331 760 306 q 854 356 817 356 q 902 345 881 356 q 940 317 924 335 q 965 276 956 299 q 974 228 974 253 m 529 1201 q 515 1233 529 1221 q 482 1244 500 1244 q 450 1233 464 1244 q 436 1201 436 1221 q 449 1169 436 1182 q 482 1157 463 1157 q 515 1169 501 1157 q 529 1201 529 1182 m 546 857 q 545 902 546 872 q 539 962 544 932 q 521 1014 533 992 q 485 1036 508 1036 q 440 1015 457 1036 q 412 963 422 993 q 398 902 401 933 q 394 850 394 871 q 392 743 394 797 q 389 636 389 689 q 460 619 425 629 q 532 600 496 608 q 542 728 538 665 q 546 857 546 792 z "},"":{"ha":1018,"x_min":-28,"x_max":974,"o":"m 625 1174 q 607 1130 625 1149 q 564 1111 589 1111 q 520 1130 539 1111 q 501 1174 501 1149 q 520 1217 501 1199 q 564 1235 539 1235 q 607 1217 589 1235 q 625 1174 625 1199 m 469 1174 q 451 1130 469 1149 q 408 1111 433 1111 q 364 1130 383 1111 q 344 1174 344 1149 q 364 1217 344 1199 q 408 1235 383 1235 q 451 1217 433 1235 q 469 1174 469 1199 m 974 229 q 956 135 974 179 q 906 56 938 90 q 831 2 875 22 q 738 -18 788 -18 q 617 23 661 -18 q 552 125 574 64 q 525 256 531 186 q 519 382 519 325 q 522 463 519 422 q 528 544 525 504 q 459 563 493 553 q 389 581 425 574 q 390 461 389 526 q 385 329 390 396 q 366 200 381 263 q 320 89 351 138 q 238 11 289 40 q 107 -18 186 -18 q 63 -12 86 -18 q 19 4 39 -7 q -15 33 -1 15 q -28 75 -28 50 q -2 133 -28 110 q 57 156 24 156 q 85 128 85 156 q 76 107 85 113 q 58 99 68 101 q 38 92 47 96 q 29 75 29 88 q 38 56 29 64 q 60 44 47 49 q 85 39 72 40 q 107 38 99 38 q 233 78 188 38 q 300 178 278 118 q 327 309 322 239 q 332 439 332 379 l 332 588 q 326 588 329 588 q 318 589 322 589 q 285 583 300 589 q 258 572 269 578 q 239 560 247 565 q 224 554 231 554 q 203 563 213 554 q 194 582 194 571 q 198 594 194 589 q 206 604 201 600 q 264 638 232 628 q 332 644 296 647 q 335 748 332 697 q 338 851 338 799 q 344 927 338 885 q 369 1007 351 969 q 415 1070 386 1044 q 485 1096 443 1096 q 553 1069 529 1096 q 588 1002 576 1042 q 601 920 599 963 q 603 846 603 878 q 598 717 603 781 q 588 590 593 654 q 607 588 597 589 q 626 588 617 588 q 659 596 644 588 q 685 613 674 604 q 706 631 696 622 q 725 639 715 639 q 744 630 736 639 q 753 610 753 621 q 744 590 753 599 q 691 549 721 567 q 626 531 661 531 q 604 531 615 531 q 582 533 593 532 q 578 453 579 493 q 576 372 576 413 q 579 273 576 331 q 597 163 582 215 q 645 74 613 111 q 738 38 678 38 q 809 53 776 38 q 866 96 842 69 q 903 157 890 122 q 917 229 917 192 q 899 278 917 256 q 854 300 882 300 q 828 290 835 300 q 818 269 821 281 q 810 249 815 258 q 789 239 806 239 q 769 247 778 239 q 760 267 760 254 q 788 331 760 306 q 854 357 817 357 q 902 347 881 357 q 940 318 924 336 q 965 277 956 300 q 974 229 974 254 m 546 858 q 545 903 546 874 q 539 963 544 933 q 521 1015 533 993 q 485 1038 508 1038 q 440 1016 457 1038 q 412 965 422 994 q 398 903 401 935 q 394 851 394 872 q 392 745 394 799 q 389 638 389 692 q 460 619 425 631 q 532 600 496 608 q 542 729 538 665 q 546 858 546 793 z "},"":{"ha":1083,"x_min":-28,"x_max":1039,"o":"m 671 1132 q 663 1113 671 1121 q 643 1104 654 1104 q 614 1124 633 1104 q 575 1168 594 1144 q 540 1213 556 1192 q 519 1235 524 1233 q 497 1205 515 1226 q 458 1161 479 1183 q 419 1122 438 1139 q 393 1104 400 1104 q 373 1113 382 1104 q 364 1132 364 1121 q 380 1162 364 1146 q 406 1186 396 1178 q 437 1219 422 1201 q 465 1256 451 1236 q 489 1285 474 1267 q 519 1303 504 1303 q 538 1294 526 1303 q 568 1258 556 1278 q 596 1219 581 1238 q 630 1184 611 1200 q 664 1149 649 1168 q 671 1132 671 1142 m 1039 222 q 1035 208 1039 215 q 993 128 1015 168 q 941 55 971 88 q 873 2 911 22 q 783 -18 835 -18 q 663 24 707 -18 q 598 126 619 65 q 571 256 576 186 q 565 382 565 326 q 567 445 565 414 q 571 508 568 476 q 506 526 539 517 q 442 542 474 535 l 442 379 q 435 238 442 308 q 403 110 429 167 q 326 17 378 53 q 185 -18 275 -18 q 101 -1 140 -18 q 34 44 63 15 q -11 111 6 72 q -28 194 -28 150 q -15 258 -28 228 q 20 310 -1 288 q 72 345 42 332 q 135 358 101 358 q 178 351 157 358 q 215 328 199 343 q 242 294 232 314 q 251 251 251 275 q 243 232 251 240 q 224 224 235 224 q 206 228 211 224 q 199 238 201 232 q 196 252 197 244 q 192 267 194 260 q 135 301 175 301 q 60 269 90 301 q 29 194 29 238 q 41 133 29 161 q 74 83 53 104 q 123 50 94 63 q 185 38 151 38 q 263 49 231 38 q 316 81 294 60 q 351 135 338 103 q 372 211 364 168 q 383 295 381 253 q 385 379 385 338 l 385 550 q 378 551 382 550 q 372 551 375 551 q 341 546 357 551 q 310 533 325 540 q 285 521 296 526 q 269 515 274 515 q 249 524 258 515 q 240 544 240 533 q 250 565 240 556 q 313 598 276 589 q 385 606 350 607 q 384 729 385 668 q 383 853 383 790 q 390 928 383 886 q 414 1008 397 971 q 459 1070 431 1044 q 531 1096 488 1096 q 599 1069 575 1096 q 633 1003 622 1042 q 647 922 644 964 q 649 847 649 879 q 643 699 649 772 q 632 551 638 626 q 651 550 643 550 q 672 550 661 550 q 704 558 690 550 q 730 575 718 565 q 752 592 742 585 q 771 600 763 600 q 790 592 782 600 q 799 572 799 583 q 790 553 799 564 q 737 510 768 529 q 672 492 706 492 q 626 496 650 492 q 622 372 622 433 q 625 273 622 331 q 643 163 628 215 q 691 74 658 111 q 783 38 724 38 q 876 71 840 38 q 936 144 913 104 q 976 217 960 183 q 1011 250 993 250 q 1031 242 1022 250 q 1039 222 1039 233 m 592 860 q 591 906 592 876 q 585 965 590 936 q 567 1017 579 994 q 531 1039 554 1039 q 485 1017 503 1039 q 458 966 468 996 q 444 905 447 936 q 440 853 440 874 q 441 726 440 789 q 442 599 442 663 q 508 581 475 592 q 575 563 542 571 q 587 711 582 638 q 592 860 592 785 z "},"":{"ha":724,"x_min":-28,"x_max":686,"o":"m 558 1132 q 550 1113 558 1121 q 531 1104 542 1104 q 501 1124 521 1104 q 463 1168 482 1144 q 427 1213 443 1192 q 407 1235 411 1233 q 385 1205 403 1226 q 346 1161 367 1183 q 306 1122 325 1139 q 281 1104 288 1104 q 260 1113 269 1104 q 251 1132 251 1121 q 267 1162 251 1146 q 293 1186 283 1178 q 324 1219 310 1201 q 353 1256 339 1236 q 376 1285 361 1267 q 407 1303 392 1303 q 425 1294 414 1303 q 456 1258 443 1278 q 483 1219 468 1238 q 517 1184 499 1200 q 551 1149 536 1168 q 558 1132 558 1142 m 686 228 q 663 131 686 176 q 601 53 639 86 q 515 1 563 19 q 417 -18 467 -18 q 268 17 335 -18 q 154 111 201 53 q 81 243 107 169 q 56 393 56 317 q 103 569 56 489 q 239 692 151 649 q 222 719 229 706 q 208 749 214 733 q 133 762 175 751 q 56 792 92 772 q -3 841 21 811 q -28 913 -28 871 q 1 988 -28 954 q 73 1046 31 1022 q 162 1083 115 1069 q 243 1096 208 1096 q 263 1088 254 1096 q 271 1068 271 1081 q 263 1048 271 1056 q 243 1040 254 1040 q 185 1031 221 1040 q 114 1003 149 1021 q 54 963 79 986 q 29 913 29 940 q 48 866 29 885 q 92 835 67 847 q 147 816 118 822 q 197 807 176 810 q 196 821 196 814 q 196 836 196 829 q 224 936 196 889 q 297 1019 253 983 q 395 1075 342 1054 q 497 1096 449 1096 q 594 1064 557 1096 q 631 969 631 1032 q 592 869 631 910 q 497 802 553 828 q 378 764 440 776 q 269 749 315 751 q 290 715 278 731 q 350 731 319 725 q 411 736 381 736 q 443 733 425 736 q 477 722 461 729 q 504 701 493 714 q 515 672 515 689 q 506 638 515 653 q 480 614 496 624 q 446 599 464 604 q 411 594 428 594 q 341 609 375 594 q 279 647 307 624 q 158 544 203 613 q 113 393 113 476 q 134 265 113 329 q 195 151 156 201 q 291 69 235 100 q 417 38 347 38 q 492 52 454 38 q 560 93 531 67 q 610 154 590 119 q 629 228 629 189 q 612 277 629 254 q 567 300 594 300 q 525 292 536 300 q 510 274 514 283 q 503 256 506 264 q 485 247 500 247 q 460 260 469 247 q 450 286 450 272 q 463 316 450 303 q 495 338 476 329 q 533 351 514 347 q 567 356 553 356 q 614 345 592 356 q 652 317 636 335 q 677 276 668 299 q 686 228 686 253 m 574 969 q 553 1024 574 1007 q 497 1040 533 1040 q 431 1030 464 1040 q 369 1001 399 1019 q 315 958 339 982 q 274 904 290 933 q 259 872 265 889 q 253 836 253 856 q 253 819 253 828 q 254 804 253 813 q 342 815 288 806 q 447 843 396 824 q 536 893 499 863 q 574 969 574 924 m 453 669 q 447 674 453 672 q 435 678 442 676 q 421 679 428 679 q 413 679 415 679 q 379 676 396 679 q 346 671 363 674 q 376 656 357 660 q 411 651 396 651 q 435 655 418 651 q 453 669 453 658 z "},"":{"ha":800,"x_min":-28,"x_max":706,"o":"m 706 215 q 684 124 706 165 q 628 51 663 82 q 549 2 593 21 q 457 -21 504 -17 q 453 -86 457 -53 q 494 -97 472 -87 q 533 -120 515 -106 q 563 -153 551 -135 q 575 -194 575 -172 q 563 -233 575 -217 q 534 -261 551 -250 q 496 -278 517 -272 q 456 -283 475 -283 q 381 -270 418 -283 q 328 -219 344 -257 q 326 -208 326 -217 q 335 -190 326 -197 q 354 -182 343 -182 q 372 -189 367 -182 q 385 -205 376 -196 q 408 -221 393 -214 q 456 -228 424 -228 q 473 -226 463 -228 q 494 -219 483 -224 q 511 -209 504 -215 q 518 -194 518 -203 q 510 -176 518 -186 q 492 -160 503 -167 q 469 -148 481 -153 q 449 -143 457 -143 q 432 -149 440 -143 q 413 -154 424 -154 q 394 -147 401 -154 q 388 -128 388 -139 q 389 -119 388 -122 q 397 -71 396 -96 q 400 -21 399 -46 q 263 27 324 -12 q 161 126 203 67 q 98 256 119 185 q 76 399 76 328 q 81 503 76 451 q 96 607 85 556 q 3 706 33 643 q -28 839 -28 768 q -2 945 -28 897 q 65 1027 24 993 q 160 1079 107 1061 q 267 1097 213 1097 q 288 1090 279 1097 q 296 1069 296 1082 q 288 1049 296 1057 q 267 1042 279 1042 q 181 1028 224 1042 q 105 988 139 1014 q 50 924 71 961 q 29 839 29 886 q 49 743 29 790 q 108 665 68 696 q 164 815 128 739 q 252 954 200 892 q 373 1057 304 1017 q 528 1097 442 1097 q 583 1084 558 1097 q 624 1050 607 1071 q 651 1002 642 1029 q 660 947 660 975 q 620 792 660 861 q 518 674 581 722 q 376 601 456 626 q 218 575 297 575 q 183 576 200 575 q 149 583 165 578 q 137 492 140 538 q 133 399 133 446 q 153 268 133 333 q 213 151 174 203 q 308 67 251 99 q 436 35 364 35 q 512 47 474 35 q 581 83 550 60 q 630 140 611 107 q 649 215 649 174 q 628 272 649 246 q 576 297 608 297 q 542 289 551 297 q 528 270 532 281 q 519 251 524 260 q 500 243 515 243 q 472 271 472 243 q 482 307 472 292 q 507 333 492 322 q 540 348 522 343 q 576 353 558 353 q 628 342 604 353 q 669 311 651 331 q 696 267 686 292 q 706 215 706 243 m 603 947 q 598 979 603 963 q 583 1010 593 996 q 560 1033 574 1024 q 528 1042 546 1042 q 392 1003 453 1042 q 285 904 331 964 q 208 774 239 844 q 161 639 178 703 q 218 631 189 631 q 353 652 285 631 q 478 715 422 674 q 568 814 533 756 q 603 947 603 872 z "},"":{"ha":724,"x_min":-28,"x_max":686,"o":"m 575 1258 q 550 1219 575 1247 q 493 1163 525 1192 q 431 1111 461 1133 q 388 1089 400 1089 q 367 1097 376 1089 q 358 1117 358 1106 q 365 1134 358 1125 q 383 1152 372 1143 q 403 1168 393 1161 q 419 1179 414 1175 q 460 1210 440 1194 q 496 1244 479 1225 q 518 1270 503 1253 q 546 1288 533 1288 q 566 1278 557 1288 q 575 1258 575 1269 m 686 228 q 663 131 686 176 q 601 53 639 86 q 515 1 563 19 q 417 -18 467 -18 q 268 17 335 -18 q 154 111 201 53 q 81 243 107 169 q 56 393 56 317 q 103 569 56 489 q 239 692 151 649 q 222 719 229 706 q 208 749 214 733 q 133 762 175 751 q 56 792 92 772 q -3 841 21 811 q -28 913 -28 871 q 1 988 -28 954 q 73 1046 31 1022 q 162 1083 115 1069 q 243 1096 208 1096 q 263 1088 254 1096 q 271 1068 271 1081 q 263 1048 271 1056 q 243 1040 254 1040 q 185 1031 221 1040 q 114 1003 149 1021 q 54 963 79 986 q 29 913 29 940 q 48 866 29 885 q 92 835 67 847 q 147 816 118 822 q 197 807 176 810 q 196 821 196 814 q 196 836 196 829 q 224 936 196 889 q 297 1019 253 983 q 395 1075 342 1054 q 497 1096 449 1096 q 594 1064 557 1096 q 631 969 631 1032 q 592 869 631 910 q 497 802 553 828 q 378 764 440 776 q 269 749 315 751 q 290 715 278 731 q 350 731 319 725 q 411 736 381 736 q 443 733 425 736 q 477 722 461 729 q 504 701 493 714 q 515 672 515 689 q 506 638 515 653 q 480 614 496 624 q 446 599 464 604 q 411 594 428 594 q 341 609 375 594 q 279 647 307 624 q 158 544 203 613 q 113 393 113 476 q 134 265 113 329 q 195 151 156 201 q 291 69 235 100 q 417 38 347 38 q 492 52 454 38 q 560 93 531 67 q 610 154 590 119 q 629 228 629 189 q 612 277 629 254 q 567 300 594 300 q 525 292 536 300 q 510 274 514 283 q 503 256 506 264 q 485 247 500 247 q 460 260 469 247 q 450 286 450 272 q 463 316 450 303 q 495 338 476 329 q 533 351 514 347 q 567 356 553 356 q 614 345 592 356 q 652 317 636 335 q 677 276 668 299 q 686 228 686 253 m 574 969 q 553 1024 574 1007 q 497 1040 533 1040 q 431 1030 464 1040 q 369 1001 399 1019 q 315 958 339 982 q 274 904 290 933 q 259 872 265 889 q 253 836 253 856 q 253 819 253 828 q 254 804 253 813 q 342 815 288 806 q 447 843 396 824 q 536 893 499 863 q 574 969 574 924 m 453 669 q 447 674 453 672 q 435 678 442 676 q 421 679 428 679 q 413 679 415 679 q 379 676 396 679 q 346 671 363 674 q 376 656 357 660 q 411 651 396 651 q 435 655 418 651 q 453 669 453 658 z "},"":{"ha":871,"x_min":-28,"x_max":1042,"o":"m 860 1218 q 845 1192 860 1208 q 812 1162 831 1176 q 774 1136 793 1147 q 746 1125 756 1125 q 692 1142 714 1125 q 653 1178 669 1158 q 625 1215 638 1199 q 599 1232 613 1232 q 579 1220 590 1232 q 556 1194 568 1208 q 532 1169 544 1181 q 510 1157 519 1157 q 490 1166 499 1157 q 481 1186 481 1175 q 495 1215 481 1197 q 529 1248 510 1232 q 568 1276 549 1264 q 599 1288 588 1288 q 647 1272 628 1288 q 680 1236 665 1256 q 709 1200 694 1217 q 743 1182 724 1183 q 763 1197 750 1186 q 789 1219 775 1207 q 815 1239 803 1231 q 832 1247 828 1247 q 851 1238 843 1247 q 860 1218 860 1229 m 1042 951 q 1037 897 1042 926 q 1019 844 1032 868 q 986 805 1007 821 q 933 789 965 789 q 913 797 922 789 q 904 817 904 806 q 913 837 904 829 q 933 844 922 844 q 960 856 950 844 q 976 885 971 868 q 983 921 982 903 q 985 951 985 939 q 974 977 985 964 q 947 1001 963 990 q 916 1019 932 1013 q 889 1026 900 1026 q 837 1006 856 1026 q 809 957 818 986 q 798 896 800 928 q 796 840 796 864 q 798 595 796 717 q 800 350 800 474 q 799 247 800 297 q 793 143 799 196 q 785 91 790 119 q 767 38 779 63 q 735 -4 756 13 q 685 -21 715 -21 q 633 -3 653 -21 q 600 42 613 15 q 581 100 588 69 q 569 154 574 131 q 515 531 538 343 q 461 908 493 719 q 458 934 460 915 q 452 973 456 953 q 444 1009 449 993 q 435 1025 439 1025 q 422 1014 426 1025 q 415 989 417 1003 q 412 961 413 975 q 411 942 411 947 q 415 640 411 790 q 418 338 418 489 q 413 208 418 272 q 383 91 407 143 q 313 6 360 39 q 182 -26 265 -26 q 112 -9 149 -26 q 44 36 75 8 q -8 99 13 64 q -28 167 -28 133 q -19 236 -28 201 q 9 298 -10 271 q 57 342 28 325 q 125 358 86 358 q 169 351 147 358 q 207 330 190 343 q 234 297 224 317 q 244 254 244 278 q 236 234 244 242 q 217 226 228 226 q 197 235 206 226 q 188 254 188 243 q 166 290 188 278 q 125 301 144 301 q 81 289 99 301 q 51 256 63 276 q 34 213 39 236 q 29 167 29 189 q 45 120 29 144 q 85 76 61 96 q 135 42 108 56 q 182 29 161 29 q 286 58 250 29 q 339 133 322 88 q 358 233 356 178 q 361 338 361 288 q 358 635 361 486 q 354 932 354 783 q 357 979 354 953 q 368 1028 360 1006 q 393 1067 376 1051 q 438 1082 410 1082 q 477 1054 461 1082 q 504 989 493 1026 q 521 915 515 951 q 529 861 526 878 q 556 672 544 765 q 579 482 568 578 q 602 300 590 390 q 633 121 614 210 q 639 97 636 111 q 648 68 642 82 q 663 44 654 54 q 685 35 672 35 q 715 56 704 35 q 730 103 725 76 q 737 158 735 131 q 739 197 739 185 q 741 294 740 246 q 742 392 742 343 q 740 606 742 500 q 739 821 739 713 q 742 906 739 861 q 760 991 746 951 q 806 1056 775 1031 q 889 1082 836 1082 q 938 1071 911 1082 q 988 1041 965 1060 q 1026 999 1011 1022 q 1042 951 1042 976 z "},"":{"ha":915,"x_min":-28,"x_max":868,"o":"m 529 1174 q 511 1130 529 1149 q 468 1111 493 1111 q 424 1130 443 1111 q 406 1174 406 1149 q 424 1217 406 1199 q 468 1235 443 1235 q 511 1217 493 1235 q 529 1174 529 1199 m 374 1174 q 356 1130 374 1149 q 313 1111 338 1111 q 268 1130 288 1111 q 249 1174 249 1149 q 268 1217 249 1199 q 313 1235 288 1235 q 356 1217 338 1235 q 374 1174 374 1199 m 868 542 q 840 344 868 444 q 756 164 811 244 q 617 33 700 83 q 422 -18 533 -18 q 224 29 308 -18 q 83 154 139 76 q 0 331 28 232 q -28 531 -28 429 q -15 682 -28 608 q 29 822 -1 756 q 108 943 60 888 q 226 1039 157 999 q 242 1043 233 1043 q 260 1033 253 1043 q 268 1013 268 1024 q 265 999 268 1004 q 254 990 261 994 q 215 963 235 976 q 178 935 196 950 q 108 849 136 897 q 63 749 81 801 q 37 640 44 696 q 29 531 29 583 q 53 353 29 442 q 124 194 76 264 q 247 81 172 125 q 422 38 321 38 q 593 85 521 38 q 714 205 665 132 q 786 367 763 278 q 810 542 810 457 q 801 642 810 588 q 773 749 792 696 q 726 853 754 803 q 662 942 699 903 q 578 1003 625 981 q 476 1026 532 1026 q 384 1007 425 1026 q 316 955 343 988 q 274 878 289 922 q 260 786 260 835 q 276 742 260 763 q 317 721 292 721 q 344 732 333 721 q 360 759 354 743 q 369 792 367 775 q 372 822 372 810 q 381 842 372 835 q 401 850 390 850 q 421 842 413 850 q 429 822 429 835 q 422 770 429 797 q 402 719 415 743 q 367 681 389 696 q 317 665 346 665 q 271 676 292 665 q 235 703 250 686 q 211 741 219 719 q 203 786 203 763 q 222 901 203 847 q 276 995 240 954 q 362 1060 311 1036 q 476 1083 413 1083 q 646 1030 572 1083 q 769 895 719 976 q 843 719 818 814 q 868 542 868 624 z "},"":{"ha":1290,"x_min":-28,"x_max":1246,"o":"m 701 1174 q 683 1130 701 1149 q 640 1111 665 1111 q 597 1130 615 1111 q 578 1174 578 1149 q 597 1217 578 1199 q 640 1235 615 1235 q 683 1217 665 1235 q 701 1174 701 1199 m 547 1174 q 529 1130 547 1149 q 486 1111 511 1111 q 442 1130 461 1111 q 422 1174 422 1149 q 442 1217 422 1199 q 486 1235 461 1235 q 529 1217 511 1235 q 547 1174 547 1199 m 1246 228 q 1228 133 1246 178 q 1178 56 1210 89 q 1104 2 1147 22 q 1011 -18 1061 -18 q 881 23 939 -18 q 796 131 824 64 q 701 22 761 61 q 563 -18 642 -18 q 450 10 500 -18 q 365 82 400 38 q 310 183 329 126 q 292 296 292 239 l 292 869 q 286 922 292 893 q 269 976 281 950 q 237 1020 257 1003 q 188 1038 217 1038 q 119 1015 149 1038 q 70 958 90 992 q 40 885 50 924 q 29 814 29 846 q 33 760 29 792 q 49 700 38 729 q 80 651 61 671 q 128 631 99 631 q 167 644 151 631 q 192 678 182 658 q 205 722 201 699 q 208 764 208 744 q 217 784 208 776 q 236 792 225 792 q 256 784 247 792 q 265 764 265 776 q 258 699 265 732 q 233 638 250 665 q 190 592 217 610 q 128 575 164 575 q 55 599 85 575 q 6 659 25 624 q -20 737 -12 694 q -28 814 -28 779 q -13 909 -28 860 q 28 999 1 958 q 96 1067 56 1040 q 188 1093 136 1093 q 261 1072 231 1093 q 311 1017 292 1050 q 340 945 331 985 q 349 869 349 906 l 349 296 q 363 204 349 250 q 406 122 378 158 q 473 61 433 85 q 563 38 513 38 q 652 58 613 38 q 719 113 692 79 q 762 191 747 147 q 776 281 776 235 l 776 451 l 776 1068 q 785 1088 776 1081 q 806 1096 794 1096 q 825 1088 817 1096 q 833 1068 833 1081 l 833 451 l 833 228 q 847 157 833 192 q 884 96 860 122 q 941 53 908 69 q 1011 38 974 38 q 1083 53 1050 38 q 1139 95 1115 69 q 1176 156 1163 121 q 1189 228 1189 190 q 1172 277 1189 254 q 1126 300 1154 300 q 1100 290 1107 300 q 1090 269 1093 281 q 1083 249 1088 258 q 1061 239 1078 239 q 1041 247 1050 239 q 1032 267 1032 254 q 1060 331 1032 306 q 1126 356 1089 356 q 1174 345 1153 356 q 1212 317 1196 335 q 1237 276 1228 299 q 1246 228 1246 253 z "},"":{"ha":660,"x_min":-28,"x_max":690,"o":"m 353 700 q 328 661 353 689 q 271 605 303 633 q 208 554 239 576 q 165 532 178 532 q 146 540 154 532 q 138 560 138 549 q 147 582 138 574 q 191 615 168 600 q 235 647 214 629 q 269 681 254 663 q 301 717 285 699 q 324 728 310 728 q 344 719 335 728 q 353 700 353 711 m 690 219 q 688 211 690 217 q 654 145 676 185 q 603 69 632 106 q 542 8 575 33 q 476 -18 510 -18 q 410 6 433 -18 q 378 69 386 29 q 299 5 346 28 q 200 -18 253 -18 q 110 1 151 -18 q 38 53 68 21 q -10 128 7 85 q -28 218 -28 171 q -10 308 -28 265 q 38 383 7 351 q 110 435 68 415 q 200 454 151 454 q 296 433 250 454 q 374 374 342 413 q 372 397 374 383 q 373 422 371 410 q 381 443 375 435 q 401 451 388 451 q 422 443 413 451 q 431 424 431 435 l 431 136 q 431 106 431 124 q 435 74 431 89 q 449 48 439 58 q 476 38 458 38 q 520 58 497 38 q 563 106 543 78 q 599 163 583 133 q 624 208 615 192 q 637 233 629 219 q 660 246 644 246 q 681 238 671 246 q 690 219 690 231 m 374 218 q 360 287 374 254 q 324 344 347 319 q 268 385 300 369 q 200 400 236 400 q 131 385 163 400 q 77 344 100 369 q 42 287 54 319 q 29 218 29 254 q 42 149 29 182 q 78 92 56 117 q 133 52 101 67 q 200 38 164 38 q 268 52 236 38 q 324 92 300 67 q 360 149 347 117 q 374 218 374 182 z "},"":{"ha":661,"x_min":-28,"x_max":690,"o":"m 339 556 q 331 536 339 544 q 311 528 322 528 q 268 549 299 528 q 205 599 238 571 q 147 656 172 628 q 122 696 122 683 q 132 715 122 707 q 153 724 142 724 q 174 714 165 724 q 205 677 190 696 q 239 643 219 658 q 283 610 260 625 q 326 578 306 594 q 339 556 339 568 m 690 219 q 689 211 690 214 q 656 145 678 185 q 605 69 633 106 q 544 8 576 33 q 478 -18 511 -18 q 411 6 435 -18 q 379 69 388 29 q 301 5 347 28 q 201 -18 254 -18 q 111 1 153 -18 q 38 53 69 21 q -10 128 7 85 q -28 218 -28 171 q -10 308 -28 265 q 38 383 7 351 q 111 435 69 415 q 201 454 153 454 q 297 433 251 454 q 374 374 342 413 q 373 397 374 383 q 374 422 372 410 q 382 443 375 435 q 403 451 389 451 q 422 443 414 451 q 431 424 431 435 l 431 136 q 431 106 431 124 q 436 74 432 89 q 450 48 440 58 q 478 38 460 38 q 522 58 499 38 q 564 106 544 78 q 599 163 583 133 q 624 208 615 192 q 638 233 629 219 q 661 246 646 246 q 681 238 672 246 q 690 219 690 231 m 374 218 q 360 287 374 254 q 324 344 347 319 q 269 385 301 369 q 201 400 238 400 q 133 385 164 400 q 78 344 101 369 q 42 287 56 319 q 29 218 29 254 q 42 149 29 182 q 78 92 56 117 q 133 52 101 67 q 201 38 165 38 q 269 52 238 38 q 324 92 301 67 q 360 149 347 117 q 374 218 374 182 z "},"":{"ha":661,"x_min":-28,"x_max":690,"o":"m 360 578 q 351 558 360 567 q 332 550 343 550 q 303 569 322 550 q 264 613 283 589 q 228 656 244 636 q 208 678 213 676 q 186 649 204 669 q 147 606 168 628 q 108 567 126 583 q 82 550 89 550 q 62 558 71 550 q 53 578 53 567 q 69 607 53 592 q 94 631 85 622 q 154 699 128 661 q 178 728 163 710 q 208 746 193 746 q 226 738 215 746 q 257 702 244 722 q 285 664 269 682 q 319 628 300 644 q 353 593 338 613 q 360 578 360 586 m 690 219 q 689 211 690 214 q 656 145 678 185 q 605 69 633 106 q 544 8 576 33 q 478 -18 511 -18 q 411 6 435 -18 q 379 71 388 31 q 301 6 347 29 q 201 -18 254 -18 q 111 1 153 -18 q 38 53 69 21 q -10 128 7 85 q -28 218 -28 171 q -10 308 -28 265 q 38 384 7 351 q 111 436 69 417 q 201 456 153 456 q 297 434 251 456 q 374 374 342 413 q 373 397 374 383 q 374 422 372 410 q 382 443 375 435 q 403 451 389 451 q 422 443 414 451 q 431 424 431 435 l 431 136 q 431 106 431 124 q 436 74 432 89 q 450 48 440 58 q 478 38 460 38 q 522 58 499 38 q 564 106 544 78 q 599 163 583 133 q 624 208 615 192 q 638 233 629 219 q 661 246 646 246 q 681 238 672 246 q 690 219 690 231 m 374 218 q 360 287 374 254 q 324 344 347 319 q 270 385 301 369 q 201 400 239 400 q 133 385 164 400 q 78 344 101 369 q 42 287 56 319 q 29 218 29 254 q 42 149 29 182 q 78 92 56 117 q 133 52 101 67 q 201 38 164 38 q 269 52 238 38 q 324 92 301 67 q 360 149 347 117 q 374 218 374 182 z "},"":{"ha":661,"x_min":-28,"x_max":690,"o":"m 338 621 q 319 578 338 596 q 276 561 301 561 q 232 578 251 561 q 213 621 213 596 q 232 663 213 646 q 276 681 251 681 q 319 663 301 681 q 338 621 338 646 m 182 621 q 164 578 182 596 q 121 561 146 561 q 76 578 96 561 q 57 621 57 596 q 76 663 57 646 q 121 681 96 681 q 164 663 146 681 q 182 621 182 646 m 690 218 q 689 211 690 214 q 656 145 678 185 q 605 69 633 106 q 543 8 576 33 q 478 -18 510 -18 q 411 6 435 -18 q 379 69 388 29 q 301 6 347 29 q 201 -18 254 -18 q 111 1 153 -18 q 38 52 69 19 q -10 127 7 85 q -28 217 -28 169 q -10 307 -28 264 q 38 383 7 350 q 111 435 69 415 q 201 454 153 454 q 297 432 251 454 q 374 372 342 410 q 373 395 374 382 q 374 421 372 408 q 382 442 375 433 q 403 450 389 450 q 422 442 414 450 q 431 422 431 433 l 431 136 q 431 106 431 124 q 436 74 432 89 q 450 48 440 58 q 478 38 460 38 q 522 58 499 38 q 564 106 544 78 q 599 163 583 133 q 624 208 615 192 q 638 232 629 219 q 661 244 646 244 q 681 237 672 244 q 690 218 690 229 m 374 217 q 360 285 374 253 q 324 343 347 318 q 269 383 301 368 q 201 399 238 399 q 133 383 164 399 q 78 343 101 368 q 42 285 56 318 q 29 217 29 253 q 42 148 29 181 q 78 91 56 115 q 133 52 101 67 q 201 38 165 38 q 269 52 238 38 q 324 91 301 67 q 360 148 347 115 q 374 217 374 181 z "},"":{"ha":661,"x_min":-28,"x_max":690,"o":"m 418 632 q 403 606 418 622 q 370 576 389 590 q 333 550 351 561 q 304 539 314 539 q 250 556 272 539 q 213 592 228 572 q 185 628 197 611 q 158 644 172 644 q 139 633 150 644 q 115 608 128 622 q 90 583 103 594 q 68 572 78 572 q 48 581 57 572 q 39 600 39 589 q 53 628 39 611 q 88 662 68 646 q 127 689 107 678 q 158 700 147 700 q 206 684 188 700 q 240 649 225 668 q 268 613 254 629 q 301 596 282 597 q 321 610 308 600 q 347 633 333 621 q 374 653 361 644 q 390 661 386 661 q 410 652 401 661 q 418 632 418 643 m 690 219 q 689 211 690 214 q 656 145 678 185 q 605 69 633 106 q 543 8 576 33 q 478 -18 510 -18 q 411 6 435 -18 q 379 69 388 29 q 301 6 347 29 q 201 -18 254 -18 q 111 1 153 -18 q 38 53 69 21 q -10 128 7 85 q -28 218 -28 171 q -10 308 -28 265 q 38 383 7 351 q 111 435 69 415 q 201 454 153 454 q 297 433 251 454 q 374 374 342 411 q 373 397 374 383 q 374 422 372 410 q 382 442 375 433 q 403 450 389 450 q 422 442 414 450 q 431 422 431 433 l 431 136 q 431 106 431 124 q 436 74 432 89 q 450 48 440 58 q 478 38 460 38 q 522 58 499 38 q 564 106 544 78 q 599 163 583 133 q 624 208 615 192 q 638 233 629 219 q 661 246 646 246 q 681 238 672 246 q 690 219 690 231 m 374 218 q 360 287 374 254 q 324 344 347 319 q 269 384 301 369 q 201 399 238 399 q 133 384 164 399 q 78 344 101 369 q 42 287 56 319 q 29 218 29 254 q 42 149 29 182 q 78 92 56 117 q 133 52 101 67 q 201 38 165 38 q 269 52 238 38 q 324 92 301 67 q 360 149 347 117 q 374 218 374 182 z "},"":{"ha":661,"x_min":-28,"x_max":690,"o":"m 318 651 q 290 590 318 614 q 226 565 263 565 q 162 590 190 565 q 133 651 133 614 q 162 713 133 689 q 226 736 190 736 q 290 713 263 736 q 318 651 318 689 m 690 215 q 689 207 690 210 q 656 142 678 181 q 605 67 633 103 q 543 7 576 32 q 478 -18 510 -18 q 412 5 436 -18 q 379 68 388 28 q 301 5 347 28 q 201 -18 254 -18 q 112 1 154 -18 q 39 51 69 19 q -10 124 8 82 q -28 214 -28 167 q -10 303 -28 261 q 39 378 8 346 q 112 428 69 410 q 201 447 154 447 q 297 426 251 447 q 374 367 342 404 q 373 390 374 376 q 374 415 372 403 q 382 435 375 426 q 403 443 389 443 q 422 435 414 443 q 431 417 431 428 l 431 135 q 431 105 431 122 q 436 72 432 88 q 450 47 440 57 q 478 36 460 36 q 522 56 499 36 q 564 103 544 76 q 599 160 583 131 q 624 206 615 189 q 638 229 629 217 q 661 242 646 242 q 681 234 672 242 q 690 215 690 226 m 274 651 q 259 683 274 671 q 226 694 244 694 q 194 683 208 694 q 179 651 179 671 q 193 619 179 632 q 226 607 207 607 q 260 619 246 607 q 274 651 274 632 m 374 214 q 360 282 374 250 q 324 339 347 314 q 269 378 301 364 q 201 393 238 393 q 133 378 165 393 q 78 339 101 364 q 42 282 56 314 q 29 214 29 250 q 42 147 29 179 q 78 90 56 114 q 133 51 101 65 q 201 36 165 36 q 269 51 238 36 q 324 90 301 65 q 360 146 347 114 q 374 214 374 178 z "},"":{"ha":500,"x_min":-28,"x_max":531,"o":"m 329 621 q 311 578 329 596 q 268 561 293 561 q 224 578 243 561 q 206 621 206 596 q 224 663 206 646 q 268 681 243 681 q 311 663 293 681 q 329 621 329 646 m 174 621 q 156 578 174 596 q 113 561 138 561 q 68 578 88 561 q 49 621 49 596 q 68 663 49 646 q 113 681 88 681 q 156 663 138 681 q 174 621 174 646 m 531 218 q 529 211 531 214 q 402 44 486 106 q 201 -18 318 -18 q 112 1 154 -18 q 39 52 69 19 q -10 127 8 85 q -28 217 -28 169 q -10 310 -28 267 q 40 385 8 353 q 113 435 71 417 q 206 454 156 454 q 265 445 233 454 q 324 418 297 436 q 369 374 351 400 q 388 317 388 349 q 370 249 388 278 q 325 199 353 219 q 263 169 297 179 q 194 158 229 158 q 110 168 149 158 q 31 197 72 178 q 49 136 35 165 q 87 85 64 107 q 139 51 110 64 q 201 38 168 38 q 340 69 278 38 q 442 168 401 101 q 452 188 446 175 q 466 213 458 200 q 483 235 474 225 q 501 244 492 244 q 522 237 513 244 q 531 218 531 229 m 331 317 q 317 351 331 336 q 283 377 303 367 q 242 393 264 388 q 206 399 221 399 q 94 360 142 399 q 33 258 47 321 q 111 225 75 236 q 194 214 147 214 q 241 220 217 214 q 285 239 265 226 q 317 271 304 251 q 331 317 331 290 z "},"":{"ha":707,"x_min":-28,"x_max":736,"o":"m 447 635 q 433 609 447 625 q 399 578 418 593 q 360 553 379 564 q 331 542 340 542 q 276 558 299 542 q 239 594 254 575 q 211 631 224 614 q 185 647 199 647 q 165 636 176 647 q 142 611 154 625 q 118 586 131 597 q 96 575 106 575 q 76 583 85 575 q 67 603 67 592 q 81 631 67 614 q 115 665 96 649 q 154 692 135 681 q 185 703 174 703 q 233 687 214 703 q 266 651 251 671 q 294 615 281 632 q 328 597 308 599 q 347 613 335 601 q 374 635 360 624 q 400 655 388 646 q 417 664 413 664 q 438 655 428 664 q 447 635 447 646 m 736 219 q 733 207 736 215 q 702 147 725 185 q 649 72 679 108 q 588 9 619 36 q 531 -18 556 -18 q 467 -3 492 -18 q 429 38 443 13 q 410 94 415 63 q 404 157 404 125 l 404 318 q 376 377 404 358 q 311 396 347 396 q 276 387 292 396 q 248 364 260 378 q 229 332 236 350 q 222 296 222 314 l 222 10 q 213 -10 222 -1 q 193 -18 204 -18 q 174 -10 182 -18 q 165 10 165 -1 l 165 321 q 165 342 165 329 q 160 366 164 354 q 150 387 157 378 q 132 396 143 396 q 90 364 106 396 q 61 293 74 332 q 35 222 49 254 q 0 190 21 190 q -19 199 -11 190 q -28 218 -28 207 q -21 245 -28 225 q -5 288 -14 265 q 13 332 4 311 q 26 361 22 353 q 44 392 35 376 q 67 422 54 408 q 97 443 81 435 q 132 451 113 451 q 175 438 157 451 q 204 401 193 424 q 251 438 224 425 q 311 451 279 451 q 369 442 342 451 q 417 417 396 433 q 449 375 438 400 q 461 318 461 350 l 461 157 q 463 117 461 139 q 471 78 464 96 q 492 49 478 61 q 531 38 506 38 q 567 60 546 38 q 608 111 588 82 q 646 169 629 140 q 669 211 663 197 q 684 234 676 222 q 707 246 692 246 q 727 238 718 246 q 736 219 736 231 z "},"":{"ha":556,"x_min":-28,"x_max":585,"o":"m 324 700 q 299 661 324 689 q 242 605 274 633 q 179 554 210 576 q 136 532 149 532 q 116 540 125 532 q 107 560 107 549 q 119 582 107 572 q 182 629 151 607 q 240 681 213 651 q 256 699 249 690 q 272 717 264 707 q 294 728 281 728 q 315 719 306 728 q 324 700 324 711 m 585 219 q 582 207 585 215 q 528 146 564 168 q 451 124 493 124 q 414 128 433 124 q 330 22 388 61 q 201 -18 272 -18 q 111 1 153 -18 q 38 53 69 21 q -10 128 7 85 q -28 218 -28 171 q -10 308 -28 265 q 38 383 7 351 q 111 435 69 415 q 201 454 153 454 q 292 435 250 454 q 365 383 333 415 q 413 308 396 351 q 431 218 431 265 q 430 200 431 208 q 428 182 429 192 q 451 179 442 179 q 494 190 479 179 q 519 213 510 200 q 537 235 529 225 q 557 246 544 246 q 576 238 568 246 q 585 219 585 231 m 374 219 q 369 256 374 235 q 358 293 365 278 q 357 282 357 288 q 357 271 357 276 q 374 219 357 243 m 363 151 q 317 203 335 172 q 300 271 300 235 q 304 310 300 290 q 322 346 308 331 q 267 385 299 371 q 201 400 236 400 q 133 385 164 400 q 78 344 101 369 q 42 287 56 319 q 29 218 29 254 q 42 149 29 182 q 78 92 56 117 q 133 52 101 67 q 201 38 165 38 q 299 69 256 38 q 363 151 343 101 z "},"":{"ha":556,"x_min":-28,"x_max":585,"o":"m 339 556 q 331 536 339 544 q 311 528 322 528 q 268 549 299 528 q 205 599 238 571 q 147 656 172 628 q 122 696 122 683 q 132 715 122 707 q 153 724 142 724 q 174 714 165 724 q 205 677 190 696 q 239 643 219 658 q 283 610 260 625 q 326 578 306 594 q 339 556 339 568 m 585 219 q 582 207 585 215 q 528 146 564 168 q 451 124 493 124 q 414 128 433 124 q 330 22 388 61 q 201 -18 272 -18 q 111 1 153 -18 q 38 53 69 21 q -10 128 7 85 q -28 218 -28 171 q -10 308 -28 265 q 38 383 7 351 q 111 435 69 415 q 201 454 153 454 q 292 435 250 454 q 365 383 333 415 q 413 308 396 351 q 431 218 431 265 q 430 200 431 208 q 428 182 429 192 q 451 179 442 179 q 494 190 479 179 q 519 213 510 200 q 537 235 529 225 q 557 246 544 246 q 576 238 568 246 q 585 219 585 231 m 374 219 q 369 256 374 235 q 358 293 365 278 q 357 282 357 288 q 357 271 357 276 q 374 219 357 243 m 363 151 q 317 203 335 172 q 300 271 300 235 q 304 310 300 290 q 322 346 308 331 q 267 385 299 371 q 201 400 236 400 q 133 385 164 400 q 78 344 101 369 q 42 287 56 319 q 29 218 29 254 q 42 149 29 182 q 78 92 56 117 q 133 52 101 67 q 201 38 165 38 q 299 69 256 38 q 363 151 343 101 z "},"":{"ha":556,"x_min":-28,"x_max":585,"o":"m 353 578 q 344 558 353 567 q 325 550 336 550 q 296 569 315 550 q 257 613 276 589 q 222 656 238 636 q 201 678 206 676 q 179 649 197 669 q 140 606 161 628 q 101 567 119 583 q 75 550 82 550 q 55 558 64 550 q 46 578 46 567 q 62 607 46 592 q 88 631 78 622 q 147 699 121 661 q 171 728 156 710 q 201 746 186 746 q 219 738 208 746 q 250 702 238 722 q 278 664 263 682 q 312 628 293 644 q 346 593 331 613 q 353 578 353 586 m 585 219 q 582 207 585 215 q 528 146 564 168 q 451 124 493 124 q 414 128 433 124 q 330 22 388 61 q 201 -18 272 -18 q 111 1 153 -18 q 38 53 69 21 q -10 128 7 85 q -28 218 -28 171 q -10 308 -28 265 q 38 384 7 351 q 111 436 69 417 q 201 456 153 456 q 292 436 250 456 q 365 384 333 417 q 413 308 396 351 q 431 218 431 265 q 430 200 431 208 q 428 182 429 192 q 451 179 442 179 q 494 190 479 179 q 519 213 510 200 q 537 235 529 225 q 557 246 544 246 q 576 238 568 246 q 585 219 585 231 m 374 219 q 369 256 374 235 q 358 293 365 278 q 357 282 357 288 q 357 271 357 276 q 374 219 357 243 m 363 151 q 317 203 335 172 q 300 271 300 235 q 304 311 300 290 q 322 347 308 332 q 201 400 272 400 q 133 385 164 400 q 78 344 101 369 q 42 287 56 319 q 29 218 29 254 q 42 149 29 182 q 78 92 56 117 q 133 52 101 67 q 201 38 164 38 q 299 69 256 38 q 363 151 343 101 z "},"":{"ha":556,"x_min":-28,"x_max":585,"o":"m 322 621 q 304 578 322 596 q 261 561 286 561 q 217 578 236 561 q 199 621 199 596 q 217 663 199 646 q 261 681 236 681 q 304 663 286 681 q 322 621 322 646 m 167 621 q 149 578 167 596 q 106 561 131 561 q 61 578 81 561 q 42 621 42 596 q 61 663 42 646 q 106 681 81 681 q 149 663 131 681 q 167 621 167 646 m 585 218 q 582 206 585 214 q 528 145 564 167 q 451 124 493 124 q 414 128 433 124 q 330 22 388 61 q 201 -18 272 -18 q 111 1 153 -18 q 38 52 69 19 q -10 127 7 85 q -28 217 -28 169 q -10 307 -28 264 q 38 383 7 350 q 111 435 69 415 q 201 454 153 454 q 292 435 250 454 q 365 383 333 415 q 413 307 396 350 q 431 217 431 264 q 430 199 431 207 q 428 182 429 192 q 451 179 442 179 q 494 190 479 179 q 519 212 510 200 q 537 234 529 224 q 557 244 544 244 q 576 237 568 244 q 585 218 585 229 m 374 219 q 369 256 374 235 q 358 292 365 276 q 357 281 357 286 q 357 269 357 275 q 374 219 357 243 m 363 151 q 317 203 335 172 q 300 269 300 233 q 304 310 300 289 q 322 346 308 331 q 201 399 272 399 q 133 383 164 399 q 78 343 101 368 q 42 285 56 318 q 29 217 29 253 q 42 148 29 181 q 78 91 56 115 q 133 52 101 67 q 201 38 165 38 q 299 69 256 38 q 363 151 343 101 z "},"":{"ha":556,"x_min":-28,"x_max":585,"o":"m 428 638 q 413 612 428 628 q 380 581 399 596 q 342 556 361 567 q 314 544 324 544 q 260 561 282 544 q 222 597 238 578 q 194 633 207 617 q 168 650 182 650 q 149 638 160 650 q 125 613 138 626 q 100 588 113 600 q 78 576 88 576 q 58 585 67 576 q 49 604 49 593 q 63 633 49 615 q 97 666 78 650 q 137 694 117 682 q 168 706 157 706 q 216 690 197 706 q 249 654 235 674 q 278 618 264 635 q 311 600 292 601 q 331 615 318 604 q 357 637 343 625 q 383 657 371 649 q 400 665 396 665 q 419 657 411 665 q 428 638 428 649 m 585 219 q 582 207 585 215 q 528 146 564 168 q 451 124 493 124 q 414 128 433 124 q 330 22 388 61 q 201 -18 272 -18 q 111 1 153 -18 q 38 53 69 21 q -10 128 7 85 q -28 218 -28 171 q -10 308 -28 265 q 38 383 7 351 q 111 435 69 415 q 201 454 153 454 q 292 435 250 454 q 365 383 333 415 q 413 308 396 351 q 431 218 431 265 q 430 200 431 208 q 428 182 429 192 q 451 179 442 179 q 494 190 479 179 q 519 213 510 200 q 537 235 529 225 q 557 246 544 246 q 576 238 568 246 q 585 219 585 231 m 374 219 q 369 256 374 235 q 358 293 365 278 q 357 282 357 288 q 357 271 357 276 q 374 219 357 243 m 363 151 q 317 203 335 172 q 300 271 300 235 q 304 310 300 290 q 322 346 308 331 q 201 399 272 399 q 133 384 164 399 q 78 344 101 369 q 42 287 56 319 q 29 218 29 254 q 42 149 29 182 q 78 92 56 117 q 133 52 101 67 q 201 38 165 38 q 299 69 256 38 q 363 151 343 101 z "},"":{"ha":657,"x_min":-28,"x_max":688,"o":"m 372 621 q 354 578 372 596 q 311 561 336 561 q 267 578 286 561 q 247 621 247 596 q 267 663 247 646 q 311 681 286 681 q 354 663 336 681 q 372 621 372 646 m 215 621 q 197 578 215 596 q 154 561 179 561 q 110 578 129 561 q 92 621 92 596 q 110 663 92 646 q 154 681 129 681 q 197 663 179 681 q 215 621 215 646 m 688 215 q 686 209 688 213 q 683 203 685 206 q 649 138 671 176 q 600 65 628 100 q 540 6 572 31 q 475 -18 508 -18 q 383 46 407 -18 q 382 57 382 49 q 381 68 382 65 q 376 56 378 65 q 372 43 375 46 q 317 -1 349 15 q 247 -18 285 -18 q 172 -6 208 -18 q 106 30 135 7 q 59 87 76 53 q 42 163 42 121 l 42 218 l 42 247 q 40 236 40 244 q 38 225 39 228 q 22 200 31 214 q 1 186 13 186 q -19 194 -10 186 q -28 214 -28 203 q -21 239 -28 221 q -5 278 -14 257 q 13 321 4 300 q 24 351 21 342 q 28 372 26 360 q 34 397 31 385 q 42 421 38 410 q 51 438 46 432 q 72 446 60 446 q 92 436 85 446 q 99 415 99 426 l 99 163 q 112 108 99 132 q 146 69 125 85 q 193 44 167 53 q 247 36 219 36 q 302 53 279 36 q 340 95 325 69 q 363 151 356 121 q 371 208 371 182 l 371 415 q 380 435 371 426 q 400 443 389 443 q 419 435 411 443 q 428 415 428 426 l 428 135 q 428 105 428 122 q 433 72 429 88 q 447 47 438 57 q 475 36 457 36 q 515 53 494 36 q 553 93 535 69 q 587 141 572 117 q 610 181 601 165 q 622 204 617 192 q 633 228 626 217 q 658 242 643 242 q 678 234 669 242 q 688 215 688 226 z "},"":{"ha":1178,"x_min":-28,"x_max":1172,"o":"m 1172 228 q 1148 131 1172 176 q 1085 53 1124 86 q 999 0 1047 19 q 900 -19 950 -19 q 752 12 819 -19 q 635 97 685 43 q 556 221 586 150 q 521 369 526 292 q 519 403 519 386 q 519 438 519 419 q 521 481 519 460 q 525 525 522 503 q 483 532 504 528 q 442 540 463 536 l 442 378 q 435 238 442 308 q 402 110 428 167 q 325 17 376 53 q 183 -18 274 -18 q 100 -1 139 -18 q 33 44 61 15 q -12 111 4 72 q -28 194 -28 150 q -15 258 -28 228 q 19 309 -3 288 q 71 344 42 331 q 133 357 100 357 q 177 349 156 357 q 215 328 199 342 q 242 294 232 314 q 251 251 251 275 q 242 231 251 239 q 222 224 233 224 q 203 231 211 224 q 194 251 194 239 q 174 288 194 275 q 133 301 154 301 q 59 270 89 301 q 29 194 29 239 q 41 133 29 161 q 73 83 53 104 q 122 50 93 63 q 183 38 150 38 q 260 47 228 38 q 313 77 292 57 q 349 128 335 97 q 371 201 363 160 q 385 312 382 256 q 388 424 388 368 q 386 486 388 456 q 385 549 385 517 l 367 549 q 337 544 351 549 q 310 533 322 539 q 288 521 297 526 q 272 515 278 515 q 252 524 261 515 q 243 543 243 532 q 253 564 243 554 q 315 599 279 588 q 386 606 351 610 l 386 715 q 385 766 386 742 q 383 817 383 790 q 388 902 383 854 q 406 992 392 950 q 451 1063 421 1033 q 531 1092 481 1092 q 582 1077 560 1092 q 619 1040 604 1063 q 642 991 635 1018 q 650 939 650 964 q 632 776 650 856 q 597 617 614 697 q 707 713 643 678 q 687 776 693 743 q 681 842 681 808 q 711 944 681 897 q 788 1024 742 990 q 886 1077 833 1058 q 982 1096 939 1096 q 1078 1064 1036 1096 q 1119 969 1119 1032 q 1100 899 1119 931 q 1051 844 1081 867 q 984 808 1021 821 q 913 794 947 794 q 893 802 901 794 q 885 822 885 810 q 893 842 885 835 q 913 850 901 850 q 960 859 935 850 q 1009 884 986 868 q 1047 922 1032 900 q 1063 969 1063 944 q 1037 1022 1063 1006 q 982 1039 1011 1039 q 902 1022 944 1039 q 823 978 860 1006 q 762 915 786 950 q 738 842 738 879 q 760 736 738 785 q 832 754 796 749 q 906 760 868 760 q 951 755 926 760 q 998 739 976 750 q 1034 710 1019 728 q 1049 665 1049 692 q 1033 622 1049 640 q 995 594 1018 604 q 947 578 972 583 q 901 574 922 574 q 808 598 850 574 q 736 663 765 622 q 617 542 657 618 q 578 376 578 465 q 603 249 578 310 q 673 140 629 188 q 776 65 717 93 q 901 38 835 38 q 977 52 939 38 q 1046 93 1015 67 q 1096 154 1076 119 q 1115 228 1115 189 q 1097 277 1115 254 q 1054 300 1079 300 q 1007 292 1019 300 q 991 274 994 283 q 986 256 988 264 q 971 247 985 247 q 946 260 956 247 q 936 286 936 272 q 949 321 936 307 q 981 342 963 335 q 1020 353 1000 350 q 1054 356 1040 356 q 1101 345 1079 356 q 1138 317 1122 335 q 1163 276 1154 299 q 1172 228 1172 253 m 992 665 q 981 685 992 678 q 957 697 971 693 q 928 703 943 701 q 906 704 914 704 q 847 700 876 704 q 789 686 817 696 q 839 644 810 660 q 901 629 868 629 q 925 631 910 629 q 955 636 940 632 q 981 647 969 640 q 992 665 992 654 m 593 939 q 590 968 593 951 q 578 1000 586 985 q 559 1026 571 1015 q 531 1036 547 1036 q 479 1010 497 1036 q 453 949 461 985 q 443 877 444 914 q 442 817 442 840 q 442 706 442 761 q 443 596 443 651 q 488 588 467 592 q 533 581 510 583 q 551 669 542 625 q 571 758 561 714 q 587 848 581 803 q 593 939 593 893 z "},"":{"ha":650,"x_min":44,"x_max":607,"o":"m 607 358 q 590 231 607 297 q 537 109 572 164 q 449 18 501 54 q 325 -18 396 -18 q 238 -1 279 -18 q 163 49 196 17 q 156 29 160 40 q 148 8 153 18 q 135 -10 143 -3 q 117 -18 128 -18 q 97 -10 106 -18 q 89 10 89 -1 q 93 26 89 14 q 103 53 97 39 q 114 80 108 67 q 122 99 119 93 q 64 223 83 156 q 44 358 44 290 l 44 711 q 62 839 44 772 q 114 960 79 906 q 201 1051 149 1015 q 325 1088 254 1088 q 413 1070 371 1088 q 488 1021 454 1053 q 502 1054 492 1033 q 529 1075 513 1075 q 550 1068 540 1075 q 560 1049 560 1061 q 556 1033 560 1044 q 547 1010 551 1022 q 537 986 542 997 q 529 969 532 975 q 587 845 567 913 q 607 711 607 778 l 607 358 l 607 358 m 464 961 q 402 1013 438 993 q 325 1032 367 1032 q 225 1000 267 1032 q 156 920 183 968 q 115 816 128 872 q 101 711 101 760 l 101 358 q 147 165 101 256 l 464 961 l 464 961 m 550 711 q 503 903 550 811 l 186 107 q 249 56 213 75 q 325 38 285 38 q 424 69 382 38 q 494 150 467 101 q 536 255 522 199 q 550 358 550 311 l 550 711 z "},"":{"ha":1040,"x_min":303,"x_max":739,"o":"m 739 307 q 730 288 739 296 q 710 279 721 279 q 690 288 699 279 l 519 449 l 350 288 q 331 279 342 279 q 311 288 319 279 q 303 307 303 296 q 310 325 303 318 l 479 486 l 310 649 q 303 667 303 656 q 311 686 303 678 q 331 694 319 694 q 350 686 342 694 l 519 525 l 690 686 q 710 694 699 694 q 730 686 721 694 q 739 667 739 678 q 729 649 739 658 l 561 486 l 729 325 q 739 307 739 315 z "},"":{"ha":1018,"x_min":-28,"x_max":974,"o":"m 601 1124 q 593 1103 601 1113 q 574 1094 585 1094 q 531 1117 563 1094 q 467 1168 500 1139 q 410 1226 435 1197 q 385 1265 385 1254 q 394 1285 385 1276 q 415 1293 404 1293 q 436 1283 428 1293 q 467 1247 453 1265 q 501 1213 482 1228 q 544 1178 522 1194 q 589 1146 567 1163 q 601 1124 601 1136 m 974 229 q 956 135 974 179 q 906 56 938 90 q 831 2 875 22 q 738 -18 788 -18 q 617 24 661 -18 q 552 126 574 65 q 525 256 531 186 q 519 382 519 326 q 522 463 519 422 q 528 544 525 504 q 459 564 493 553 q 389 582 425 575 q 390 463 389 528 q 385 331 390 397 q 366 201 381 264 q 320 89 351 138 q 238 11 289 40 q 107 -18 186 -18 q 63 -12 86 -18 q 19 4 39 -7 q -15 33 -1 15 q -28 75 -28 50 q -2 132 -28 108 q 57 156 24 156 q 85 128 85 156 q 76 107 85 113 q 58 99 68 101 q 38 92 47 96 q 29 75 29 88 q 38 56 29 64 q 60 44 47 49 q 85 39 72 40 q 107 38 99 38 q 233 78 188 38 q 300 178 278 118 q 327 309 322 239 q 332 439 332 379 l 332 589 l 318 589 q 286 583 301 589 q 259 572 271 578 q 238 560 247 565 q 224 554 229 554 q 203 563 213 554 q 194 583 194 572 q 204 604 194 594 q 264 638 231 628 q 332 644 297 647 q 335 749 332 697 q 338 853 338 800 q 344 928 338 886 q 369 1008 351 971 q 415 1070 386 1044 q 485 1096 443 1096 q 553 1069 529 1096 q 588 1003 576 1042 q 601 922 599 964 q 603 847 603 879 q 598 718 603 782 q 588 590 593 654 q 607 588 597 589 q 626 588 617 588 q 659 596 644 588 q 685 613 674 604 q 706 631 696 622 q 725 639 715 639 q 744 630 736 639 q 753 610 753 621 q 744 590 753 599 q 691 549 721 567 q 626 532 661 532 q 604 533 615 532 q 582 535 593 533 q 578 453 579 494 q 576 372 576 413 q 579 273 576 331 q 597 163 582 215 q 645 74 613 111 q 738 38 678 38 q 809 53 776 38 q 866 96 842 69 q 903 157 890 122 q 917 229 917 192 q 899 278 917 256 q 854 300 882 300 q 828 290 835 300 q 818 269 821 281 q 810 249 815 258 q 789 239 806 239 q 769 247 778 239 q 760 267 760 254 q 788 331 760 306 q 854 357 817 357 q 902 347 881 357 q 940 318 924 336 q 965 277 956 300 q 974 229 974 254 m 546 858 q 545 904 546 874 q 539 965 544 935 q 521 1017 533 994 q 485 1039 508 1039 q 440 1017 457 1039 q 412 966 422 996 q 398 905 401 936 q 394 853 394 874 q 392 746 394 800 q 389 638 389 692 q 460 620 425 631 q 532 601 496 610 q 542 730 538 667 q 546 858 546 793 z "},"":{"ha":1018,"x_min":-28,"x_max":974,"o":"m 674 1218 q 659 1192 674 1208 q 625 1162 644 1176 q 587 1136 606 1147 q 558 1125 568 1125 q 504 1142 526 1125 q 467 1178 482 1158 q 439 1215 451 1199 q 413 1232 426 1232 q 393 1220 404 1232 q 370 1194 382 1208 q 346 1169 358 1181 q 324 1157 333 1157 q 303 1166 313 1157 q 293 1186 293 1175 q 308 1215 293 1197 q 342 1248 322 1232 q 381 1276 361 1264 q 413 1288 401 1288 q 460 1272 442 1288 q 494 1236 479 1256 q 522 1200 508 1217 q 556 1182 536 1183 q 575 1197 563 1186 q 602 1219 588 1207 q 629 1239 617 1231 q 646 1247 642 1247 q 665 1238 657 1247 q 674 1218 674 1229 m 974 229 q 956 135 974 179 q 906 56 938 90 q 831 2 875 22 q 738 -18 788 -18 q 617 23 661 -18 q 551 125 574 64 q 524 256 529 186 q 519 382 519 325 q 522 463 519 422 q 528 544 525 504 q 459 564 493 553 q 389 582 425 575 q 390 463 389 528 q 385 331 390 397 q 366 201 381 264 q 320 89 351 138 q 238 11 289 40 q 107 -18 186 -18 q 63 -12 86 -18 q 19 4 39 -7 q -15 33 -1 15 q -28 75 -28 50 q -2 133 -28 110 q 57 156 24 156 q 85 128 85 156 q 76 107 85 113 q 58 99 68 101 q 38 92 47 96 q 29 75 29 88 q 38 56 29 64 q 60 44 47 49 q 85 39 72 40 q 107 38 99 38 q 233 78 188 38 q 300 178 278 118 q 327 309 322 239 q 332 439 332 379 l 332 589 l 318 589 q 285 583 300 589 q 258 572 269 578 q 239 560 247 565 q 224 554 231 554 q 203 563 213 554 q 194 583 194 572 q 198 595 194 590 q 206 604 201 600 q 264 638 232 628 q 332 644 296 647 q 335 749 332 697 q 338 853 338 800 q 344 928 338 886 q 369 1008 351 971 q 415 1070 386 1044 q 485 1096 443 1096 q 553 1069 529 1096 q 588 1003 576 1042 q 601 922 599 964 q 603 847 603 879 q 598 718 603 782 q 588 590 593 654 q 607 588 597 589 q 626 588 617 588 q 659 596 644 588 q 685 613 674 604 q 706 631 696 622 q 725 639 715 639 q 744 630 736 639 q 753 610 753 621 q 744 590 753 599 q 691 549 721 567 q 626 532 661 532 q 604 533 615 532 q 582 535 593 533 q 578 453 579 494 q 576 372 576 413 q 579 273 576 331 q 597 163 582 215 q 645 74 613 111 q 738 38 678 38 q 809 53 776 38 q 866 96 842 69 q 903 157 890 122 q 917 229 917 192 q 899 278 917 256 q 854 300 882 300 q 828 290 835 300 q 818 269 821 281 q 810 249 815 258 q 789 239 806 239 q 769 247 778 239 q 760 267 760 254 q 788 331 760 306 q 854 357 817 357 q 902 347 881 357 q 940 318 924 336 q 965 277 956 300 q 974 229 974 254 m 546 858 q 545 904 546 874 q 539 965 544 935 q 521 1017 533 994 q 485 1039 508 1039 q 440 1017 457 1039 q 412 966 422 996 q 398 905 401 936 q 394 853 394 874 q 392 746 394 800 q 389 638 389 692 q 460 620 425 631 q 532 601 496 610 q 542 730 538 667 q 546 858 546 793 z "},"":{"ha":915,"x_min":-28,"x_max":868,"o":"m 622 1222 q 608 1197 622 1213 q 574 1166 593 1181 q 537 1140 556 1151 q 508 1129 518 1129 q 454 1146 476 1129 q 416 1182 432 1163 q 388 1218 400 1201 q 361 1235 375 1235 q 342 1223 353 1235 q 319 1197 331 1211 q 294 1172 307 1183 q 272 1160 282 1160 q 252 1169 261 1160 q 243 1189 243 1178 q 258 1217 243 1200 q 292 1251 272 1235 q 331 1278 311 1267 q 361 1290 350 1290 q 409 1274 390 1290 q 442 1239 428 1258 q 472 1203 457 1219 q 506 1185 486 1186 q 525 1199 513 1189 q 551 1222 538 1210 q 578 1242 565 1233 q 594 1250 590 1250 q 614 1242 606 1250 q 622 1222 622 1233 m 868 542 q 840 344 868 444 q 756 164 811 244 q 617 33 700 83 q 422 -18 533 -18 q 224 29 308 -18 q 83 154 139 76 q 0 331 28 232 q -28 531 -28 429 q -15 682 -28 608 q 29 822 -1 756 q 108 943 60 888 q 226 1039 157 999 q 242 1043 233 1043 q 260 1033 253 1043 q 268 1013 268 1024 q 265 999 268 1004 q 254 990 261 994 q 215 963 235 976 q 178 935 196 950 q 108 849 136 897 q 63 749 81 801 q 37 640 44 696 q 29 531 29 583 q 53 353 29 442 q 124 194 76 264 q 247 81 172 125 q 422 38 321 38 q 593 85 521 38 q 714 205 665 132 q 786 367 763 278 q 810 542 810 457 q 801 642 810 588 q 773 749 792 696 q 726 853 754 803 q 662 942 699 903 q 578 1003 625 981 q 476 1026 532 1026 q 384 1007 425 1026 q 316 955 343 988 q 274 878 289 922 q 260 786 260 835 q 276 742 260 763 q 317 721 292 721 q 344 732 333 721 q 360 759 354 743 q 369 792 367 775 q 372 822 372 810 q 381 842 372 835 q 401 850 390 850 q 421 842 413 850 q 429 822 429 835 q 422 770 429 797 q 402 719 415 743 q 367 681 389 696 q 317 665 346 665 q 271 676 292 665 q 235 703 250 686 q 211 741 219 719 q 203 786 203 763 q 222 901 203 847 q 276 995 240 954 q 362 1060 311 1036 q 476 1083 413 1083 q 646 1030 572 1083 q 769 895 719 976 q 843 719 818 814 q 868 542 868 624 z "},"":{"ha":658,"x_min":58,"x_max":518,"o":"m 350 454 q 333 410 350 429 q 289 392 315 392 q 245 410 264 392 q 226 454 226 429 q 246 496 226 478 q 289 514 265 514 q 331 496 313 514 q 350 454 350 478 m 518 251 q 506 222 518 233 q 476 210 494 210 l 100 210 q 70 222 82 210 q 58 251 58 233 q 70 281 58 269 q 100 293 82 293 l 476 293 q 506 281 494 293 q 518 251 518 269 m 351 47 q 333 5 351 24 q 290 -14 314 -14 q 248 5 267 -14 q 229 47 229 24 q 247 90 229 72 q 290 108 265 108 q 333 90 315 108 q 351 47 351 72 z "},"":{"ha":1211,"x_min":35,"x_max":1151,"o":"m 1151 153 q 1140 88 1151 119 q 1108 33 1129 57 q 1058 -5 1088 10 q 994 -19 1029 -19 q 931 -5 960 -19 q 881 33 901 10 q 848 88 860 57 q 836 153 836 119 q 849 213 836 185 q 884 263 863 242 q 935 298 906 285 q 994 311 964 311 q 1055 299 1026 311 q 1105 265 1083 286 q 1139 214 1126 243 q 1151 153 1151 185 m 351 939 q 340 874 351 906 q 307 819 328 843 q 257 781 286 796 q 193 767 228 767 q 129 781 158 767 q 79 819 100 796 q 47 874 58 843 q 35 939 35 906 q 48 999 35 971 q 83 1049 61 1026 q 133 1083 104 1071 q 193 1096 163 1096 q 254 1083 225 1096 q 305 1049 283 1071 q 339 999 326 1028 q 351 939 351 971 m 650 1065 q 635 1021 650 1061 q 595 917 619 981 q 538 774 571 854 q 472 609 506 694 q 403 440 438 524 q 340 285 368 356 q 290 165 311 215 q 263 94 269 114 q 244 44 253 69 q 222 -6 236 18 q 196 -24 213 -24 q 176 -15 185 -24 q 168 4 168 -7 q 183 49 168 8 q 223 152 199 89 q 279 295 247 215 q 346 460 311 375 q 415 630 381 546 q 477 784 449 714 q 526 905 506 854 q 554 975 547 956 q 572 1026 564 1000 q 594 1075 581 1051 q 621 1093 604 1093 q 641 1085 632 1093 q 650 1065 650 1076 m 782 153 q 770 88 782 119 q 738 33 758 57 q 688 -5 717 10 q 624 -19 658 -19 q 560 -5 589 -19 q 510 33 531 10 q 477 88 489 57 q 465 153 465 119 q 478 213 465 185 q 513 263 492 242 q 564 298 535 285 q 624 311 593 311 q 685 299 656 311 q 735 265 714 286 q 769 214 757 243 q 782 153 782 185 m 1094 153 q 1065 224 1094 193 q 994 254 1036 254 q 924 224 954 254 q 893 153 893 193 q 900 111 893 132 q 921 74 907 90 q 953 47 935 57 q 994 36 972 36 q 1036 47 1018 36 q 1067 74 1054 57 q 1088 111 1081 90 q 1094 153 1094 132 m 294 939 q 264 1010 294 979 q 193 1040 233 1040 q 122 1010 153 1040 q 92 939 92 979 q 99 897 92 918 q 119 860 106 876 q 152 833 133 843 q 193 824 171 824 q 235 833 217 824 q 267 860 253 843 q 288 897 281 876 q 294 939 294 918 m 725 153 q 694 224 725 193 q 624 254 664 254 q 553 224 583 254 q 522 153 522 193 q 529 111 522 132 q 550 74 536 90 q 583 47 564 57 q 624 36 601 36 q 665 47 647 36 q 697 74 683 57 q 718 111 711 90 q 725 153 725 132 z "},"":{"ha":528,"x_min":-28,"x_max":657,"o":"m 481 1174 q 463 1130 481 1149 q 419 1111 444 1111 q 376 1130 394 1111 q 357 1174 357 1149 q 376 1217 357 1199 q 419 1235 394 1235 q 463 1217 444 1235 q 481 1174 481 1199 m 325 1174 q 307 1130 325 1149 q 264 1111 289 1111 q 219 1130 239 1111 q 200 1174 200 1149 q 219 1217 200 1199 q 264 1235 239 1235 q 307 1217 289 1235 q 325 1174 325 1199 m 657 1025 q 647 991 657 1006 q 619 967 636 976 q 584 954 603 958 q 549 950 565 950 q 506 953 528 950 q 465 964 485 957 q 444 867 450 919 q 438 769 438 815 q 439 558 438 664 q 440 347 440 453 q 428 215 440 281 q 386 98 417 150 q 305 14 356 46 q 175 -18 254 -18 q 131 -12 154 -18 q 87 4 107 -7 q 53 33 67 15 q 40 75 40 50 q 66 133 40 110 q 125 156 92 156 q 153 128 153 156 q 144 107 153 113 q 126 99 136 101 q 107 92 115 96 q 99 75 99 88 q 108 56 99 64 q 128 44 117 49 q 153 39 140 40 q 175 38 167 38 q 281 66 240 38 q 344 140 321 94 q 375 240 367 185 q 383 347 383 294 q 382 558 383 453 q 381 769 381 664 q 387 877 381 822 q 411 981 393 932 q 374 998 396 988 q 328 1018 351 1008 q 282 1035 304 1028 q 244 1043 260 1043 q 174 1034 211 1043 q 104 1006 136 1025 q 51 958 72 988 q 29 890 29 929 q 36 851 29 871 q 56 815 43 831 q 85 789 68 799 q 125 779 103 779 q 184 799 157 779 q 211 853 211 818 q 220 873 211 865 q 240 881 229 881 q 260 873 251 881 q 268 853 268 865 q 256 800 268 824 q 224 759 244 776 q 178 733 204 742 q 125 724 153 724 q 64 738 92 724 q 15 774 36 751 q -17 828 -6 797 q -28 890 -28 858 q -2 981 -28 942 q 63 1047 24 1021 q 151 1087 103 1074 q 244 1100 199 1100 q 290 1092 265 1100 q 340 1074 315 1085 q 390 1052 365 1064 q 435 1032 414 1040 q 483 1081 454 1063 q 549 1099 513 1099 q 584 1094 565 1099 q 619 1081 603 1090 q 646 1058 635 1072 q 657 1025 657 1044 m 599 1025 q 592 1035 599 1032 q 578 1040 586 1038 q 561 1042 569 1042 q 549 1042 553 1042 q 493 1014 514 1042 q 549 1007 524 1007 q 561 1008 553 1007 q 578 1010 569 1008 q 592 1015 586 1011 q 599 1025 599 1019 z "},"":{"ha":528,"x_min":-28,"x_max":657,"o":"m 429 1124 q 421 1103 429 1113 q 401 1094 413 1094 q 360 1117 390 1094 q 297 1169 329 1140 q 238 1226 264 1199 q 213 1265 213 1254 q 222 1285 213 1276 q 243 1293 232 1293 q 264 1283 256 1293 q 296 1247 281 1265 q 331 1213 311 1229 q 374 1179 351 1194 q 418 1146 397 1164 q 429 1124 429 1138 m 657 1026 q 647 992 657 1007 q 619 969 636 978 q 584 956 603 960 q 549 951 565 951 q 465 964 506 951 q 444 867 450 919 q 438 769 438 815 q 439 558 438 664 q 440 347 440 453 q 428 215 440 281 q 387 98 417 150 q 306 14 357 46 q 175 -18 254 -18 q 131 -12 154 -18 q 87 4 107 -7 q 53 33 67 15 q 40 75 40 50 q 66 133 40 110 q 125 156 92 156 q 153 128 153 156 q 144 107 153 113 q 126 99 136 101 q 107 92 115 96 q 99 75 99 88 q 108 56 99 64 q 128 44 117 49 q 153 39 140 40 q 175 38 167 38 q 281 66 240 38 q 344 140 321 94 q 375 240 367 185 q 383 347 383 294 q 382 558 383 453 q 381 769 381 664 q 387 878 381 822 q 411 982 393 933 q 374 999 396 989 q 328 1019 351 1010 q 282 1037 304 1029 q 244 1044 260 1044 q 174 1035 211 1044 q 104 1006 136 1025 q 51 958 72 988 q 29 890 29 929 q 36 851 29 871 q 56 816 43 832 q 85 790 68 800 q 125 781 103 781 q 184 800 157 781 q 211 854 211 819 q 219 874 211 867 q 240 882 228 882 q 268 854 268 882 q 256 801 268 825 q 224 760 244 778 q 178 734 204 743 q 125 725 153 725 q 63 739 92 725 q 15 776 35 753 q -17 828 -6 799 q -28 890 -28 858 q -2 981 -28 942 q 63 1047 24 1021 q 151 1087 103 1074 q 244 1100 199 1100 q 290 1093 265 1100 q 340 1076 315 1086 q 390 1053 365 1065 q 435 1033 414 1042 q 483 1081 454 1064 q 549 1099 513 1099 q 584 1094 565 1099 q 619 1082 603 1090 q 646 1060 635 1074 q 657 1026 657 1046 m 599 1026 q 592 1036 599 1033 q 578 1041 586 1039 q 561 1043 569 1043 q 549 1043 553 1043 q 493 1014 515 1043 q 549 1007 524 1007 q 561 1008 553 1007 q 578 1010 569 1008 q 592 1017 586 1013 q 599 1026 599 1021 z "},"":{"ha":346,"x_min":-83,"x_max":375,"o":"m 224 578 q 215 558 224 567 q 194 550 206 550 q 165 569 185 550 q 126 613 146 589 q 91 656 107 636 q 71 678 75 676 q 49 649 67 669 q 10 606 31 628 q -30 567 -11 583 q -56 550 -49 550 q -75 558 -67 550 q -83 578 -83 567 q -67 607 -83 592 q -42 631 -51 622 q 18 699 -8 661 q 41 728 26 710 q 71 746 56 746 q 89 738 78 746 q 120 702 107 722 q 149 664 133 682 q 182 628 164 644 q 215 593 200 613 q 224 578 224 585 m 375 219 q 372 207 375 215 q 338 134 360 174 q 286 60 315 94 q 221 4 257 26 q 144 -18 185 -18 q 78 11 100 -18 q 49 81 57 40 q 41 165 40 122 q 42 238 42 208 q 26 208 38 226 q 0 190 14 190 q -19 199 -11 190 q -28 218 -28 207 q -21 242 -28 224 q -6 283 -14 261 q 11 326 3 306 q 22 357 19 347 q 28 377 25 364 q 34 403 31 390 q 42 428 38 417 q 50 444 46 440 q 69 454 60 454 q 90 444 82 454 q 99 424 99 435 l 97 138 q 98 108 97 125 q 103 76 99 92 q 118 49 108 60 q 144 38 128 38 q 192 51 169 38 q 234 86 215 65 q 268 131 253 107 q 293 176 283 156 q 306 205 300 190 q 321 232 311 219 q 344 246 331 246 q 365 238 356 246 q 375 219 375 231 z "},"":{"ha":915,"x_min":-28,"x_max":868,"o":"m 560 1132 q 551 1113 560 1121 q 532 1104 543 1104 q 503 1124 522 1104 q 464 1168 483 1144 q 428 1213 444 1192 q 408 1235 413 1233 q 386 1205 404 1226 q 347 1161 368 1183 q 308 1122 326 1139 q 282 1104 289 1104 q 262 1113 271 1104 q 253 1132 253 1121 q 269 1162 253 1146 q 294 1186 285 1178 q 326 1219 311 1201 q 354 1256 340 1236 q 378 1285 363 1267 q 408 1303 393 1303 q 426 1294 415 1303 q 457 1258 444 1278 q 485 1219 469 1238 q 519 1184 500 1200 q 553 1149 538 1168 q 560 1132 560 1142 m 868 542 q 840 344 868 444 q 756 164 811 244 q 617 33 700 83 q 422 -18 533 -18 q 224 29 308 -18 q 83 154 139 76 q 0 331 28 232 q -28 531 -28 429 q -15 682 -28 608 q 29 822 -1 756 q 108 943 60 888 q 226 1039 157 999 q 242 1043 233 1043 q 260 1033 253 1043 q 268 1013 268 1024 q 265 999 268 1004 q 254 990 261 994 q 215 963 235 976 q 178 935 196 950 q 108 849 136 897 q 63 749 81 801 q 37 640 44 696 q 29 531 29 583 q 53 353 29 442 q 124 194 76 264 q 247 81 172 125 q 422 38 321 38 q 593 85 521 38 q 714 205 665 132 q 786 367 763 278 q 810 542 810 457 q 801 642 810 588 q 773 749 792 696 q 726 853 754 803 q 662 942 699 903 q 578 1003 625 981 q 476 1026 532 1026 q 384 1007 425 1026 q 316 955 343 988 q 274 878 289 922 q 260 786 260 835 q 276 742 260 763 q 317 721 292 721 q 344 732 333 721 q 360 759 354 743 q 369 792 367 775 q 372 822 372 810 q 381 842 372 835 q 401 850 390 850 q 421 842 413 850 q 429 822 429 835 q 422 770 429 797 q 402 719 415 743 q 367 681 389 696 q 317 665 346 665 q 271 676 292 665 q 235 703 250 686 q 211 741 219 719 q 203 786 203 763 q 222 901 203 847 q 276 995 240 954 q 362 1060 311 1036 q 476 1083 413 1083 q 646 1030 572 1083 q 769 895 719 976 q 843 719 818 814 q 868 542 868 624 z "},"":{"ha":915,"x_min":-28,"x_max":868,"o":"m 549 1124 q 540 1103 549 1113 q 521 1094 532 1094 q 478 1117 510 1094 q 415 1168 447 1139 q 357 1226 382 1197 q 332 1265 332 1254 q 341 1285 332 1276 q 361 1293 350 1293 q 382 1283 374 1293 q 414 1247 399 1265 q 449 1213 429 1229 q 492 1178 469 1194 q 536 1146 514 1163 q 549 1124 549 1136 m 868 542 q 840 344 868 444 q 756 164 811 244 q 617 33 700 83 q 422 -18 533 -18 q 224 29 308 -18 q 83 154 139 76 q 0 331 28 232 q -28 531 -28 429 q -15 682 -28 608 q 29 822 -1 756 q 108 943 60 888 q 226 1039 157 999 q 242 1043 233 1043 q 260 1033 253 1043 q 268 1013 268 1024 q 265 999 268 1004 q 254 990 261 994 q 215 963 235 976 q 178 935 196 950 q 108 849 136 897 q 63 749 81 801 q 37 640 44 696 q 29 531 29 583 q 53 353 29 442 q 124 194 76 264 q 247 81 172 125 q 422 38 321 38 q 593 85 521 38 q 714 205 665 132 q 786 367 763 278 q 810 542 810 457 q 801 642 810 588 q 773 749 792 696 q 726 853 754 803 q 662 942 699 903 q 578 1003 625 981 q 476 1026 532 1026 q 384 1007 425 1026 q 316 955 343 988 q 274 878 289 922 q 260 786 260 835 q 276 742 260 763 q 317 721 292 721 q 344 732 333 721 q 360 759 354 743 q 369 792 367 775 q 372 822 372 810 q 381 842 372 835 q 401 850 390 850 q 421 842 413 850 q 429 822 429 835 q 422 770 429 797 q 402 719 415 743 q 367 681 389 696 q 317 665 346 665 q 271 676 292 665 q 235 703 250 686 q 211 741 219 719 q 203 786 203 763 q 222 901 203 847 q 276 995 240 954 q 362 1060 311 1036 q 476 1083 413 1083 q 646 1030 572 1083 q 769 895 719 976 q 843 719 818 814 q 868 542 868 624 z "},"":{"ha":1290,"x_min":-28,"x_max":1246,"o":"m 654 1265 q 642 1242 654 1258 q 613 1208 631 1226 q 572 1169 594 1189 q 529 1132 550 1149 q 492 1105 508 1115 q 467 1094 475 1094 q 447 1103 456 1094 q 438 1124 438 1113 q 450 1146 438 1136 q 513 1194 482 1171 q 571 1246 543 1217 q 587 1265 579 1256 q 603 1283 594 1275 q 626 1293 613 1293 q 646 1285 638 1293 q 654 1265 654 1276 m 1246 228 q 1228 133 1246 178 q 1178 56 1210 89 q 1104 2 1147 22 q 1011 -18 1061 -18 q 881 23 939 -18 q 796 131 824 64 q 701 22 761 61 q 563 -18 642 -18 q 450 10 500 -18 q 365 82 400 38 q 310 183 329 126 q 292 296 292 239 l 292 869 q 286 922 292 893 q 269 976 281 950 q 237 1020 257 1003 q 188 1038 217 1038 q 119 1015 149 1038 q 70 958 90 992 q 40 885 50 924 q 29 814 29 846 q 33 760 29 792 q 49 700 38 729 q 80 651 61 671 q 128 631 99 631 q 167 644 151 631 q 192 678 182 658 q 205 722 201 699 q 208 764 208 744 q 217 784 208 776 q 236 792 225 792 q 256 784 247 792 q 265 764 265 776 q 258 699 265 732 q 233 638 250 665 q 190 592 217 610 q 128 575 164 575 q 55 599 85 575 q 6 659 25 624 q -20 737 -12 694 q -28 814 -28 779 q -13 909 -28 860 q 28 999 1 958 q 96 1067 56 1040 q 188 1093 136 1093 q 261 1072 231 1093 q 311 1017 292 1050 q 340 945 331 985 q 349 869 349 906 l 349 296 q 363 204 349 250 q 406 122 378 158 q 473 61 433 85 q 563 38 513 38 q 652 58 613 38 q 719 113 692 79 q 762 191 747 147 q 776 281 776 235 l 776 451 l 776 1068 q 785 1088 776 1081 q 806 1096 794 1096 q 825 1088 817 1096 q 833 1068 833 1081 l 833 451 l 833 228 q 847 157 833 192 q 884 96 860 122 q 941 53 908 69 q 1011 38 974 38 q 1083 53 1050 38 q 1139 95 1115 69 q 1176 156 1163 121 q 1189 228 1189 190 q 1172 277 1189 254 q 1126 300 1154 300 q 1100 290 1107 300 q 1090 269 1093 281 q 1083 249 1088 258 q 1061 239 1078 239 q 1041 247 1050 239 q 1032 267 1032 254 q 1060 331 1032 306 q 1126 356 1089 356 q 1174 345 1153 356 q 1212 317 1196 335 q 1237 276 1228 299 q 1246 228 1246 253 z "},"":{"ha":1290,"x_min":-28,"x_max":1246,"o":"m 686 1132 q 678 1113 686 1121 q 658 1104 669 1104 q 629 1124 649 1104 q 590 1168 610 1144 q 555 1213 571 1192 q 535 1235 539 1233 q 513 1205 531 1226 q 474 1161 494 1183 q 434 1122 453 1139 q 408 1104 415 1104 q 388 1113 397 1104 q 379 1132 379 1121 q 395 1162 379 1146 q 421 1186 411 1178 q 452 1219 438 1201 q 481 1256 467 1236 q 504 1285 489 1267 q 535 1303 519 1303 q 553 1294 542 1303 q 583 1258 571 1278 q 611 1219 596 1238 q 645 1184 626 1200 q 679 1149 664 1168 q 686 1132 686 1142 m 1246 228 q 1228 133 1246 178 q 1178 56 1210 89 q 1104 2 1147 22 q 1011 -18 1061 -18 q 881 23 939 -18 q 796 131 824 64 q 701 22 761 61 q 563 -18 642 -18 q 450 10 500 -18 q 365 82 400 38 q 310 183 329 126 q 292 296 292 239 l 292 869 q 286 922 292 893 q 269 976 281 950 q 237 1020 257 1003 q 188 1038 217 1038 q 119 1015 149 1038 q 70 958 90 992 q 40 885 50 924 q 29 814 29 846 q 33 760 29 792 q 49 700 38 729 q 80 651 61 671 q 128 631 99 631 q 167 644 151 631 q 192 678 182 658 q 205 722 201 699 q 208 764 208 744 q 217 784 208 776 q 236 792 225 792 q 256 784 247 792 q 265 764 265 776 q 258 699 265 732 q 233 638 250 665 q 190 592 217 610 q 128 575 164 575 q 55 599 85 575 q 6 659 25 624 q -20 737 -12 694 q -28 814 -28 779 q -13 909 -28 860 q 28 999 1 958 q 96 1067 56 1040 q 188 1093 136 1093 q 261 1072 231 1093 q 311 1017 292 1050 q 340 945 331 985 q 349 869 349 906 l 349 296 q 363 204 349 250 q 406 122 378 158 q 473 61 433 85 q 563 38 513 38 q 652 58 613 38 q 719 113 692 79 q 762 191 747 147 q 776 281 776 235 l 776 451 l 776 1068 q 785 1088 776 1081 q 806 1096 794 1096 q 825 1088 817 1096 q 833 1068 833 1081 l 833 451 l 833 228 q 847 157 833 192 q 884 96 860 122 q 941 53 908 69 q 1011 38 974 38 q 1083 53 1050 38 q 1139 95 1115 69 q 1176 156 1163 121 q 1189 228 1189 190 q 1172 277 1189 254 q 1126 300 1154 300 q 1100 290 1107 300 q 1090 269 1093 281 q 1083 249 1088 258 q 1061 239 1078 239 q 1041 247 1050 239 q 1032 267 1032 254 q 1060 331 1032 306 q 1126 356 1089 356 q 1174 345 1153 356 q 1212 317 1196 335 q 1237 276 1228 299 q 1246 228 1246 253 z "},"":{"ha":657,"x_min":-28,"x_max":688,"o":"m 339 556 q 331 536 339 544 q 311 528 322 528 q 268 549 299 528 q 205 599 238 571 q 147 656 172 628 q 122 696 122 683 q 132 715 122 707 q 153 724 142 724 q 174 714 165 724 q 205 677 190 696 q 239 643 219 658 q 283 610 260 625 q 326 578 306 594 q 339 556 339 568 m 688 215 q 686 209 688 213 q 683 203 685 206 q 649 138 671 176 q 600 65 628 100 q 540 6 572 31 q 475 -18 508 -18 q 383 46 407 -18 q 382 57 382 49 q 381 68 382 65 q 376 56 378 65 q 372 43 375 46 q 317 -1 349 15 q 247 -18 285 -18 q 172 -6 208 -18 q 106 30 135 7 q 59 87 76 53 q 42 163 42 121 l 42 218 l 42 247 q 40 236 40 244 q 38 225 39 228 q 22 200 31 214 q 1 186 13 186 q -19 194 -10 186 q -28 214 -28 203 q -21 239 -28 221 q -5 278 -14 257 q 13 321 4 300 q 24 351 21 342 q 28 372 26 360 q 34 397 31 385 q 42 421 38 410 q 51 438 46 432 q 72 446 60 446 q 92 436 85 446 q 99 415 99 426 l 99 163 q 112 108 99 132 q 146 69 125 85 q 193 44 167 53 q 247 36 219 36 q 302 53 279 36 q 340 95 325 69 q 363 151 356 121 q 371 208 371 182 l 371 415 q 380 435 371 426 q 400 443 389 443 q 419 435 411 443 q 428 415 428 426 l 428 135 q 428 105 428 122 q 433 72 429 88 q 447 47 438 57 q 475 36 457 36 q 515 53 494 36 q 553 93 535 69 q 587 141 572 117 q 610 181 601 165 q 622 204 617 192 q 633 228 626 217 q 658 242 643 242 q 678 234 669 242 q 688 215 688 226 z "},"":{"ha":657,"x_min":-28,"x_max":688,"o":"m 382 578 q 374 558 382 567 q 354 550 365 550 q 325 569 344 550 q 286 613 306 589 q 251 656 267 636 q 231 678 235 676 q 208 649 226 669 q 169 606 190 628 q 130 567 149 583 q 104 550 111 550 q 84 558 93 550 q 75 578 75 567 q 91 607 75 592 q 117 631 107 622 q 176 699 150 661 q 200 728 185 710 q 231 746 215 746 q 249 738 238 746 q 279 702 267 722 q 307 664 292 682 q 341 628 322 644 q 375 593 360 613 q 382 578 382 586 m 688 215 q 686 209 688 213 q 683 203 685 206 q 649 138 671 176 q 600 65 628 100 q 540 6 572 31 q 475 -18 508 -18 q 383 46 407 -18 q 382 57 382 49 q 381 68 382 65 q 376 56 378 65 q 372 43 375 46 q 317 -1 349 15 q 247 -18 285 -18 q 172 -6 208 -18 q 106 30 135 7 q 59 87 76 53 q 42 163 42 121 l 42 218 l 42 247 q 40 236 40 244 q 38 225 39 228 q 22 200 31 214 q 1 186 13 186 q -19 194 -10 186 q -28 214 -28 203 q -21 239 -28 221 q -5 278 -14 257 q 13 321 4 300 q 24 351 21 342 q 28 372 26 360 q 34 397 31 385 q 42 421 38 410 q 51 438 46 432 q 72 446 60 446 q 92 436 85 446 q 99 415 99 426 l 99 163 q 112 108 99 132 q 146 69 125 85 q 193 44 167 53 q 247 36 219 36 q 302 53 279 36 q 340 95 325 69 q 363 151 356 121 q 371 208 371 182 l 371 415 q 380 435 371 426 q 400 443 389 443 q 419 435 411 443 q 428 415 428 426 l 428 135 q 428 105 428 122 q 433 72 429 88 q 447 47 438 57 q 475 36 457 36 q 515 53 494 36 q 553 93 535 69 q 587 141 572 117 q 610 181 601 165 q 622 204 617 192 q 633 228 626 217 q 658 242 643 242 q 678 234 669 242 q 688 215 688 226 z "},"":{"ha":657,"x_min":-28,"x_max":688,"o":"m 333 700 q 308 661 333 689 q 251 605 283 633 q 189 554 219 576 q 146 532 158 532 q 126 540 135 532 q 117 560 117 549 q 129 582 117 572 q 192 629 161 607 q 250 681 222 651 q 266 699 258 690 q 282 717 274 707 q 304 728 290 728 q 324 719 315 728 q 333 700 333 711 m 688 215 q 686 209 688 213 q 683 203 685 206 q 649 138 671 176 q 600 65 628 100 q 540 6 572 31 q 475 -18 508 -18 q 383 46 407 -18 q 382 57 382 49 q 381 68 382 65 q 376 56 378 65 q 372 43 375 46 q 317 -1 349 15 q 247 -18 285 -18 q 172 -6 208 -18 q 106 30 135 7 q 59 87 76 53 q 42 163 42 121 l 42 218 l 42 247 q 40 236 40 244 q 38 225 39 228 q 22 200 31 214 q 1 186 13 186 q -19 194 -10 186 q -28 214 -28 203 q -21 239 -28 221 q -5 278 -14 257 q 13 321 4 300 q 24 351 21 342 q 28 372 26 360 q 34 397 31 385 q 42 421 38 410 q 51 438 46 432 q 72 446 60 446 q 92 436 85 446 q 99 415 99 426 l 99 163 q 112 108 99 132 q 146 69 125 85 q 193 44 167 53 q 247 36 219 36 q 302 53 279 36 q 340 95 325 69 q 363 151 356 121 q 371 208 371 182 l 371 415 q 380 435 371 426 q 400 443 389 443 q 419 435 411 443 q 428 415 428 426 l 428 135 q 428 105 428 122 q 433 72 429 88 q 447 47 438 57 q 475 36 457 36 q 515 53 494 36 q 553 93 535 69 q 587 141 572 117 q 610 181 601 165 q 622 204 617 192 q 633 228 626 217 q 658 242 643 242 q 678 234 669 242 q 688 215 688 226 z "},"Z":{"ha":896,"x_min":-28,"x_max":907,"o":"m 907 194 q 904 181 907 190 q 860 101 888 138 q 797 36 832 64 q 721 -7 761 8 q 639 -22 681 -22 q 438 10 535 -22 q 243 75 342 42 q 181 9 219 40 q 103 -22 143 -22 q 62 -17 85 -22 q 19 -1 39 -12 q -14 29 0 11 q -28 74 -28 47 q -15 119 -28 101 q 18 149 -1 138 q 60 165 38 160 q 101 169 82 169 q 161 163 132 169 q 219 149 190 157 q 281 275 256 208 q 339 404 307 342 q 386 503 363 453 q 433 603 410 553 q 389 611 410 611 q 338 598 361 611 q 306 585 315 585 q 286 593 294 585 q 278 614 278 601 q 292 639 278 628 q 324 659 306 650 q 360 672 342 668 q 389 676 379 676 q 424 672 407 676 q 458 660 442 668 q 513 785 486 724 q 565 913 539 847 q 603 1006 585 958 q 642 1099 621 1053 q 504 1131 572 1114 q 367 1165 436 1147 q 324 1176 344 1169 q 279 1182 303 1182 q 208 1171 246 1182 q 139 1139 171 1160 q 86 1085 107 1118 q 65 1007 65 1051 q 72 963 65 985 q 92 922 79 940 q 122 893 104 904 q 160 882 139 882 q 219 904 192 882 q 247 967 247 926 q 256 989 247 981 q 275 997 264 997 q 295 989 286 997 q 304 967 304 981 q 292 906 304 933 q 259 860 279 879 q 213 830 239 840 q 160 819 188 819 q 99 835 126 819 q 51 877 71 851 q 19 937 31 903 q 8 1007 8 971 q 34 1110 8 1065 q 99 1185 60 1156 q 187 1231 139 1215 q 279 1246 235 1246 q 404 1226 343 1246 q 528 1190 465 1206 q 599 1172 564 1181 q 669 1156 633 1164 q 723 1218 692 1193 q 796 1243 754 1243 q 831 1239 813 1243 q 867 1224 850 1235 q 894 1198 883 1214 q 906 1160 906 1182 q 894 1122 906 1138 q 867 1097 883 1107 q 832 1081 851 1086 q 796 1076 813 1076 q 700 1086 749 1076 q 658 987 676 1038 q 618 886 639 936 q 565 759 592 822 q 511 635 539 696 q 555 616 532 624 q 601 608 578 608 q 629 613 617 608 q 657 617 642 617 q 676 608 668 617 q 685 586 685 599 q 674 566 685 575 q 651 553 664 557 q 624 546 638 549 q 601 543 610 543 q 542 555 571 543 q 486 579 514 567 q 438 476 463 528 q 389 372 414 424 q 333 251 358 313 q 275 129 307 189 q 453 69 367 97 q 639 42 540 42 q 744 75 694 42 q 825 158 793 108 q 839 183 832 171 q 853 208 846 196 q 863 222 858 217 q 878 226 868 226 q 898 217 889 226 q 907 194 907 207 m 847 1160 q 841 1172 847 1168 q 826 1178 835 1176 q 808 1180 817 1179 q 796 1181 800 1181 q 761 1170 776 1181 q 733 1144 746 1160 q 796 1140 765 1140 q 808 1141 800 1140 q 826 1143 817 1142 q 841 1149 835 1144 q 847 1160 847 1154 m 183 93 q 101 104 146 104 q 83 103 94 104 q 59 100 71 103 q 38 91 47 97 q 29 74 29 85 q 38 55 29 63 q 60 45 47 47 q 85 42 72 43 q 104 42 97 42 q 148 58 128 42 q 183 93 168 74 z "},"":{"ha":1018,"x_min":-28,"x_max":974,"o":"m 585 1265 q 573 1242 585 1258 q 543 1208 561 1226 q 503 1169 525 1189 q 460 1132 481 1149 q 422 1105 439 1115 q 397 1094 406 1094 q 377 1103 386 1094 q 368 1124 368 1113 q 381 1146 368 1136 q 443 1194 413 1171 q 501 1246 474 1217 q 526 1275 511 1257 q 556 1293 540 1293 q 576 1285 567 1293 q 585 1265 585 1276 m 974 229 q 956 135 974 179 q 906 56 938 90 q 831 2 875 22 q 738 -18 788 -18 q 617 23 661 -18 q 551 125 574 64 q 524 256 529 186 q 519 382 519 325 q 522 463 519 422 q 528 544 525 504 q 459 564 493 553 q 389 582 425 575 q 390 463 389 528 q 385 331 390 397 q 366 201 381 264 q 320 89 351 138 q 238 11 289 40 q 107 -18 186 -18 q 63 -12 86 -18 q 19 4 39 -7 q -15 33 -1 15 q -28 75 -28 50 q -2 133 -28 110 q 57 156 24 156 q 85 128 85 156 q 76 107 85 113 q 58 99 68 101 q 38 92 47 96 q 29 75 29 88 q 38 56 29 64 q 60 44 47 49 q 85 39 72 40 q 107 38 99 38 q 233 78 188 38 q 300 178 278 118 q 327 309 322 239 q 332 439 332 379 l 332 589 l 318 589 q 285 583 300 589 q 258 572 269 578 q 239 560 247 565 q 224 554 231 554 q 203 563 213 554 q 194 583 194 572 q 198 595 194 590 q 206 604 201 600 q 264 638 232 628 q 332 644 296 647 q 335 749 332 697 q 338 853 338 800 q 344 928 338 886 q 369 1008 351 971 q 415 1070 386 1044 q 485 1096 443 1096 q 553 1069 529 1096 q 588 1003 576 1042 q 601 922 599 964 q 603 847 603 879 q 598 718 603 782 q 588 590 593 654 q 607 588 597 589 q 626 588 617 588 q 659 596 644 588 q 685 613 674 604 q 706 631 696 622 q 725 639 715 639 q 744 630 736 639 q 753 610 753 621 q 744 590 753 599 q 691 549 721 567 q 626 532 661 532 q 604 533 615 532 q 582 535 593 533 q 578 453 579 494 q 576 372 576 413 q 579 273 576 331 q 597 163 582 215 q 645 74 613 111 q 738 38 678 38 q 809 53 776 38 q 866 96 842 69 q 903 157 890 122 q 917 229 917 192 q 899 278 917 256 q 854 300 882 300 q 828 290 835 300 q 818 269 821 281 q 810 249 815 258 q 789 239 806 239 q 769 247 778 239 q 760 267 760 254 q 788 331 760 306 q 854 357 817 357 q 902 347 881 357 q 940 318 924 336 q 965 277 956 300 q 974 229 974 254 m 546 858 q 545 904 546 874 q 539 965 544 935 q 521 1017 533 994 q 485 1039 508 1039 q 440 1017 457 1039 q 412 966 422 996 q 398 905 401 936 q 394 853 394 874 q 392 746 394 800 q 389 638 389 692 q 460 620 425 631 q 532 601 496 610 q 542 730 538 667 q 546 858 546 793 z "},"":{"ha":724,"x_min":-28,"x_max":686,"o":"m 517 1174 q 499 1130 517 1149 q 456 1111 481 1111 q 412 1130 431 1111 q 393 1174 393 1149 q 412 1217 393 1199 q 456 1235 431 1235 q 499 1217 481 1235 q 517 1174 517 1199 m 361 1174 q 343 1130 361 1149 q 300 1111 325 1111 q 256 1130 275 1111 q 236 1174 236 1149 q 256 1217 236 1199 q 300 1235 275 1235 q 343 1217 325 1235 q 361 1174 361 1199 m 686 228 q 663 131 686 176 q 601 53 639 86 q 515 1 563 19 q 417 -18 467 -18 q 268 17 335 -18 q 154 111 201 53 q 81 243 107 169 q 56 393 56 317 q 103 569 56 489 q 239 692 151 649 q 222 719 229 706 q 208 749 214 733 q 133 762 175 751 q 56 792 92 772 q -3 841 21 811 q -28 913 -28 871 q 1 988 -28 954 q 73 1046 31 1022 q 162 1083 115 1069 q 243 1096 208 1096 q 263 1088 254 1096 q 271 1068 271 1081 q 263 1048 271 1056 q 243 1040 254 1040 q 185 1031 221 1040 q 114 1003 149 1021 q 54 963 79 986 q 29 913 29 940 q 48 866 29 885 q 92 835 67 847 q 147 816 118 822 q 197 807 176 810 q 196 821 196 814 q 196 836 196 829 q 224 936 196 889 q 297 1019 253 983 q 395 1075 342 1054 q 497 1096 449 1096 q 594 1064 557 1096 q 631 969 631 1032 q 592 869 631 910 q 497 802 553 828 q 378 764 440 776 q 269 749 315 751 q 290 715 278 731 q 350 731 319 725 q 411 736 381 736 q 443 733 425 736 q 477 722 461 729 q 504 701 493 714 q 515 672 515 689 q 506 638 515 653 q 480 614 496 624 q 446 599 464 604 q 411 594 428 594 q 341 609 375 594 q 279 647 307 624 q 158 544 203 613 q 113 393 113 476 q 134 265 113 329 q 195 151 156 201 q 291 69 235 100 q 417 38 347 38 q 492 52 454 38 q 560 93 531 67 q 610 154 590 119 q 629 228 629 189 q 612 277 629 254 q 567 300 594 300 q 525 292 536 300 q 510 274 514 283 q 503 256 506 264 q 485 247 500 247 q 460 260 469 247 q 450 286 450 272 q 463 316 450 303 q 495 338 476 329 q 533 351 514 347 q 567 356 553 356 q 614 345 592 356 q 652 317 636 335 q 677 276 668 299 q 686 228 686 253 m 574 969 q 553 1024 574 1007 q 497 1040 533 1040 q 431 1030 464 1040 q 369 1001 399 1019 q 315 958 339 982 q 274 904 290 933 q 259 872 265 889 q 253 836 253 856 q 253 819 253 828 q 254 804 253 813 q 342 815 288 806 q 447 843 396 824 q 536 893 499 863 q 574 969 574 924 m 453 669 q 447 674 453 672 q 435 678 442 676 q 421 679 428 679 q 413 679 415 679 q 379 676 396 679 q 346 671 363 674 q 376 656 357 660 q 411 651 396 651 q 435 655 418 651 q 453 669 453 658 z "}}}
